ScienceGothic-CtrS.ufo
<glyph name="exclam" format="2">
  <advance width="770"/>
  <unicode hex="0021"/>
  <outline>
    <contour>
      <point x="129" y="111" type="line" smooth="yes"/>
      <point x="114" y="23"/>
      <point x="140" y="-8"/>
      <point x="228" y="-8" type="qcurve" smooth="yes"/>
      <point x="304" y="-8" type="line" smooth="yes"/>
      <point x="392" y="-8"/>
      <point x="429" y="23"/>
      <point x="444" y="111" type="qcurve" smooth="yes"/>
      <point x="458" y="190" type="line" smooth="yes"/>
      <point x="473" y="277"/>
      <point x="447" y="307"/>
      <point x="359" y="307" type="qcurve" smooth="yes"/>
      <point x="283" y="307" type="line" smooth="yes"/>
      <point x="195" y="307"/>
      <point x="158" y="276"/>
      <point x="143" y="190" type="qcurve" smooth="yes"/>
    </contour>
    <contour>
      <point x="331" y="462" type="line"/>
      <point x="366" y="462" type="line"/>
      <point x="698" y="1400" type="line"/>
      <point x="325" y="1400" type="line"/>
    </contour>
  </outline>
</glyph>
<glyph name="quotedbl" format="2">
  <advance width="1102"/>
  <unicode hex="0022"/>
  <outline>
    <contour>
      <point x="300" y="1256" type="line"/>
      <point x="310" y="855" type="line"/>
      <point x="422" y="855" type="line"/>
      <point x="572" y="1256" type="line"/>
      <point x="589" y="1355" type="line" smooth="yes"/>
      <point x="604.092" y="1441.78"/>
      <point x="583.196" y="1472"/>
      <point x="510" y="1472" type="qcurve" smooth="yes"/>
      <point x="436" y="1472" type="line" smooth="yes"/>
      <point x="362.804" y="1472"/>
      <point x="332.092" y="1441.78"/>
      <point x="317" y="1355" type="qcurve" smooth="yes"/>
    </contour>
    <contour>
      <point x="733" y="1256" type="line"/>
      <point x="743" y="855" type="line"/>
      <point x="855" y="855" type="line"/>
      <point x="1005" y="1256" type="line"/>
      <point x="1022" y="1355" type="line" smooth="yes"/>
      <point x="1037.09" y="1441.78"/>
      <point x="1016.2" y="1472"/>
      <point x="943" y="1472" type="qcurve" smooth="yes"/>
      <point x="869" y="1472" type="line" smooth="yes"/>
      <point x="795.804" y="1472"/>
      <point x="765.092" y="1441.78"/>
      <point x="750" y="1355" type="qcurve" smooth="yes"/>
    </contour>
  </outline>
</glyph>
<glyph name="dollar" format="2">
  <advance width="1633"/>
  <unicode hex="0024"/>
  <outline>
    <contour>
      <point x="558" y="-160" type="line"/>
      <point x="772" y="-160" type="line"/>
      <point x="803" y="16" type="line"/>
      <point x="1022" y="16" type="line" smooth="yes"/>
      <point x="1102.25" y="16"/>
      <point x="1233.91" y="39"/>
      <point x="1333.84" y="102"/>
      <point x="1400.62" y="213.5"/>
      <point x="1416" y="302" type="qcurve" smooth="yes"/>
      <point x="1442" y="452" type="line" smooth="yes"/>
      <point x="1457" y="538.25"/>
      <point x="1425.62" y="645.438"/>
      <point x="1345.38" y="705.062"/>
      <point x="1222.5" y="726"/>
      <point x="1146" y="726" type="qcurve" smooth="yes"/>
      <point x="927" y="726" type="line"/>
      <point x="1035" y="1348" type="line"/>
      <point x="1326" y="1348" type="line"/>
      <point x="1326" y="1348"/>
      <point x="1326" y="1348"/>
      <point x="1326" y="1348" type="qcurve"/>
      <point x="1264" y="990" type="line"/>
      <point x="1525" y="1040" type="line"/>
      <point x="1537" y="1110" type="line" smooth="yes"/>
      <point x="1552" y="1195.5"/>
      <point x="1520.62" y="1302.5"/>
      <point x="1440.38" y="1362.5"/>
      <point x="1317.5" y="1384"/>
      <point x="1241" y="1384" type="qcurve" smooth="yes"/>
      <point x="1042" y="1384" type="line"/>
      <point x="1072" y="1560" type="line"/>
      <point x="858" y="1560" type="line"/>
      <point x="828" y="1384" type="line"/>
      <point x="635" y="1384" type="line" smooth="yes"/>
      <point x="559.25" y="1384"/>
      <point x="429.688" y="1362.5"/>
      <point x="328.812" y="1302.5"/>
      <point x="260" y="1195.5"/>
      <point x="245" y="1110" type="qcurve" smooth="yes"/>
      <point x="222" y="978" type="line" smooth="yes"/>
      <point x="206.625" y="889.5"/>
      <point x="234.094" y="777.375"/>
      <point x="311.156" y="713.625"/>
      <point x="433.5" y="690"/>
      <point x="513" y="690" type="qcurve" smooth="yes"/>
      <point x="706" y="690" type="line"/>
      <point x="595" y="52" type="line"/>
      <point x="282" y="52" type="line"/>
      <point x="282" y="52"/>
      <point x="282" y="52"/>
      <point x="282" y="52" type="qcurve"/>
      <point x="348" y="430" type="line"/>
      <point x="87" y="378" type="line"/>
      <point x="74" y="302" type="line" smooth="yes"/>
      <point x="58.625" y="213.5"/>
      <point x="86.4062" y="102"/>
      <point x="163.844" y="39"/>
      <point x="286.5" y="16"/>
      <point x="366" y="16" type="qcurve" smooth="yes"/>
      <point x="589" y="16" type="line"/>
    </contour>
    <contour>
      <point x="713" y="726" type="line"/>
      <point x="430" y="726" type="line"/>
      <point x="430" y="726"/>
      <point x="430" y="726"/>
      <point x="430" y="726" type="qcurve"/>
      <point x="538" y="1348" type="line"/>
      <point x="538" y="1348"/>
      <point x="538" y="1348"/>
      <point x="538" y="1348" type="qcurve"/>
      <point x="821" y="1348" type="line"/>
    </contour>
    <contour>
      <point x="809" y="52" type="line"/>
      <point x="920" y="690" type="line"/>
      <point x="1231" y="690" type="line"/>
      <point x="1231" y="690"/>
      <point x="1231" y="690"/>
      <point x="1231" y="690" type="qcurve"/>
      <point x="1120" y="52" type="line"/>
      <point x="1120" y="52"/>
      <point x="1120" y="52"/>
      <point x="1120" y="52" type="qcurve"/>
    </contour>
  </outline>
</glyph>
<glyph name="percent" format="2">
  <advance width="2620"/>
  <unicode hex="0025"/>
  <outline>
    <contour>
      <point x="408.459" y="614" type="qcurve" smooth="yes"/>
      <point x="817.459" y="614" type="line" smooth="yes"/>
      <point x="913.293" y="614"/>
      <point x="1036.64" y="666.601"/>
      <point x="1055.21" y="773" type="qcurve" smooth="yes"/>
      <point x="1141.95" y="1270" type="line" smooth="yes"/>
      <point x="1159.73" y="1371.87"/>
      <point x="1046.42" y="1420"/>
      <point x="958.132" y="1420" type="qcurve" smooth="yes"/>
      <point x="549.132" y="1420" type="line" smooth="yes"/>
      <point x="460.09" y="1420"/>
      <point x="331.732" y="1371.87"/>
      <point x="313.952" y="1270" type="qcurve" smooth="yes"/>
      <point x="227.21" y="773" type="line" smooth="yes"/>
      <point x="208.903" y="668.111"/>
      <point x="312.625" y="614"/>
    </contour>
    <contour>
      <point x="405.568" y="649" type="line"/>
      <point x="405.568" y="649"/>
      <point x="405.568" y="649"/>
      <point x="405.568" y="649" type="qcurve"/>
      <point x="534.024" y="1385" type="line"/>
      <point x="534.024" y="1385"/>
      <point x="534.024" y="1385"/>
      <point x="534.024" y="1385" type="qcurve"/>
      <point x="962.024" y="1385" type="line"/>
      <point x="962.024" y="1385"/>
      <point x="962.024" y="1385"/>
      <point x="962.024" y="1385" type="qcurve"/>
      <point x="833.568" y="649" type="line"/>
      <point x="833.568" y="649"/>
      <point x="833.568" y="649"/>
      <point x="833.568" y="649" type="qcurve"/>
    </contour>
    <contour>
      <point x="709" y="0" type="line"/>
      <point x="745" y="0" type="line"/>
      <point x="1914" y="1400" type="line"/>
      <point x="1878" y="1400" type="line"/>
    </contour>
    <contour>
      <point x="1668.66" y="-11" type="qcurve" smooth="yes"/>
      <point x="2077.66" y="-11" type="line" smooth="yes"/>
      <point x="2173.5" y="-11"/>
      <point x="2296.84" y="41.6014"/>
      <point x="2315.41" y="148" type="qcurve" smooth="yes"/>
      <point x="2402.16" y="645" type="line" smooth="yes"/>
      <point x="2419.94" y="746.871"/>
      <point x="2306.62" y="795"/>
      <point x="2218.34" y="795" type="qcurve" smooth="yes"/>
      <point x="1809.34" y="795" type="line" smooth="yes"/>
      <point x="1720.29" y="795"/>
      <point x="1591.94" y="746.871"/>
      <point x="1574.16" y="645" type="qcurve" smooth="yes"/>
      <point x="1487.41" y="148" type="line" smooth="yes"/>
      <point x="1469.11" y="43.1106"/>
      <point x="1572.83" y="-11"/>
    </contour>
    <contour>
      <point x="1665.77" y="24" type="line"/>
      <point x="1665.77" y="24"/>
      <point x="1665.77" y="24"/>
      <point x="1665.77" y="24" type="qcurve"/>
      <point x="1794.23" y="760" type="line"/>
      <point x="1794.23" y="760"/>
      <point x="1794.23" y="760"/>
      <point x="1794.23" y="760" type="qcurve"/>
      <point x="2222.23" y="760" type="line"/>
      <point x="2222.23" y="760"/>
      <point x="2222.23" y="760"/>
      <point x="2222.23" y="760" type="qcurve"/>
      <point x="2093.77" y="24" type="line"/>
      <point x="2093.77" y="24"/>
      <point x="2093.77" y="24"/>
      <point x="2093.77" y="24" type="qcurve"/>
    </contour>
  </outline>
</glyph>
<glyph name="ampersand" format="2">
  <advance width="1659"/>
  <unicode hex="0026"/>
  <outline>
    <contour>
      <point x="187" y="-10" type="qcurve" smooth="yes"/>
      <point x="449" y="-10" type="line" smooth="yes"/>
      <point x="512" y="-10"/>
      <point x="625.969" y="4.0625"/>
      <point x="735.281" y="38.9375"/>
      <point x="843.625" y="98"/>
      <point x="901" y="143" type="qcurve" smooth="yes"/>
      <point x="1019" y="236" type="line"/>
      <point x="1212" y="0" type="line"/>
      <point x="1539" y="0" type="line"/>
      <point x="1209" y="405" type="line"/>
      <point x="1519" y="654" type="line"/>
      <point x="1496" y="682" type="line"/>
      <point x="1186" y="433" type="line"/>
      <point x="658" y="1074" type="line"/>
      <point x="658" y="1074"/>
      <point x="658" y="1074"/>
      <point x="658" y="1074" type="qcurve"/>
      <point x="711" y="1374" type="line"/>
      <point x="711" y="1374"/>
      <point x="711" y="1374"/>
      <point x="711" y="1374" type="qcurve"/>
      <point x="1067" y="1374" type="line"/>
      <point x="1067" y="1374"/>
      <point x="1067" y="1374"/>
      <point x="1067" y="1374" type="qcurve"/>
      <point x="995" y="962" type="line"/>
      <point x="1228" y="1012" type="line"/>
      <point x="1258" y="1188" type="line" smooth="yes"/>
      <point x="1277.62" y="1299.68"/>
      <point x="1172.45" y="1410"/>
      <point x="1057" y="1410" type="qcurve" smooth="yes"/>
      <point x="733" y="1410" type="line" smooth="yes"/>
      <point x="599.436" y="1410"/>
      <point x="449.675" y="1296.32"/>
      <point x="421" y="1162" type="qcurve" smooth="yes"/>
      <point x="412" y="1120" type="line" smooth="yes"/>
      <point x="402.625" y="1075.38"/>
      <point x="417.219" y="997.625"/>
      <point x="456.031" y="923.375"/>
      <point x="514.5" y="848.625"/>
      <point x="549" y="807" type="qcurve"/>
      <point x="140" y="580" type="line" smooth="yes"/>
      <point x="78.8774" y="546.043"/>
      <point x="16.5644" y="458.368"/>
      <point x="6" y="398" type="qcurve" smooth="yes"/>
      <point x="-27" y="204" type="line" smooth="yes"/>
      <point x="-36.75" y="148.875"/>
      <point x="-16.4688" y="68.2188"/>
      <point x="39.2188" y="15.5312"/>
      <point x="128.125" y="-10"/>
    </contour>
    <contour>
      <point x="200" y="26" type="line"/>
      <point x="200" y="26"/>
      <point x="200" y="26"/>
      <point x="200" y="26" type="qcurve"/>
      <point x="305" y="631" type="line"/>
      <point x="305" y="631"/>
      <point x="305" y="631"/>
      <point x="305" y="631" type="qcurve"/>
      <point x="573" y="778" type="line"/>
      <point x="994" y="266" type="line"/>
      <point x="878" y="174" type="line" smooth="yes"/>
      <point x="773.865" y="90.994"/>
      <point x="581.509" y="26"/>
      <point x="457" y="26" type="qcurve" smooth="yes"/>
    </contour>
  </outline>
</glyph>
<glyph name="quotesingle" format="2">
  <advance width="668"/>
  <unicode hex="0027"/>
  <outline>
    <contour>
      <point x="296" y="1236" type="line"/>
      <point x="313" y="1335" type="line" smooth="yes"/>
      <point x="321" y="1378"/>
      <point x="332" y="1425"/>
      <point x="355" y="1448"/>
      <point x="396" y="1452"/>
      <point x="432" y="1452" type="qcurve" smooth="yes"/>
      <point x="506" y="1452" type="line" smooth="yes"/>
      <point x="542" y="1452"/>
      <point x="582" y="1448"/>
      <point x="597" y="1425"/>
      <point x="593" y="1378"/>
      <point x="585" y="1335" type="qcurve" smooth="yes"/>
      <point x="568" y="1236" type="line"/>
      <point x="418" y="835" type="line"/>
      <point x="306" y="835" type="line"/>
    </contour>
  </outline>
</glyph>
<glyph name="parenleft" format="2">
  <advance width="638"/>
  <unicode hex="0028"/>
  <outline>
    <contour>
      <point x="461" y="-256" type="line"/>
      <point x="418" y="-163"/>
      <point x="373" y="-40"/>
      <point x="370" y="123"/>
      <point x="407" y="376"/>
      <point x="446" y="597" type="qcurve" smooth="yes"/>
      <point x="484" y="816"/>
      <point x="535" y="1066"/>
      <point x="595" y="1230"/>
      <point x="683" y="1355"/>
      <point x="759" y="1448" type="qcurve"/>
      <point x="724" y="1448" type="line"/>
      <point x="609" y="1376"/>
      <point x="412" y="1195"/>
      <point x="258" y="980"/>
      <point x="152" y="734"/>
      <point x="128" y="597" type="qcurve" smooth="yes"/>
      <point x="80" y="322"/>
      <point x="245" y="-119"/>
      <point x="426" y="-256" type="qcurve"/>
    </contour>
  </outline>
</glyph>
<glyph name="parenright" format="2">
  <advance width="639"/>
  <unicode hex="0029"/>
  <outline>
    <contour>
      <point x="147" y="1448" type="line"/>
      <point x="190.5" y="1355.38"/>
      <point x="235.031" y="1231.59"/>
      <point x="238.219" y="1068.66"/>
      <point x="200.625" y="816.25"/>
      <point x="162" y="595" type="qcurve" smooth="yes"/>
      <point x="123.75" y="376.375"/>
      <point x="73.4688" y="125.531"/>
      <point x="13.2812" y="-37.7812"/>
      <point x="-74.875" y="-163"/>
      <point x="-151" y="-256" type="qcurve"/>
      <point x="-116" y="-256" type="line"/>
      <point x="-1.25" y="-184"/>
      <point x="195.688" y="-2.71875"/>
      <point x="349.812" y="211.969"/>
      <point x="456" y="458.125"/>
      <point x="480" y="595" type="qcurve" smooth="yes"/>
      <point x="528.294" y="870.429"/>
      <point x="363.104" y="1310.66"/>
      <point x="182" y="1448" type="qcurve"/>
    </contour>
  </outline>
</glyph>
<glyph name="plus" format="2">
  <advance width="1452"/>
  <unicode hex="002B"/>
  <outline>
    <contour>
      <point x="1297" y="605" type="line"/>
      <point x="734" y="605" type="line"/>
      <point x="832" y="1168" type="line"/>
      <point x="792" y="1168" type="line"/>
      <point x="694" y="605" type="line"/>
      <point x="131" y="605" type="line"/>
      <point x="124" y="569" type="line"/>
      <point x="687" y="569" type="line"/>
      <point x="588" y="0" type="line"/>
      <point x="628" y="0" type="line"/>
      <point x="727" y="569" type="line"/>
      <point x="1290" y="569" type="line"/>
    </contour>
  </outline>
</glyph>
<glyph name="period" format="2">
  <advance width="712"/>
  <unicode hex="002E"/>
  <outline>
    <contour>
      <point x="98" y="111" type="line" smooth="yes"/>
      <point x="83" y="23"/>
      <point x="109" y="-8"/>
      <point x="197" y="-8" type="qcurve" smooth="yes"/>
      <point x="273" y="-8" type="line" smooth="yes"/>
      <point x="361" y="-8"/>
      <point x="398" y="23"/>
      <point x="413" y="111" type="qcurve" smooth="yes"/>
      <point x="427" y="190" type="line" smooth="yes"/>
      <point x="442" y="277"/>
      <point x="416" y="307"/>
      <point x="328" y="307" type="qcurve" smooth="yes"/>
      <point x="252" y="307" type="line" smooth="yes"/>
      <point x="164" y="307"/>
      <point x="127" y="276"/>
      <point x="112" y="190" type="qcurve" smooth="yes"/>
    </contour>
  </outline>
</glyph>
<glyph name="slash" format="2">
  <advance width="997"/>
  <unicode hex="002F"/>
  <outline>
    <contour>
      <point x="786" y="1430" type="line"/>
      <point x="-38" y="-100" type="line"/>
      <point x="206" y="-100" type="line"/>
      <point x="1030" y="1430" type="line"/>
    </contour>
  </outline>
</glyph>
<glyph name="zero" format="2">
  <advance width="1895"/>
  <unicode hex="0030"/>
  <outline>
    <contour>
      <point x="443" y="-10" type="qcurve" smooth="yes"/>
      <point x="1209" y="-10" type="line" smooth="yes"/>
      <point x="1370.48" y="-10"/>
      <point x="1572.06" y="97.9144"/>
      <point x="1603" y="276" type="qcurve" smooth="yes"/>
      <point x="1753" y="1136" type="line" smooth="yes"/>
      <point x="1783" y="1307"/>
      <point x="1608.5" y="1410"/>
      <point x="1457" y="1410" type="qcurve" smooth="yes"/>
      <point x="691" y="1410" type="line" smooth="yes"/>
      <point x="539.5" y="1410"/>
      <point x="331" y="1307"/>
      <point x="301" y="1136" type="qcurve" smooth="yes"/>
      <point x="151" y="276" type="line" smooth="yes"/>
      <point x="120.061" y="99.4236"/>
      <point x="281.516" y="-10"/>
    </contour>
    <contour>
      <point x="372" y="26" type="line"/>
      <point x="372" y="26"/>
      <point x="372" y="26"/>
      <point x="372" y="26" type="qcurve"/>
      <point x="607" y="1374" type="line"/>
      <point x="607" y="1374"/>
      <point x="607" y="1374"/>
      <point x="607" y="1374" type="qcurve"/>
      <point x="1531" y="1374" type="line"/>
      <point x="1531" y="1374"/>
      <point x="1531" y="1374"/>
      <point x="1531" y="1374" type="qcurve"/>
      <point x="1296" y="26" type="line"/>
      <point x="1296" y="26"/>
      <point x="1296" y="26"/>
      <point x="1296" y="26" type="qcurve"/>
    </contour>
  </outline>
</glyph>
<glyph name="one" format="2">
  <advance width="823"/>
  <unicode hex="0031"/>
  <outline>
    <contour>
      <point x="219" y="0" type="line"/>
      <point x="483" y="0" type="line"/>
      <point x="730" y="1414" type="line"/>
      <point x="180" y="1324" type="line"/>
      <point x="174" y="1288" type="line"/>
      <point x="452" y="1333" type="line"/>
    </contour>
  </outline>
  <guideline angle="90" color="0.4,0.4,0.4,1" name="halfwidth" x="411.5" y="0"/>
</glyph>
<glyph name="two" format="2">
  <advance width="1687"/>
  <unicode hex="0032"/>
  <outline>
    <contour>
      <point x="101" y="0" type="line"/>
      <point x="1073" y="0" type="line" smooth="yes"/>
      <point x="1216" y="0"/>
      <point x="1408" y="101"/>
      <point x="1436" y="260" type="qcurve" smooth="yes"/>
      <point x="1458" y="382" type="line"/>
      <point x="1221" y="426" type="line"/>
      <point x="1153" y="36" type="line"/>
      <point x="1153" y="36"/>
      <point x="1153" y="36"/>
      <point x="1153" y="36" type="qcurve"/>
      <point x="371" y="36" type="line"/>
      <point x="445" y="457" type="line" smooth="yes"/>
      <point x="453" y="500"/>
      <point x="513" y="566"/>
      <point x="582" y="583" type="qcurve" smooth="yes"/>
      <point x="1297" y="758" type="line" smooth="yes"/>
      <point x="1342" y="769"/>
      <point x="1418" y="819"/>
      <point x="1478" y="889"/>
      <point x="1518" y="976"/>
      <point x="1526" y="1023" type="qcurve" smooth="yes"/>
      <point x="1550" y="1162" type="line" smooth="yes"/>
      <point x="1561" y="1224"/>
      <point x="1537" y="1316"/>
      <point x="1468" y="1379"/>
      <point x="1355" y="1410"/>
      <point x="1275" y="1410" type="qcurve" smooth="yes"/>
      <point x="681" y="1410" type="line" smooth="yes"/>
      <point x="602" y="1410"/>
      <point x="476" y="1374"/>
      <point x="385" y="1307"/>
      <point x="328" y="1210"/>
      <point x="317" y="1148" type="qcurve" smooth="yes"/>
      <point x="280" y="936" type="line"/>
      <point x="535" y="882" type="line"/>
      <point x="621" y="1374" type="line"/>
      <point x="621" y="1374"/>
      <point x="621" y="1374"/>
      <point x="621" y="1374" type="qcurve"/>
      <point x="1323" y="1374" type="line"/>
      <point x="1323" y="1374"/>
      <point x="1323" y="1374"/>
      <point x="1323" y="1374" type="qcurve"/>
      <point x="1234" y="866" type="line" smooth="yes"/>
      <point x="1227" y="821"/>
      <point x="1192" y="767"/>
      <point x="1139" y="754" type="qcurve" smooth="yes"/>
      <point x="382" y="569" type="line" smooth="yes"/>
      <point x="285" y="545"/>
      <point x="174" y="414"/>
      <point x="157" y="321" type="qcurve" smooth="yes"/>
    </contour>
  </outline>
</glyph>
<glyph name="three" format="2">
  <advance width="1723"/>
  <unicode hex="0033"/>
  <outline>
    <contour>
      <point x="168" y="384" type="line"/>
      <point x="145" y="250" type="line" smooth="yes"/>
      <point x="118" y="98"/>
      <point x="282" y="-10"/>
      <point x="417" y="-10" type="qcurve" smooth="yes"/>
      <point x="1043" y="-10" type="line" smooth="yes"/>
      <point x="1122" y="-10"/>
      <point x="1251" y="13"/>
      <point x="1350" y="80"/>
      <point x="1418" y="201"/>
      <point x="1435" y="300" type="qcurve" smooth="yes"/>
      <point x="1459" y="438" type="line" smooth="yes"/>
      <point x="1485" y="584"/>
      <point x="1383" y="709"/>
      <point x="1275" y="720" type="qcurve"/>
      <point x="1393" y="740"/>
      <point x="1523" y="843"/>
      <point x="1549" y="995" type="qcurve" smooth="yes"/>
      <point x="1567" y="1102" type="line" smooth="yes"/>
      <point x="1582" y="1189"/>
      <point x="1552" y="1307"/>
      <point x="1474" y="1379"/>
      <point x="1356" y="1410"/>
      <point x="1283" y="1410" type="qcurve" smooth="yes"/>
      <point x="677" y="1410" type="line" smooth="yes"/>
      <point x="606" y="1410"/>
      <point x="486" y="1396"/>
      <point x="394" y="1346"/>
      <point x="331" y="1247"/>
      <point x="316" y="1162" type="qcurve" smooth="yes"/>
      <point x="287" y="998" type="line"/>
      <point x="543" y="950" type="line"/>
      <point x="617" y="1374" type="line"/>
      <point x="617" y="1374"/>
      <point x="617" y="1374"/>
      <point x="617" y="1374" type="qcurve"/>
      <point x="1243" y="1374" type="line" smooth="yes"/>
      <point x="1291" y="1374"/>
      <point x="1342" y="1326"/>
      <point x="1332" y="1264" type="qcurve" smooth="yes"/>
      <point x="1256" y="830" type="line" smooth="yes"/>
      <point x="1245" y="767"/>
      <point x="1186" y="728"/>
      <point x="1136" y="728" type="qcurve" smooth="yes"/>
      <point x="724" y="728" type="line"/>
      <point x="718" y="692" type="line"/>
      <point x="1138" y="692" type="line" smooth="yes"/>
      <point x="1183" y="692"/>
      <point x="1232" y="647"/>
      <point x="1222" y="590" type="qcurve" smooth="yes"/>
      <point x="1144" y="142" type="line" smooth="yes"/>
      <point x="1131" y="71"/>
      <point x="1066" y="26"/>
      <point x="1010" y="26" type="qcurve" smooth="yes"/>
      <point x="370" y="26" type="line"/>
      <point x="370" y="26"/>
      <point x="370" y="26"/>
      <point x="370" y="26" type="qcurve"/>
      <point x="440" y="432" type="line"/>
    </contour>
  </outline>
</glyph>
<glyph name="five" format="2">
  <advance width="1559"/>
  <unicode hex="0035"/>
  <outline>
    <contour>
      <point x="654" y="-12" type="qcurve" smooth="yes"/>
      <point x="780" y="-12"/>
      <point x="1015" y="13"/>
      <point x="1206" y="97"/>
      <point x="1338" y="254"/>
      <point x="1361" y="386" type="qcurve" smooth="yes"/>
      <point x="1382" y="508"/>
      <point x="1334" y="664"/>
      <point x="1198" y="754"/>
      <point x="978" y="788"/>
      <point x="828" y="788" type="qcurve" smooth="yes"/>
      <point x="711" y="788"/>
      <point x="514" y="775"/>
      <point x="354" y="755"/>
      <point x="233" y="730"/>
      <point x="192" y="718" type="qcurve"/>
      <point x="299" y="1166" type="line"/>
      <point x="1270" y="1166" type="line"/>
      <point x="1360" y="1400" type="line"/>
      <point x="318" y="1400" type="line"/>
      <point x="145" y="670" type="line"/>
      <point x="201" y="688"/>
      <point x="345" y="718"/>
      <point x="511" y="740"/>
      <point x="695" y="752"/>
      <point x="791" y="752" type="qcurve" smooth="yes"/>
      <point x="903" y="752"/>
      <point x="1039" y="709"/>
      <point x="1106" y="619"/>
      <point x="1114" y="480"/>
      <point x="1097" y="384" type="qcurve" smooth="yes"/>
      <point x="1078" y="276"/>
      <point x="1013" y="137"/>
      <point x="918" y="56"/>
      <point x="791" y="24"/>
      <point x="710" y="24" type="qcurve" smooth="yes"/>
      <point x="584" y="24"/>
      <point x="387" y="32"/>
      <point x="230" y="49"/>
      <point x="105" y="74"/>
      <point x="50" y="91" type="qcurve"/>
      <point x="82" y="46" type="line"/>
      <point x="132" y="28"/>
      <point x="277" y="5"/>
      <point x="436" y="-7"/>
      <point x="593" y="-12"/>
    </contour>
  </outline>
</glyph>
<glyph name="seven" format="2">
  <advance width="1410"/>
  <unicode hex="0037"/>
  <outline>
    <contour>
      <point x="117" y="960" type="line"/>
      <point x="372" y="912" type="line"/>
      <point x="451" y="1364" type="line"/>
      <point x="1277" y="1364" type="line"/>
      <point x="363" y="0" type="line"/>
      <point x="675" y="0" type="line"/>
      <point x="1501" y="1247" type="line"/>
      <point x="1527" y="1400" type="line"/>
      <point x="193" y="1400" type="line"/>
    </contour>
  </outline>
  <guideline angle="90" color="0.4,0.4,0.4,1" name="halfwidth" x="705" y="0"/>
</glyph>
<glyph name="eight" format="2">
  <advance width="1789"/>
  <unicode hex="0038"/>
  <outline>
    <contour>
      <point x="371" y="162" type="qcurve" smooth="yes"/>
      <point x="441" y="564" type="line" smooth="yes"/>
      <point x="446.25" y="594"/>
      <point x="469.375" y="639.625"/>
      <point x="501.625" y="670.375"/>
      <point x="541.25" y="686"/>
      <point x="563" y="686" type="qcurve" smooth="yes"/>
      <point x="1225" y="686" type="line" smooth="yes"/>
      <point x="1247.5" y="686"/>
      <point x="1282.06" y="670.375"/>
      <point x="1303.44" y="639.625"/>
      <point x="1310.25" y="594"/>
      <point x="1305" y="564" type="qcurve" smooth="yes"/>
      <point x="1235" y="162" type="line" smooth="yes"/>
      <point x="1223.68" y="97.1044"/>
      <point x="1147.8" y="26"/>
      <point x="1098" y="26" type="qcurve" smooth="yes"/>
      <point x="462" y="26" type="line" smooth="yes"/>
      <point x="412.196" y="26"/>
      <point x="359.681" y="97.1044"/>
    </contour>
    <contour>
      <point x="1394" y="1246" type="qcurve" smooth="yes"/>
      <point x="1324" y="842" type="line" smooth="yes"/>
      <point x="1313.44" y="783.141"/>
      <point x="1246.28" y="722"/>
      <point x="1201" y="722" type="qcurve" smooth="yes"/>
      <point x="601" y="722" type="line" smooth="yes"/>
      <point x="555.724" y="722"/>
      <point x="509.436" y="783.141"/>
      <point x="520" y="842" type="qcurve" smooth="yes"/>
      <point x="590" y="1246" type="line" smooth="yes"/>
      <point x="601.319" y="1309.39"/>
      <point x="674.706" y="1374"/>
      <point x="723" y="1374" type="qcurve" smooth="yes"/>
      <point x="1309" y="1374" type="line" smooth="yes"/>
      <point x="1355.79" y="1374"/>
      <point x="1405.32" y="1309.39"/>
    </contour>
    <contour>
      <point x="126" y="270" type="line" smooth="yes"/>
      <point x="112.125" y="189.75"/>
      <point x="144.969" y="82.1875"/>
      <point x="224.281" y="17.3125"/>
      <point x="343" y="-10"/>
      <point x="415" y="-10" type="qcurve" smooth="yes"/>
      <point x="1131" y="-10" type="line" smooth="yes"/>
      <point x="1276.5" y="-10"/>
      <point x="1490.25" y="109.5"/>
      <point x="1518" y="270" type="qcurve" smooth="yes"/>
      <point x="1551" y="458" type="line" smooth="yes"/>
      <point x="1575" y="594.5"/>
      <point x="1457.25" y="698.5"/>
      <point x="1335" y="712" type="qcurve"/>
      <point x="1457.25" y="728.601"/>
      <point x="1590.89" y="859.865"/>
      <point x="1609" y="964" type="qcurve" smooth="yes"/>
      <point x="1640" y="1142" type="line" smooth="yes"/>
      <point x="1661.88" y="1265.75"/>
      <point x="1528.98" y="1410"/>
      <point x="1369" y="1410" type="qcurve" smooth="yes"/>
      <point x="673" y="1410" type="line" smooth="yes"/>
      <point x="513.025" y="1410"/>
      <point x="329.883" y="1265.75"/>
      <point x="308" y="1142" type="qcurve" smooth="yes"/>
      <point x="277" y="964" type="line" smooth="yes"/>
      <point x="258.89" y="859.865"/>
      <point x="345.282" y="728.601"/>
      <point x="463" y="712" type="qcurve"/>
      <point x="335.473" y="698.417"/>
      <point x="182.393" y="593.828"/>
      <point x="159" y="458" type="qcurve" smooth="yes"/>
    </contour>
  </outline>
</glyph>
<glyph name="colon" format="2">
  <advance width="713"/>
  <unicode hex="003A"/>
  <outline>
    <contour>
      <point x="99" y="111" type="line" smooth="yes"/>
      <point x="92" y="67"/>
      <point x="88" y="19"/>
      <point x="107" y="-4"/>
      <point x="154" y="-8"/>
      <point x="198" y="-8" type="qcurve" smooth="yes"/>
      <point x="274" y="-8" type="line" smooth="yes"/>
      <point x="318" y="-8"/>
      <point x="367" y="-4"/>
      <point x="394" y="19"/>
      <point x="407" y="67"/>
      <point x="414" y="111" type="qcurve" smooth="yes"/>
      <point x="428" y="190" type="line" smooth="yes"/>
      <point x="436" y="233"/>
      <point x="439" y="280"/>
      <point x="420" y="303"/>
      <point x="373" y="307"/>
      <point x="329" y="307" type="qcurve" smooth="yes"/>
      <point x="253" y="307" type="line" smooth="yes"/>
      <point x="209" y="307"/>
      <point x="160" y="303"/>
      <point x="133" y="280"/>
      <point x="121" y="233"/>
      <point x="113" y="190" type="qcurve" smooth="yes"/>
    </contour>
    <contour>
      <point x="222" y="814" type="line" smooth="yes"/>
      <point x="215" y="770"/>
      <point x="210" y="722"/>
      <point x="229" y="699"/>
      <point x="276" y="695"/>
      <point x="320" y="695" type="qcurve" smooth="yes"/>
      <point x="396" y="695" type="line" smooth="yes"/>
      <point x="440" y="695"/>
      <point x="489" y="699"/>
      <point x="516" y="722"/>
      <point x="530" y="770"/>
      <point x="537" y="814" type="qcurve" smooth="yes"/>
      <point x="551" y="893" type="line" smooth="yes"/>
      <point x="559" y="936"/>
      <point x="562" y="983"/>
      <point x="543" y="1006"/>
      <point x="495" y="1010"/>
      <point x="451" y="1010" type="qcurve" smooth="yes"/>
      <point x="375" y="1010" type="line" smooth="yes"/>
      <point x="331" y="1010"/>
      <point x="282" y="1006"/>
      <point x="256" y="983"/>
      <point x="244" y="936"/>
      <point x="236" y="893" type="qcurve" smooth="yes"/>
    </contour>
  </outline>
</glyph>
<glyph name="semicolon" format="2">
  <advance width="713"/>
  <unicode hex="003B"/>
  <outline>
    <contour>
      <point x="109" y="-290" type="line"/>
      <point x="137" y="-300" type="line"/>
      <point x="389" y="25" type="line"/>
      <point x="305" y="25" type="line"/>
    </contour>
    <contour>
      <point x="101" y="121" type="line" smooth="yes"/>
      <point x="85.908" y="32.7118"/>
      <point x="110.712" y="2"/>
      <point x="199" y="2" type="qcurve" smooth="yes"/>
      <point x="275" y="2" type="line" smooth="yes"/>
      <point x="362.75" y="2"/>
      <point x="401" y="33.25"/>
      <point x="416" y="121" type="qcurve" smooth="yes"/>
      <point x="428" y="190" type="line" smooth="yes"/>
      <point x="443.092" y="276.779"/>
      <point x="417.288" y="307"/>
      <point x="329" y="307" type="qcurve" smooth="yes"/>
      <point x="253" y="307" type="line" smooth="yes"/>
      <point x="165.25" y="307"/>
      <point x="128" y="276.25"/>
      <point x="113" y="190" type="qcurve" smooth="yes"/>
    </contour>
    <contour>
      <point x="222" y="814" type="line" smooth="yes"/>
      <point x="206.908" y="725.712"/>
      <point x="231.712" y="695"/>
      <point x="320" y="695" type="qcurve" smooth="yes"/>
      <point x="396" y="695" type="line" smooth="yes"/>
      <point x="483.75" y="695"/>
      <point x="522" y="726.25"/>
      <point x="537" y="814" type="qcurve" smooth="yes"/>
      <point x="551" y="893" type="line" smooth="yes"/>
      <point x="566.092" y="979.779"/>
      <point x="539.288" y="1010"/>
      <point x="451" y="1010" type="qcurve" smooth="yes"/>
      <point x="375" y="1010" type="line" smooth="yes"/>
      <point x="287.25" y="1010"/>
      <point x="251" y="979.25"/>
      <point x="236" y="893" type="qcurve" smooth="yes"/>
    </contour>
  </outline>
</glyph>
<glyph name="question" format="2">
  <advance width="1297"/>
  <unicode hex="003F"/>
  <outline>
    <contour>
      <point x="533" y="462" type="line"/>
      <point x="573" y="462" type="line"/>
      <point x="597" y="602" type="line" smooth="yes"/>
      <point x="608.319" y="664.632"/>
      <point x="700.031" y="734"/>
      <point x="777" y="734" type="qcurve" smooth="yes"/>
      <point x="900" y="734" type="line" smooth="yes"/>
      <point x="1027.53" y="734"/>
      <point x="1148.93" y="842.577"/>
      <point x="1161" y="912" type="qcurve" smooth="yes"/>
      <point x="1206" y="1166" type="line" smooth="yes"/>
      <point x="1229.39" y="1300.32"/>
      <point x="1142.86" y="1414"/>
      <point x="1001" y="1414" type="qcurve" smooth="yes"/>
      <point x="487" y="1414" type="line" smooth="yes"/>
      <point x="346.644" y="1414"/>
      <point x="218.638" y="1298.81"/>
      <point x="196" y="1166" type="qcurve" smooth="yes"/>
      <point x="172" y="1032" type="line"/>
      <point x="419" y="980" type="line"/>
      <point x="489" y="1378" type="line"/>
      <point x="489" y="1378"/>
      <point x="489" y="1378"/>
      <point x="489" y="1378" type="qcurve"/>
      <point x="999" y="1378" type="line"/>
      <point x="999" y="1378"/>
      <point x="999" y="1378"/>
      <point x="999" y="1378" type="qcurve"/>
      <point x="892" y="770" type="line"/>
      <point x="892" y="770"/>
      <point x="892" y="770"/>
      <point x="892" y="770" type="qcurve"/>
      <point x="783" y="770" type="line" smooth="yes"/>
      <point x="687.166" y="770"/>
      <point x="570.583" y="680.478"/>
      <point x="557" y="602" type="qcurve" smooth="yes"/>
    </contour>
    <contour>
      <point x="332" y="111" type="line" smooth="yes"/>
      <point x="316.908" y="22.7118"/>
      <point x="342.712" y="-8"/>
      <point x="431" y="-8" type="qcurve" smooth="yes"/>
      <point x="507" y="-8" type="line" smooth="yes"/>
      <point x="594.75" y="-8"/>
      <point x="632" y="23.25"/>
      <point x="647" y="111" type="qcurve" smooth="yes"/>
      <point x="661" y="190" type="line" smooth="yes"/>
      <point x="676.092" y="276.779"/>
      <point x="650.288" y="307"/>
      <point x="562" y="307" type="qcurve" smooth="yes"/>
      <point x="486" y="307" type="line" smooth="yes"/>
      <point x="398.25" y="307"/>
      <point x="361" y="276.25"/>
      <point x="346" y="190" type="qcurve" smooth="yes"/>
    </contour>
  </outline>
</glyph>
<glyph name="at" format="2">
  <advance width="1933"/>
  <unicode hex="0040"/>
  <outline>
    <contour>
      <point x="88" y="94" type="line" smooth="yes"/>
      <point x="58" y="-80"/>
      <point x="219" y="-189"/>
      <point x="378" y="-189" type="qcurve" smooth="yes"/>
      <point x="1408" y="-189" type="line"/>
      <point x="1414" y="-153" type="line"/>
      <point x="384" y="-153" type="line" smooth="yes"/>
      <point x="293" y="-153"/>
      <point x="248" y="-90"/>
      <point x="257" y="-39" type="qcurve" smooth="yes"/>
      <point x="454" y="1090" type="line" smooth="yes"/>
      <point x="465" y="1154"/>
      <point x="553" y="1193"/>
      <point x="619" y="1193" type="qcurve" smooth="yes"/>
      <point x="1490" y="1193" type="line" smooth="yes"/>
      <point x="1583" y="1193"/>
      <point x="1629" y="1136"/>
      <point x="1621" y="1090" type="qcurve" smooth="yes"/>
      <point x="1469" y="216" type="line" smooth="yes"/>
      <point x="1461" y="174"/>
      <point x="1416" y="141"/>
      <point x="1378" y="141" type="qcurve" smooth="yes"/>
      <point x="1333" y="141" type="line" smooth="yes"/>
      <point x="1290" y="141"/>
      <point x="1261" y="176"/>
      <point x="1268" y="216" type="qcurve" smooth="yes"/>
      <point x="1382" y="872" type="line"/>
      <point x="1173" y="872" type="line"/>
      <point x="1170" y="854" type="line"/>
      <point x="1165" y="861"/>
      <point x="1143" y="872"/>
      <point x="1123" y="872" type="qcurve" smooth="yes"/>
      <point x="776" y="872" type="line" smooth="yes"/>
      <point x="676" y="872"/>
      <point x="574" y="800"/>
      <point x="560" y="719" type="qcurve" smooth="yes"/>
      <point x="491" y="320" type="line" smooth="yes"/>
      <point x="476" y="234"/>
      <point x="551" y="160"/>
      <point x="652" y="160" type="qcurve" smooth="yes"/>
      <point x="965" y="160" type="line" smooth="yes"/>
      <point x="1009" y="160"/>
      <point x="1062" y="189"/>
      <point x="1077" y="209" type="qcurve"/>
      <point x="1091" y="172"/>
      <point x="1169" y="113"/>
      <point x="1246" y="113" type="qcurve" smooth="yes"/>
      <point x="1364" y="113" type="line" smooth="yes"/>
      <point x="1490" y="113"/>
      <point x="1656" y="185"/>
      <point x="1681" y="329" type="qcurve" smooth="yes"/>
      <point x="1791" y="957" type="line" smooth="yes"/>
      <point x="1806" y="1042"/>
      <point x="1774" y="1148"/>
      <point x="1694" y="1208"/>
      <point x="1572" y="1229"/>
      <point x="1497" y="1229" type="qcurve" smooth="yes"/>
      <point x="626" y="1229" type="line" smooth="yes"/>
      <point x="476" y="1229"/>
      <point x="268" y="1127"/>
      <point x="239" y="957" type="qcurve" smooth="yes"/>
    </contour>
    <contour>
      <point x="695" y="192" type="qcurve"/>
      <point x="808" y="840" type="line"/>
      <point x="808" y="840"/>
      <point x="808" y="840"/>
      <point x="808" y="840" type="qcurve"/>
      <point x="1168" y="840" type="line"/>
      <point x="1070" y="283" type="line" smooth="yes"/>
      <point x="1062" y="238"/>
      <point x="1014" y="192"/>
      <point x="970" y="192" type="qcurve" smooth="yes"/>
      <point x="695" y="192" type="line"/>
      <point x="695" y="192"/>
      <point x="695" y="192"/>
    </contour>
  </outline>
  <guideline angle="0" x="0" y="993"/>
</glyph>
<glyph name="B" format="2">
  <advance width="1664"/>
  <unicode hex="0042"/>
  <anchor x="832" y="1550" name="top"/>
  <anchor x="832" y="-150" name="bottom"/>
  <outline>
    <contour>
      <point x="103" y="0" type="line"/>
      <point x="1060" y="0" type="line" smooth="yes"/>
      <point x="1151.5" y="0"/>
      <point x="1287.31" y="31.0625"/>
      <point x="1382.19" y="97.4375"/>
      <point x="1439.25" y="201.25"/>
      <point x="1452" y="274" type="qcurve" smooth="yes"/>
      <point x="1485" y="465" type="line" smooth="yes"/>
      <point x="1506.13" y="584.981"/>
      <point x="1429.99" y="701.871"/>
      <point x="1350" y="723" type="qcurve"/>
      <point x="1429.99" y="744.883"/>
      <point x="1537.63" y="859.055"/>
      <point x="1558" y="973" type="qcurve" smooth="yes"/>
      <point x="1585" y="1126" type="line" smooth="yes"/>
      <point x="1597.38" y="1198.75"/>
      <point x="1576.28" y="1302.56"/>
      <point x="1504.47" y="1368.94"/>
      <point x="1379.5" y="1400"/>
      <point x="1288" y="1400" type="qcurve" smooth="yes"/>
      <point x="347" y="1400" type="line"/>
    </contour>
    <contour>
      <point x="373" y="36" type="line"/>
      <point x="490" y="703" type="line"/>
      <point x="1031" y="703" type="line" smooth="yes"/>
      <point x="1145.7" y="703"/>
      <point x="1243.85" y="593.552"/>
      <point x="1228" y="503" type="qcurve" smooth="yes"/>
      <point x="1181" y="236" type="line" smooth="yes"/>
      <point x="1165.15" y="145.448"/>
      <point x="1028.7" y="36"/>
      <point x="914" y="36" type="qcurve" smooth="yes"/>
    </contour>
    <contour>
      <point x="496" y="739" type="line"/>
      <point x="605" y="1364" type="line"/>
      <point x="1130" y="1364" type="line" smooth="yes"/>
      <point x="1244.7" y="1364"/>
      <point x="1342.85" y="1254.55"/>
      <point x="1327" y="1164" type="qcurve" smooth="yes"/>
      <point x="1287" y="935" type="line" smooth="yes"/>
      <point x="1271.15" y="844.448"/>
      <point x="1135.7" y="739"/>
      <point x="1021" y="739" type="qcurve" smooth="yes"/>
    </contour>
  </outline>
</glyph>
<glyph name="C" format="2">
  <advance width="1651"/>
  <unicode hex="0043"/>
  <anchor x="970" y="1560" name="top"/>
  <anchor x="726" y="-160" name="bottom"/>
  <outline>
    <contour>
      <point x="271" y="1136" type="qcurve" smooth="yes"/>
      <point x="121" y="276" type="line" smooth="yes"/>
      <point x="93.8344" y="120.552"/>
      <point x="225.859" y="-10"/>
      <point x="413" y="-10" type="qcurve" smooth="yes"/>
      <point x="1039" y="-10" type="line" smooth="yes"/>
      <point x="1226.14" y="-10"/>
      <point x="1405.83" y="120.552"/>
      <point x="1433" y="276" type="qcurve" smooth="yes"/>
      <point x="1469" y="482" type="line"/>
      <point x="1214" y="534" type="line"/>
      <point x="1126" y="26" type="line"/>
      <point x="1126" y="26"/>
      <point x="1126" y="26"/>
      <point x="1126" y="26" type="qcurve"/>
      <point x="342" y="26" type="line"/>
      <point x="342" y="26"/>
      <point x="342" y="26"/>
      <point x="342" y="26" type="qcurve"/>
      <point x="577" y="1374" type="line"/>
      <point x="577" y="1374"/>
      <point x="577" y="1374"/>
      <point x="577" y="1374" type="qcurve"/>
      <point x="1353" y="1374" type="line"/>
      <point x="1353" y="1374"/>
      <point x="1353" y="1374"/>
      <point x="1353" y="1374" type="qcurve"/>
      <point x="1269" y="896" type="line"/>
      <point x="1542" y="944" type="line"/>
      <point x="1575" y="1136" type="line" smooth="yes"/>
      <point x="1600.5" y="1283"/>
      <point x="1463.5" y="1410"/>
      <point x="1279" y="1410" type="qcurve" smooth="yes"/>
      <point x="661" y="1410" type="line" smooth="yes"/>
      <point x="478" y="1410"/>
      <point x="296.5" y="1283"/>
    </contour>
  </outline>
</glyph>
<glyph name="E" format="2">
  <advance width="1491"/>
  <unicode hex="0045"/>
  <anchor x="1003" y="1550" name="top"/>
  <anchor x="706" y="-150" name="bottom"/>
  <anchor x="1159" y="0" name="ogonek"/>
  <anchor x="1361" y="0" name="ogonek_out"/>
  <outline>
    <contour>
      <point x="103" y="0" type="line"/>
      <point x="1361" y="0" type="line"/>
      <point x="1367" y="36" type="line"/>
      <point x="373" y="36" type="line"/>
      <point x="489" y="700" type="line"/>
      <point x="1077" y="700" type="line"/>
      <point x="1083" y="736" type="line"/>
      <point x="495" y="736" type="line"/>
      <point x="605" y="1364" type="line"/>
      <point x="1579" y="1364" type="line"/>
      <point x="1585" y="1400" type="line"/>
      <point x="347" y="1400" type="line"/>
    </contour>
  </outline>
  <guideline angle="90" x="-127" y="0"/>
</glyph>
<glyph name="F" format="2">
  <advance width="1431"/>
  <unicode hex="0046"/>
  <outline>
    <contour>
      <point x="103" y="0" type="line"/>
      <point x="367" y="0" type="line"/>
      <point x="489" y="698" type="line"/>
      <point x="1011" y="698" type="line"/>
      <point x="1017" y="734" type="line"/>
      <point x="495" y="734" type="line"/>
      <point x="605" y="1364" type="line"/>
      <point x="1541" y="1364" type="line"/>
      <point x="1547" y="1400" type="line"/>
      <point x="347" y="1400" type="line"/>
    </contour>
  </outline>
</glyph>
<glyph name="G" format="2">
  <advance width="1771"/>
  <unicode hex="0047"/>
  <anchor x="1042" y="1560" name="top"/>
  <anchor x="769" y="-160" name="bottom"/>
  <outline>
    <contour>
      <point x="278" y="1176" type="qcurve" smooth="yes"/>
      <point x="114" y="236" type="line" smooth="yes"/>
      <point x="88" y="90"/>
      <point x="207" y="-10"/>
      <point x="353" y="-10" type="qcurve" smooth="yes"/>
      <point x="1185" y="-10" type="line" smooth="yes"/>
      <point x="1331" y="-10"/>
      <point x="1486" y="88"/>
      <point x="1512" y="236" type="qcurve" smooth="yes"/>
      <point x="1593" y="700" type="line"/>
      <point x="889" y="700" type="line"/>
      <point x="883" y="664" type="line"/>
      <point x="1323" y="664" type="line"/>
      <point x="1212" y="26" type="line"/>
      <point x="1212" y="26"/>
      <point x="1212" y="26"/>
      <point x="1212" y="26" type="qcurve"/>
      <point x="342" y="26" type="line"/>
      <point x="342" y="26"/>
      <point x="342" y="26"/>
      <point x="342" y="26" type="qcurve"/>
      <point x="577" y="1374" type="line"/>
      <point x="577" y="1374"/>
      <point x="577" y="1374"/>
      <point x="577" y="1374" type="qcurve"/>
      <point x="1441" y="1374" type="line"/>
      <point x="1441" y="1374"/>
      <point x="1441" y="1374"/>
      <point x="1441" y="1374" type="qcurve"/>
      <point x="1372" y="980" type="line"/>
      <point x="1648" y="1038" type="line"/>
      <point x="1672" y="1176" type="line" smooth="yes"/>
      <point x="1697" y="1319"/>
      <point x="1571" y="1410"/>
      <point x="1431" y="1410" type="qcurve" smooth="yes"/>
      <point x="601" y="1410" type="line" smooth="yes"/>
      <point x="460" y="1410"/>
      <point x="303" y="1319"/>
    </contour>
  </outline>
  <guideline angle="0" x="0" y="574"/>
  <guideline angle="0" x="0" y="1036"/>
  <guideline angle="0" x="0" y="980"/>
  <guideline angle="0" x="0" y="806"/>
  <guideline angle="0" x="0" y="700"/>
  <guideline angle="0" x="0" y="906"/>
  <guideline angle="0" x="0" y="494"/>
  <guideline angle="80.1325" x="769" y="-10"/>
</glyph>
<glyph name="I" format="2">
  <advance width="707"/>
  <unicode hex="0049"/>
  <anchor x="506" y="1550" name="top"/>
  <anchor x="209" y="-150" name="bottom"/>
  <anchor x="148" y="0" name="ogonek"/>
  <outline>
    <contour>
      <point x="103" y="0" type="line"/>
      <point x="367" y="0" type="line"/>
      <point x="611" y="1400" type="line"/>
      <point x="347" y="1400" type="line"/>
    </contour>
  </outline>
</glyph>
<glyph name="L" format="2">
  <advance width="1405"/>
  <unicode hex="004C"/>
  <anchor x="506" y="1550" name="top"/>
  <anchor x="663" y="-150" name="bottom"/>
  <anchor x="125" y="700" name="left"/>
  <anchor x="991" y="1400" name="right"/>
  <anchor x="1058" y="700" name="eldot"/>
  <outline>
    <contour>
      <point x="103" y="0" type="line"/>
      <point x="1275" y="0" type="line"/>
      <point x="1281" y="36" type="line"/>
      <point x="373" y="36" type="line"/>
      <point x="611" y="1400" type="line"/>
      <point x="347" y="1400" type="line"/>
    </contour>
  </outline>
</glyph>
<glyph name="M" format="2">
  <advance width="1947"/>
  <unicode hex="004D"/>
  <anchor x="1127" y="1550" name="top"/>
  <anchor x="830" y="-150" name="bottom"/>
  <outline>
    <contour>
      <point x="103" y="0" type="line"/>
      <point x="141" y="0" type="line"/>
      <point x="331" y="1087" type="line"/>
      <point x="782" y="245" type="line"/>
      <point x="1539" y="1122" type="line"/>
      <point x="1343" y="0" type="line"/>
      <point x="1607" y="0" type="line"/>
      <point x="1851" y="1400" type="line"/>
      <point x="1735" y="1400" type="line"/>
      <point x="953" y="492" type="line"/>
      <point x="467" y="1400" type="line"/>
      <point x="347" y="1400" type="line"/>
    </contour>
  </outline>
</glyph>
<glyph name="N" format="2">
  <advance width="1681"/>
  <unicode hex="004E"/>
  <anchor x="993" y="1550" name="top"/>
  <anchor x="696" y="-150" name="bottom"/>
  <outline>
    <contour>
      <point x="103" y="0" type="line"/>
      <point x="139" y="0" type="line"/>
      <point x="333" y="1110" type="line"/>
      <point x="1233" y="0" type="line"/>
      <point x="1341" y="0" type="line"/>
      <point x="1585" y="1400" type="line"/>
      <point x="1549" y="1400" type="line"/>
      <point x="1355" y="284" type="line"/>
      <point x="450" y="1400" type="line"/>
      <point x="347" y="1400" type="line"/>
    </contour>
  </outline>
</glyph>
<glyph name="P" format="2">
  <advance width="1603"/>
  <unicode hex="0050"/>
  <outline>
    <contour>
      <point x="103" y="0" type="line"/>
      <point x="367" y="0" type="line"/>
      <point x="456" y="512" type="line"/>
      <point x="1124" y="512" type="line" smooth="yes"/>
      <point x="1199.75" y="512"/>
      <point x="1331.5" y="533.5"/>
      <point x="1435" y="593.5"/>
      <point x="1506" y="700.5"/>
      <point x="1521" y="786" type="qcurve" smooth="yes"/>
      <point x="1581" y="1126" type="line" smooth="yes"/>
      <point x="1610.25" y="1297"/>
      <point x="1440.5" y="1400"/>
      <point x="1289" y="1400" type="qcurve" smooth="yes"/>
      <point x="347" y="1400" type="line"/>
    </contour>
    <contour>
      <point x="463" y="548" type="line"/>
      <point x="605" y="1364" type="line"/>
      <point x="1131" y="1364" type="line" smooth="yes"/>
      <point x="1245.7" y="1364"/>
      <point x="1338.85" y="1254.55"/>
      <point x="1323" y="1164" type="qcurve" smooth="yes"/>
      <point x="1251" y="748" type="line" smooth="yes"/>
      <point x="1235.15" y="657.448"/>
      <point x="1093.7" y="548"/>
      <point x="979" y="548" type="qcurve" smooth="yes"/>
    </contour>
  </outline>
  <guideline angle="90" color="0.4,0.4,0.4,1" name="halfwidth" x="801.5" y="0"/>
</glyph>
<glyph name="S" format="2">
  <advance width="1629.4"/>
  <unicode hex="0053"/>
  <anchor x="964" y="1564" name="top"/>
  <anchor x="661" y="-164" name="bottom"/>
  <outline>
    <contour>
      <point x="84.1032" y="378" type="line"/>
      <point x="345.103" y="430" type="line"/>
      <point x="274.103" y="22" type="line"/>
      <point x="274.103" y="22"/>
      <point x="274.103" y="22"/>
      <point x="274.103" y="22"/>
      <point x="274.103" y="22"/>
      <point x="274.103" y="22" type="qcurve"/>
      <point x="1112.1" y="22" type="line"/>
      <point x="1112.1" y="22"/>
      <point x="1112.1" y="22"/>
      <point x="1112.1" y="22"/>
      <point x="1112.1" y="22"/>
      <point x="1112.1" y="22" type="qcurve"/>
      <point x="1228.1" y="690" type="line"/>
      <point x="1228.1" y="690"/>
      <point x="1228.1" y="690"/>
      <point x="1228.1" y="690"/>
      <point x="1228.1" y="690"/>
      <point x="1228.1" y="690" type="qcurve"/>
      <point x="510.103" y="690" type="line" smooth="yes"/>
      <point x="431.103" y="690"/>
      <point x="308.103" y="714"/>
      <point x="231.103" y="777"/>
      <point x="204.103" y="890"/>
      <point x="219.103" y="978" type="qcurve" smooth="yes"/>
      <point x="247.103" y="1140" type="line" smooth="yes"/>
      <point x="262.103" y="1226"/>
      <point x="331.103" y="1333"/>
      <point x="432.103" y="1393"/>
      <point x="561.103" y="1414"/>
      <point x="637.103" y="1414" type="qcurve" smooth="yes"/>
      <point x="1243.1" y="1414" type="line" smooth="yes"/>
      <point x="1320.1" y="1414"/>
      <point x="1442.1" y="1393"/>
      <point x="1523.1" y="1333"/>
      <point x="1554.1" y="1226"/>
      <point x="1539.1" y="1140" type="qcurve" smooth="yes"/>
      <point x="1522.1" y="1040" type="line"/>
      <point x="1261.1" y="990" type="line"/>
      <point x="1329.1" y="1378" type="line"/>
      <point x="1329.1" y="1378"/>
      <point x="1329.1" y="1378"/>
      <point x="1329.1" y="1378"/>
      <point x="1329.1" y="1378"/>
      <point x="1329.1" y="1378" type="qcurve"/>
      <point x="541.103" y="1378" type="line"/>
      <point x="541.103" y="1378"/>
      <point x="541.103" y="1378"/>
      <point x="541.103" y="1378"/>
      <point x="541.103" y="1378"/>
      <point x="541.103" y="1378" type="qcurve"/>
      <point x="427.103" y="726" type="line"/>
      <point x="427.103" y="726"/>
      <point x="427.103" y="726"/>
      <point x="427.103" y="726"/>
      <point x="427.103" y="726"/>
      <point x="427.103" y="726" type="qcurve"/>
      <point x="1143.1" y="726" type="line" smooth="yes"/>
      <point x="1220.1" y="726"/>
      <point x="1342.1" y="705"/>
      <point x="1423.1" y="645"/>
      <point x="1454.1" y="538"/>
      <point x="1439.1" y="452" type="qcurve" smooth="yes"/>
      <point x="1407.1" y="272" type="line" smooth="yes"/>
      <point x="1392.1" y="184"/>
      <point x="1325.1" y="72"/>
      <point x="1226.1" y="9"/>
      <point x="1094.1" y="-14"/>
      <point x="1014.1" y="-14" type="qcurve" smooth="yes"/>
      <point x="358.103" y="-14" type="line" smooth="yes"/>
      <point x="279.103" y="-14"/>
      <point x="156.103" y="9"/>
      <point x="78.1032" y="72"/>
      <point x="50.1032" y="184"/>
      <point x="65.1032" y="272" type="qcurve" smooth="yes"/>
    </contour>
  </outline>
</glyph>
<glyph name="T" format="2">
  <advance width="1393"/>
  <unicode hex="0054"/>
  <anchor x="850" y="1550" name="top"/>
  <anchor x="553" y="-150" name="bottom"/>
  <outline>
    <contour>
      <point x="447" y="0" type="line"/>
      <point x="711" y="0" type="line"/>
      <point x="949" y="1364" type="line"/>
      <point x="1503" y="1364" type="line"/>
      <point x="1509" y="1400" type="line"/>
      <point x="137" y="1400" type="line"/>
      <point x="131" y="1364" type="line"/>
      <point x="685" y="1364" type="line"/>
    </contour>
  </outline>
</glyph>
<glyph name="U" format="2">
  <advance width="1739"/>
  <unicode hex="0055"/>
  <anchor x="1022" y="1550" name="top"/>
  <anchor x="725" y="-150" name="bottom"/>
  <anchor x="774" y="0" name="ogonek"/>
  <anchor x="1658" y="1400" name="horn"/>
  <outline>
    <contour>
      <point x="332" y="1400" type="line"/>
      <point x="136" y="276" type="line" smooth="yes"/>
      <point x="121" y="188"/>
      <point x="148" y="76"/>
      <point x="226" y="13"/>
      <point x="349" y="-10"/>
      <point x="428" y="-10" type="qcurve" smooth="yes"/>
      <point x="1068" y="-10" type="line" smooth="yes"/>
      <point x="1229" y="-10"/>
      <point x="1431" y="99"/>
      <point x="1462" y="276" type="qcurve" smooth="yes"/>
      <point x="1658" y="1400" type="line"/>
      <point x="1394" y="1400" type="line"/>
      <point x="1155" y="26" type="line"/>
      <point x="1155" y="26"/>
      <point x="1155" y="26"/>
      <point x="1155" y="26" type="qcurve"/>
      <point x="357" y="26" type="line"/>
      <point x="357" y="26"/>
      <point x="357" y="26"/>
      <point x="357" y="26" type="qcurve"/>
      <point x="596" y="1400" type="line"/>
    </contour>
  </outline>
</glyph>
<glyph name="Z" format="2">
  <advance width="1410"/>
  <unicode hex="005A"/>
  <anchor x="890" y="1550" name="top"/>
  <anchor x="578" y="-150" name="bottom"/>
  <outline>
    <contour>
      <point x="-59" y="0" type="line"/>
      <point x="1215" y="0" type="line"/>
      <point x="1219" y="36" type="line"/>
      <point x="273" y="36" type="line"/>
      <point x="277" y="27" type="line"/>
      <point x="1453" y="1374" type="line"/>
      <point x="1457" y="1400" type="line"/>
      <point x="269" y="1400" type="line"/>
      <point x="263" y="1364" type="line"/>
      <point x="1128" y="1364" type="line"/>
      <point x="1124" y="1373" type="line"/>
      <point x="-56" y="18" type="line"/>
    </contour>
  </outline>
</glyph>
<glyph name="backslash" format="2">
  <advance width="979"/>
  <unicode hex="005C"/>
  <outline>
    <contour>
      <point x="452" y="1430" type="line"/>
      <point x="232" y="1430" type="line"/>
      <point x="522" y="-100" type="line"/>
      <point x="742" y="-100" type="line"/>
    </contour>
  </outline>
</glyph>
<glyph name="bracketright" format="2">
  <advance width="824"/>
  <unicode hex="005D"/>
  <outline>
    <contour>
      <point x="890" y="1448" type="line"/>
      <point x="356" y="1448" type="line"/>
      <point x="350" y="1416" type="line"/>
      <point x="636" y="1416" type="line"/>
      <point x="350" y="-224" type="line"/>
      <point x="64" y="-224" type="line"/>
      <point x="58" y="-256" type="line"/>
      <point x="592" y="-256" type="line"/>
    </contour>
  </outline>
</glyph>
<glyph name="asciicircum" format="2">
  <advance width="881"/>
  <unicode hex="005E"/>
  <outline>
    <contour>
      <point x="40" y="850" type="line"/>
      <point x="86" y="850" type="line"/>
      <point x="477" y="1339" type="line"/>
      <point x="675" y="850" type="line"/>
      <point x="900" y="850" type="line"/>
      <point x="631" y="1400" type="line"/>
      <point x="483" y="1400" type="line"/>
    </contour>
  </outline>
  <guideline angle="0" x="0" y="850"/>
</glyph>
<glyph name="underscore" format="2">
  <advance width="652"/>
  <unicode hex="005F"/>
  <outline>
    <contour>
      <point x="-146" y="-155" type="line"/>
      <point x="504" y="-155" type="line"/>
      <point x="510" y="-119" type="line"/>
      <point x="-140" y="-119" type="line"/>
    </contour>
  </outline>
</glyph>
<glyph name="grave" format="2">
  <advance width="532"/>
  <unicode hex="0060"/>
  <outline>
    <contour>
      <point x="482" y="1085" type="line"/>
      <point x="283" y="1448" type="line"/>
      <point x="50" y="1448" type="line"/>
      <point x="443" y="1085" type="line"/>
    </contour>
  </outline>
</glyph>
<glyph name="b" format="2">
  <advance width="1444"/>
  <unicode hex="0062"/>
  <anchor x="906" y="1600" name="top"/>
  <anchor x="600" y="-152" name="bottom"/>
  <outline>
    <contour>
      <point x="81" y="0" type="line"/>
      <point x="329" y="0" type="line"/>
      <point x="333" y="22" type="line"/>
      <point x="341" y="8"/>
      <point x="377" y="-8"/>
      <point x="404" y="-8" type="qcurve" smooth="yes"/>
      <point x="896" y="-8" type="line" smooth="yes"/>
      <point x="1019" y="-8"/>
      <point x="1167" y="79"/>
      <point x="1189" y="208" type="qcurve" smooth="yes"/>
      <point x="1293" y="804" type="line" smooth="yes"/>
      <point x="1316" y="932"/>
      <point x="1184" y="1008"/>
      <point x="1073" y="1008" type="qcurve" smooth="yes"/>
      <point x="581" y="1008" type="line" smooth="yes"/>
      <point x="549" y="1008"/>
      <point x="509" y="996"/>
      <point x="501" y="984" type="qcurve"/>
      <point x="582" y="1448" type="line"/>
      <point x="334" y="1448" type="line"/>
    </contour>
    <contour>
      <point x="333" y="24" type="line"/>
      <point x="499" y="976" type="line"/>
      <point x="1075" y="976" type="line"/>
      <point x="1075" y="976"/>
      <point x="1075" y="976"/>
      <point x="1075" y="976" type="qcurve"/>
      <point x="909" y="24" type="line"/>
      <point x="909" y="24"/>
      <point x="909" y="24"/>
      <point x="909" y="24" type="qcurve"/>
    </contour>
  </outline>
  <guideline angle="0" x="0" y="988"/>
  <guideline angle="0" x="0" y="42"/>
</glyph>
<glyph name="d" format="2">
  <advance width="1443"/>
  <unicode hex="0064"/>
  <anchor x="858" y="1598" name="top"/>
  <anchor x="563" y="-150" name="bottom"/>
  <anchor x="1378" y="1448" name="right"/>
  <outline>
    <contour>
      <point x="89" y="208" type="line" smooth="yes"/>
      <point x="68.6258" y="91.7916"/>
      <point x="169.154" y="-6"/>
      <point x="308" y="-6" type="qcurve" smooth="yes"/>
      <point x="800" y="-6" type="line" smooth="yes"/>
      <point x="827.166" y="-6"/>
      <point x="868.172" y="8.4172"/>
      <point x="881" y="22" type="qcurve"/>
      <point x="877" y="0" type="line"/>
      <point x="1125" y="0" type="line"/>
      <point x="1378" y="1448" type="line"/>
      <point x="1130" y="1448" type="line"/>
      <point x="1048" y="982" type="line"/>
      <point x="1044.23" y="994.074"/>
      <point x="1008.69" y="1006"/>
      <point x="977" y="1006" type="qcurve" smooth="yes"/>
      <point x="485" y="1006" type="line" smooth="yes"/>
      <point x="347.663" y="1006"/>
      <point x="211.865" y="910.662"/>
      <point x="193" y="802" type="qcurve" smooth="yes"/>
    </contour>
    <contour>
      <point x="1047" y="974" type="line"/>
      <point x="882" y="26" type="line"/>
      <point x="306" y="26" type="line"/>
      <point x="306" y="26"/>
      <point x="306" y="26"/>
      <point x="306" y="26" type="qcurve"/>
      <point x="471" y="974" type="line"/>
      <point x="471" y="974"/>
      <point x="471" y="974"/>
      <point x="471" y="974" type="qcurve"/>
    </contour>
  </outline>
  <guideline angle="0" x="0" y="988"/>
  <guideline angle="0" x="0" y="42"/>
</glyph>
<glyph name="f" format="2">
  <advance width="821"/>
  <unicode hex="0066"/>
  <outline>
    <contour>
      <point x="266" y="1000" type="line"/>
      <point x="154" y="1000" type="line"/>
      <point x="148" y="968" type="line"/>
      <point x="260" y="968" type="line"/>
      <point x="91" y="0" type="line"/>
      <point x="339" y="0" type="line"/>
      <point x="508" y="968" type="line"/>
      <point x="840" y="968" type="line"/>
      <point x="846" y="1000" type="line"/>
      <point x="514" y="1000" type="line"/>
      <point x="586" y="1416" type="line"/>
      <point x="586" y="1416"/>
      <point x="586" y="1416"/>
      <point x="586" y="1416" type="qcurve"/>
      <point x="938" y="1416" type="line"/>
      <point x="954" y="1448" type="line"/>
      <point x="600" y="1448" type="line" smooth="yes"/>
      <point x="478" y="1448"/>
      <point x="322" y="1328"/>
      <point x="299" y="1194" type="qcurve" smooth="yes"/>
    </contour>
  </outline>
</glyph>
<glyph name="h" format="2">
  <advance width="1423"/>
  <unicode hex="0068"/>
  <anchor x="484" y="1598" name="top"/>
  <anchor x="571" y="-150" name="bottom"/>
  <outline>
    <contour>
      <point x="81" y="0" type="line"/>
      <point x="329" y="0" type="line"/>
      <point x="499" y="974" type="line"/>
      <point x="1035" y="974" type="line"/>
      <point x="1035" y="974"/>
      <point x="1035" y="974"/>
      <point x="1035" y="974" type="qcurve"/>
      <point x="865" y="0" type="line"/>
      <point x="1113" y="0" type="line"/>
      <point x="1245" y="756" type="line" smooth="yes"/>
      <point x="1268.25" y="889.5"/>
      <point x="1140.5" y="1006"/>
      <point x="971" y="1006" type="qcurve" smooth="yes"/>
      <point x="581" y="1006" type="line" smooth="yes"/>
      <point x="553.834" y="1006"/>
      <point x="512.828" y="991.583"/>
      <point x="500" y="978" type="qcurve"/>
      <point x="582" y="1448" type="line"/>
      <point x="334" y="1448" type="line"/>
    </contour>
  </outline>
  <guideline angle="0" x="0" y="988"/>
  <guideline angle="0" x="0" y="870"/>
</glyph>
<glyph name="i" format="2">
  <advance width="662"/>
  <unicode hex="0069"/>
  <anchor x="188" y="-150" name="bottom"/>
  <anchor x="415" y="1150" name="top"/>
  <anchor x="129" y="0" name="ogonek"/>
  <outline>
    <contour>
      <point x="92" y="0" type="line"/>
      <point x="336" y="0" type="line"/>
      <point x="511" y="1000" type="line"/>
      <point x="267" y="1000" type="line"/>
    </contour>
    <contour>
      <point x="296" y="1230" type="line" smooth="yes"/>
      <point x="283.926" y="1163.6"/>
      <point x="303.595" y="1140"/>
      <point x="370" y="1140" type="qcurve" smooth="yes"/>
      <point x="454" y="1140" type="line" smooth="yes"/>
      <point x="520.405" y="1140"/>
      <point x="547.926" y="1163.6"/>
      <point x="560" y="1230" type="qcurve" smooth="yes"/>
      <point x="574" y="1312" type="line" smooth="yes"/>
      <point x="585.319" y="1376.9"/>
      <point x="565.405" y="1400"/>
      <point x="499" y="1400" type="qcurve" smooth="yes"/>
      <point x="415" y="1400" type="line" smooth="yes"/>
      <point x="348.595" y="1400"/>
      <point x="321.319" y="1376.9"/>
      <point x="310" y="1312" type="qcurve" smooth="yes"/>
    </contour>
  </outline>
</glyph>
<glyph name="l" format="2">
  <advance width="647"/>
  <unicode hex="006C"/>
  <anchor x="484" y="1598" name="top"/>
  <anchor x="179" y="-150" name="bottom"/>
  <anchor x="582" y="1448" name="right"/>
  <anchor x="649" y="700" name="eldot"/>
  <outline>
    <contour>
      <point x="81" y="0" type="line"/>
      <point x="329" y="0" type="line"/>
      <point x="582" y="1448" type="line"/>
      <point x="334" y="1448" type="line"/>
    </contour>
  </outline>
</glyph>
<glyph name="m" format="2">
  <advance width="2206"/>
  <unicode hex="006D"/>
  <anchor x="1103" y="1156" name="top"/>
  <anchor x="1103" y="-150" name="bottom"/>
  <outline>
    <contour>
      <point x="80" y="0" type="line"/>
      <point x="328" y="0" type="line"/>
      <point x="498" y="974" type="line"/>
      <point x="1034" y="974" type="line"/>
      <point x="864" y="0" type="line"/>
      <point x="1112" y="0" type="line"/>
      <point x="1282" y="974" type="line"/>
      <point x="1818" y="974" type="line"/>
      <point x="1818" y="974"/>
      <point x="1818" y="974"/>
      <point x="1818" y="974" type="qcurve"/>
      <point x="1648" y="0" type="line"/>
      <point x="1896" y="0" type="line"/>
      <point x="2028" y="756" type="line" smooth="yes"/>
      <point x="2051" y="890"/>
      <point x="1924" y="1006"/>
      <point x="1754" y="1006" type="qcurve" smooth="yes"/>
      <point x="1298" y="1006" type="line" smooth="yes"/>
      <point x="1271" y="1006"/>
      <point x="1231" y="992"/>
      <point x="1218" y="979" type="qcurve"/>
      <point x="1177" y="996"/>
      <point x="1082" y="1006"/>
      <point x="1036" y="1006" type="qcurve" smooth="yes"/>
      <point x="580" y="1006" type="line" smooth="yes"/>
      <point x="553" y="1006"/>
      <point x="512" y="992"/>
      <point x="499" y="978" type="qcurve"/>
      <point x="503" y="1000" type="line"/>
      <point x="255" y="1000" type="line"/>
    </contour>
  </outline>
</glyph>
<glyph name="p" format="2">
  <advance width="1444"/>
  <unicode hex="0070"/>
  <outline>
    <contour>
      <point x="5" y="-428" type="line"/>
      <point x="253" y="-428" type="line"/>
      <point x="331" y="18" type="line"/>
      <point x="335" y="6"/>
      <point x="371" y="-6"/>
      <point x="403" y="-6" type="qcurve" smooth="yes"/>
      <point x="895" y="-6" type="line" smooth="yes"/>
      <point x="1032" y="-6"/>
      <point x="1167" y="89"/>
      <point x="1187" y="198" type="qcurve" smooth="yes"/>
      <point x="1290" y="792" type="line" smooth="yes"/>
      <point x="1310" y="908"/>
      <point x="1211" y="1006"/>
      <point x="1072" y="1006" type="qcurve" smooth="yes"/>
      <point x="580" y="1006" type="line" smooth="yes"/>
      <point x="553" y="1006"/>
      <point x="512" y="992"/>
      <point x="499" y="978" type="qcurve"/>
      <point x="503" y="1000" type="line"/>
      <point x="255" y="1000" type="line"/>
    </contour>
    <contour>
      <point x="333" y="26" type="line"/>
      <point x="498" y="974" type="line"/>
      <point x="1074" y="974" type="line"/>
      <point x="1074" y="974"/>
      <point x="1074" y="974"/>
      <point x="1074" y="974" type="qcurve"/>
      <point x="909" y="26" type="line"/>
      <point x="909" y="26"/>
      <point x="909" y="26"/>
      <point x="909" y="26" type="qcurve"/>
    </contour>
  </outline>
</glyph>
<glyph name="q" format="2">
  <advance width="1444"/>
  <unicode hex="0071"/>
  <anchor x="858" y="1598" name="top"/>
  <anchor x="543" y="-150" name="bottom"/>
  <outline>
    <contour>
      <point x="89" y="208" type="line" smooth="yes"/>
      <point x="68.6258" y="91.7916"/>
      <point x="169.154" y="-6"/>
      <point x="308" y="-6" type="qcurve" smooth="yes"/>
      <point x="800" y="-6" type="line" smooth="yes"/>
      <point x="827.166" y="-6"/>
      <point x="868.172" y="8.4172"/>
      <point x="881" y="22" type="qcurve"/>
      <point x="802" y="-428" type="line"/>
      <point x="1050" y="-428" type="line"/>
      <point x="1300" y="1000" type="line"/>
      <point x="1052" y="1000" type="line"/>
      <point x="1048" y="982" type="line"/>
      <point x="1044.23" y="994.074"/>
      <point x="1008.69" y="1006"/>
      <point x="977" y="1006" type="qcurve" smooth="yes"/>
      <point x="485" y="1006" type="line" smooth="yes"/>
      <point x="347.663" y="1006"/>
      <point x="211.865" y="910.662"/>
      <point x="193" y="802" type="qcurve" smooth="yes"/>
    </contour>
    <contour>
      <point x="306" y="26" type="qcurve"/>
      <point x="471" y="974" type="line"/>
      <point x="471" y="974"/>
      <point x="471" y="974"/>
      <point x="471" y="974" type="qcurve"/>
      <point x="1047" y="974" type="line"/>
      <point x="882" y="26" type="line"/>
      <point x="306" y="26" type="line"/>
      <point x="306" y="26"/>
      <point x="306" y="26"/>
    </contour>
  </outline>
  <guideline angle="0" x="0" y="988"/>
  <guideline angle="0" x="0" y="42"/>
</glyph>
<glyph name="s" format="2">
  <advance width="1313"/>
  <unicode hex="0073"/>
  <anchor x="736" y="1150" name="top"/>
  <anchor x="509" y="-150" name="bottom"/>
  <outline>
    <contour>
      <point x="84" y="262" type="line"/>
      <point x="312" y="308" type="line"/>
      <point x="263" y="26" type="line"/>
      <point x="263" y="26"/>
      <point x="263" y="26"/>
      <point x="263" y="26" type="qcurve"/>
      <point x="817" y="26" type="line"/>
      <point x="817" y="26"/>
      <point x="817" y="26"/>
      <point x="817" y="26" type="qcurve"/>
      <point x="897" y="487" type="line"/>
      <point x="897" y="487"/>
      <point x="897" y="487"/>
      <point x="897" y="487" type="qcurve"/>
      <point x="389" y="487" type="line" smooth="yes"/>
      <point x="332" y="487"/>
      <point x="245" y="504"/>
      <point x="190" y="550"/>
      <point x="170" y="630"/>
      <point x="181" y="693" type="qcurve" smooth="yes"/>
      <point x="201" y="810" type="line" smooth="yes"/>
      <point x="212" y="871"/>
      <point x="261" y="947"/>
      <point x="333" y="990"/>
      <point x="426" y="1006"/>
      <point x="480" y="1006" type="qcurve" smooth="yes"/>
      <point x="948" y="1006" type="line" smooth="yes"/>
      <point x="1003" y="1006"/>
      <point x="1091" y="990"/>
      <point x="1148" y="947"/>
      <point x="1170" y="871"/>
      <point x="1159" y="810" type="qcurve" smooth="yes"/>
      <point x="1149" y="750" type="line"/>
      <point x="921" y="706" type="line"/>
      <point x="968" y="974" type="line"/>
      <point x="968" y="974"/>
      <point x="968" y="974"/>
      <point x="968" y="974" type="qcurve"/>
      <point x="450" y="974" type="line"/>
      <point x="450" y="974"/>
      <point x="450" y="974"/>
      <point x="450" y="974" type="qcurve"/>
      <point x="371" y="519" type="line"/>
      <point x="371" y="519"/>
      <point x="371" y="519"/>
      <point x="371" y="519" type="qcurve"/>
      <point x="877" y="519" type="line" smooth="yes"/>
      <point x="932" y="519"/>
      <point x="1020" y="504"/>
      <point x="1077" y="462"/>
      <point x="1099" y="385"/>
      <point x="1088" y="323" type="qcurve" smooth="yes"/>
      <point x="1067" y="198" type="line" smooth="yes"/>
      <point x="1056" y="135"/>
      <point x="1008" y="56"/>
      <point x="937" y="11"/>
      <point x="843" y="-6"/>
      <point x="785" y="-6" type="qcurve" smooth="yes"/>
      <point x="281" y="-6" type="line" smooth="yes"/>
      <point x="224" y="-6"/>
      <point x="136" y="11"/>
      <point x="81" y="56"/>
      <point x="62" y="135"/>
      <point x="73" y="198" type="qcurve" smooth="yes"/>
    </contour>
  </outline>
</glyph>
<glyph name="t" format="2">
  <advance width="880"/>
  <unicode hex="0074"/>
  <anchor x="567" y="1394" name="top"/>
  <anchor x="297" y="-156" name="bottom"/>
  <anchor x="626" y="1400" name="right"/>
  <outline>
    <contour>
      <point x="388" y="-6" type="qcurve" smooth="yes"/>
      <point x="642" y="-6" type="line"/>
      <point x="658" y="26" type="line"/>
      <point x="386" y="26" type="line"/>
      <point x="386" y="26"/>
      <point x="386" y="26"/>
      <point x="386" y="26" type="qcurve"/>
      <point x="550" y="968" type="line"/>
      <point x="852" y="968" type="line"/>
      <point x="858" y="1000" type="line"/>
      <point x="556" y="1000" type="line"/>
      <point x="598" y="1244" type="line"/>
      <point x="350" y="1244" type="line"/>
      <point x="308" y="1000" type="line"/>
      <point x="136" y="1000" type="line"/>
      <point x="130" y="968" type="line"/>
      <point x="302" y="968" type="line"/>
      <point x="169" y="208" type="line" smooth="yes"/>
      <point x="149" y="92"/>
      <point x="249" y="-6"/>
    </contour>
  </outline>
</glyph>
<glyph name="u" format="2">
  <advance width="1403"/>
  <unicode hex="0075"/>
  <anchor x="784" y="1150" name="top"/>
  <anchor x="557" y="-150" name="bottom"/>
  <anchor x="602" y="0" name="ogonek"/>
  <anchor x="1274" y="1000" name="horn"/>
  <outline>
    <contour>
      <point x="101" y="194" type="line" smooth="yes"/>
      <point x="79.1166" y="67.2272"/>
      <point x="194.301" y="-10"/>
      <point x="309" y="-10" type="qcurve" smooth="yes"/>
      <point x="851" y="-10" type="line" smooth="yes"/>
      <point x="965.699" y="-10"/>
      <point x="1111.12" y="67.2272"/>
      <point x="1133" y="194" type="qcurve" smooth="yes"/>
      <point x="1274" y="1000" type="line"/>
      <point x="1026" y="1000" type="line"/>
      <point x="855" y="22" type="line"/>
      <point x="855" y="22"/>
      <point x="855" y="22"/>
      <point x="855" y="22" type="qcurve"/>
      <point x="319" y="22" type="line"/>
      <point x="319" y="22"/>
      <point x="319" y="22"/>
      <point x="319" y="22" type="qcurve"/>
      <point x="490" y="1000" type="line"/>
      <point x="242" y="1000" type="line"/>
    </contour>
  </outline>
</glyph>
<glyph name="z" format="2">
  <advance width="1157"/>
  <unicode hex="007A"/>
  <anchor x="661" y="1150" name="top"/>
  <anchor x="434" y="-150" name="bottom"/>
  <outline>
    <contour>
      <point x="-29" y="0" type="line"/>
      <point x="947" y="0" type="line"/>
      <point x="952" y="32" type="line"/>
      <point x="246" y="32" type="line"/>
      <point x="250" y="23" type="line"/>
      <point x="1114" y="992" type="line"/>
      <point x="1115" y="1000" type="line"/>
      <point x="205" y="1000" type="line"/>
      <point x="200" y="968" type="line"/>
      <point x="840" y="968" type="line"/>
      <point x="836" y="977" type="line"/>
      <point x="-28" y="8" type="line"/>
    </contour>
  </outline>
</glyph>
<glyph name="braceleft" format="2">
  <advance width="822.328"/>
  <unicode hex="007B"/>
  <outline>
    <contour>
      <point x="176.179" y="18" type="line"/>
      <point x="243.179" y="403" type="line" smooth="yes"/>
      <point x="250.179" y="444"/>
      <point x="239.179" y="510"/>
      <point x="201.179" y="556"/>
      <point x="134.179" y="581"/>
      <point x="84.1791" y="581" type="qcurve"/>
      <point x="90.1791" y="613" type="line"/>
      <point x="140.179" y="613"/>
      <point x="216.179" y="638"/>
      <point x="270.179" y="685"/>
      <point x="304.179" y="751"/>
      <point x="311.179" y="791" type="qcurve" smooth="yes"/>
      <point x="376.179" y="1164" type="line" smooth="yes"/>
      <point x="388.179" y="1232"/>
      <point x="448.179" y="1337"/>
      <point x="539.179" y="1410"/>
      <point x="656.179" y="1448"/>
      <point x="723.179" y="1448" type="qcurve" smooth="yes"/>
      <point x="944.179" y="1448" type="line"/>
      <point x="939.179" y="1416" type="line"/>
      <point x="790.179" y="1416" type="line" smooth="yes"/>
      <point x="757.179" y="1416"/>
      <point x="709.179" y="1403"/>
      <point x="674.179" y="1375"/>
      <point x="653.179" y="1333"/>
      <point x="648.179" y="1304" type="qcurve" smooth="yes"/>
      <point x="574.179" y="877" type="line" smooth="yes"/>
      <point x="555.179" y="766"/>
      <point x="426.179" y="624"/>
      <point x="325.179" y="597" type="qcurve"/>
      <point x="371.179" y="584"/>
      <point x="437.179" y="534"/>
      <point x="475.179" y="464"/>
      <point x="486.179" y="373"/>
      <point x="476.179" y="317" type="qcurve" smooth="yes"/>
      <point x="401.179" y="-112" type="line" smooth="yes"/>
      <point x="396.179" y="-141"/>
      <point x="403.179" y="-183"/>
      <point x="427.179" y="-211"/>
      <point x="471.179" y="-224"/>
      <point x="504.179" y="-224" type="qcurve" smooth="yes"/>
      <point x="653.179" y="-224" type="line"/>
      <point x="647.179" y="-256" type="line"/>
      <point x="426.179" y="-256" type="line" smooth="yes"/>
      <point x="359.179" y="-256"/>
      <point x="255.179" y="-218"/>
      <point x="189.179" y="-147"/>
      <point x="165.179" y="-46"/>
      <point x="176.179" y="18" type="qcurve"/>
    </contour>
  </outline>
</glyph>
<glyph name="bar" format="2">
  <advance width="675"/>
  <unicode hex="007C"/>
  <outline>
    <contour>
      <point x="369" y="1520" type="line"/>
      <point x="20" y="-480" type="line"/>
      <point x="250" y="-480" type="line"/>
      <point x="599" y="1520" type="line"/>
    </contour>
  </outline>
</glyph>
<glyph name="braceright" format="2">
  <advance width="825"/>
  <unicode hex="007D"/>
  <outline>
    <contour>
      <point x="854" y="1174" type="line" smooth="yes"/>
      <point x="877" y="1302"/>
      <point x="740" y="1448"/>
      <point x="604" y="1448" type="qcurve" smooth="yes"/>
      <point x="383" y="1448" type="line"/>
      <point x="377" y="1416" type="line"/>
      <point x="526" y="1416" type="line" smooth="yes"/>
      <point x="592" y="1416"/>
      <point x="639" y="1362"/>
      <point x="629" y="1304" type="qcurve" smooth="yes"/>
      <point x="554" y="875" type="line" smooth="yes"/>
      <point x="534" y="763"/>
      <point x="613" y="622"/>
      <point x="705" y="595" type="qcurve"/>
      <point x="604" y="568"/>
      <point x="476" y="427"/>
      <point x="456" y="315" type="qcurve" smooth="yes"/>
      <point x="382" y="-112" type="line" smooth="yes"/>
      <point x="371" y="-170"/>
      <point x="306" y="-224"/>
      <point x="240" y="-224" type="qcurve" smooth="yes"/>
      <point x="91" y="-224" type="line"/>
      <point x="86" y="-256" type="line"/>
      <point x="307" y="-256" type="line" smooth="yes"/>
      <point x="443" y="-256"/>
      <point x="631" y="-108"/>
      <point x="654" y="28" type="qcurve" smooth="yes"/>
      <point x="719" y="401" type="line" smooth="yes"/>
      <point x="733" y="482"/>
      <point x="840" y="579"/>
      <point x="940" y="579" type="qcurve"/>
      <point x="946" y="611" type="line"/>
      <point x="846" y="611"/>
      <point x="773" y="707"/>
      <point x="787" y="789" type="qcurve" smooth="yes"/>
    </contour>
  </outline>
</glyph>
<glyph name="asciitilde" format="2">
  <advance width="1025"/>
  <unicode hex="007E"/>
  <outline>
    <contour>
      <point x="-27" y="468" type="line"/>
      <point x="-5" y="521"/>
      <point x="40" y="605"/>
      <point x="87" y="669"/>
      <point x="138" y="713"/>
      <point x="194" y="741"/>
      <point x="256" y="754"/>
      <point x="291" y="754" type="qcurve" smooth="yes"/>
      <point x="333" y="754"/>
      <point x="425" y="731"/>
      <point x="518" y="696"/>
      <point x="612" y="655"/>
      <point x="702" y="620"/>
      <point x="786" y="597"/>
      <point x="824" y="597" type="qcurve" smooth="yes"/>
      <point x="856" y="597"/>
      <point x="905" y="611"/>
      <point x="943" y="641"/>
      <point x="973" y="687"/>
      <point x="986" y="718" type="qcurve"/>
      <point x="1021" y="712" type="line"/>
      <point x="998" y="658"/>
      <point x="956" y="573"/>
      <point x="912" y="508"/>
      <point x="867" y="462"/>
      <point x="815" y="433"/>
      <point x="756" y="420"/>
      <point x="722" y="420" type="qcurve" smooth="yes"/>
      <point x="679" y="420"/>
      <point x="584" y="444"/>
      <point x="487" y="480"/>
      <point x="388" y="523"/>
      <point x="294" y="559"/>
      <point x="207" y="583"/>
      <point x="170" y="583" type="qcurve" smooth="yes"/>
      <point x="137" y="583"/>
      <point x="88" y="569"/>
      <point x="50" y="539"/>
      <point x="20" y="493"/>
      <point x="8" y="462" type="qcurve"/>
    </contour>
  </outline>
</glyph>
<glyph name="exclamdown" format="2">
  <advance width="770"/>
  <unicode hex="00A1"/>
  <outline>
    <contour>
      <point x="576" y="881" type="line" smooth="yes"/>
      <point x="591.092" y="969.288"/>
      <point x="565.288" y="1000"/>
      <point x="477" y="1000" type="qcurve" smooth="yes"/>
      <point x="401" y="1000" type="line" smooth="yes"/>
      <point x="313.25" y="1000"/>
      <point x="276" y="968.75"/>
      <point x="261" y="881" type="qcurve" smooth="yes"/>
      <point x="247" y="802" type="line" smooth="yes"/>
      <point x="231.908" y="715.221"/>
      <point x="257.712" y="685"/>
      <point x="346" y="685" type="qcurve" smooth="yes"/>
      <point x="422" y="685" type="line" smooth="yes"/>
      <point x="509.75" y="685"/>
      <point x="547" y="715.75"/>
      <point x="562" y="802" type="qcurve" smooth="yes"/>
    </contour>
    <contour>
      <point x="374" y="530" type="line"/>
      <point x="339" y="530" type="line"/>
      <point x="7" y="-408" type="line"/>
      <point x="380" y="-408" type="line"/>
    </contour>
  </outline>
</glyph>
<glyph name="sterling" format="2">
  <advance width="1751"/>
  <unicode hex="00A3"/>
  <outline>
    <contour>
      <point x="-94" y="0" type="line"/>
      <point x="1151" y="0" type="line" smooth="yes"/>
      <point x="1338.14" y="0"/>
      <point x="1518.59" y="130.552"/>
      <point x="1545" y="286" type="qcurve" smooth="yes"/>
      <point x="1563" y="392" type="line"/>
      <point x="1308" y="444" type="line"/>
      <point x="1255" y="136" type="line" smooth="yes"/>
      <point x="1245.94" y="83.178"/>
      <point x="1189.82" y="36"/>
      <point x="1137" y="36" type="qcurve" smooth="yes"/>
      <point x="368" y="36" type="line"/>
      <point x="438.932" y="66.184"/>
      <point x="518.153" y="181.939"/>
      <point x="534" y="274" type="qcurve" smooth="yes"/>
      <point x="597" y="637" type="line"/>
      <point x="1059" y="637" type="line"/>
      <point x="1073" y="673" type="line"/>
      <point x="603" y="673" type="line"/>
      <point x="707" y="1278" type="line" smooth="yes"/>
      <point x="716.055" y="1328.56"/>
      <point x="774.442" y="1378"/>
      <point x="825" y="1378" type="qcurve" smooth="yes"/>
      <point x="1362" y="1378" type="line" smooth="yes"/>
      <point x="1414.82" y="1378"/>
      <point x="1453.06" y="1330.82"/>
      <point x="1444" y="1278" type="qcurve" smooth="yes"/>
      <point x="1396" y="996" type="line"/>
      <point x="1668" y="1044" type="line"/>
      <point x="1684" y="1140" type="line" smooth="yes"/>
      <point x="1708.75" y="1287"/>
      <point x="1572.5" y="1414"/>
      <point x="1388" y="1414" type="qcurve" smooth="yes"/>
      <point x="839" y="1414" type="line" smooth="yes"/>
      <point x="641" y="1414"/>
      <point x="439.5" y="1257"/>
      <point x="414" y="1110" type="qcurve" smooth="yes"/>
      <point x="339" y="673" type="line"/>
      <point x="118" y="673" type="line"/>
      <point x="112" y="637" type="line"/>
      <point x="332" y="637" type="line"/>
      <point x="246" y="136" type="line" smooth="yes"/>
      <point x="236.945" y="83.178"/>
      <point x="180.822" y="36"/>
      <point x="128" y="36" type="qcurve" smooth="yes"/>
      <point x="-88" y="36" type="line"/>
    </contour>
  </outline>
  <guideline angle="0" x="0" y="1000"/>
  <guideline angle="90" x="659" y="0"/>
</glyph>
<glyph name="currency" format="2">
  <advance width="1700"/>
  <unicode hex="00A4"/>
  <outline>
    <contour>
      <point x="-29" y="-45" type="line"/>
      <point x="287" y="224" type="line"/>
      <point x="315" y="208"/>
      <point x="395" y="194"/>
      <point x="450" y="194" type="qcurve" smooth="yes"/>
      <point x="1080" y="194" type="line" smooth="yes"/>
      <point x="1135" y="194"/>
      <point x="1220" y="208"/>
      <point x="1253" y="224" type="qcurve"/>
      <point x="1475" y="-45" type="line"/>
      <point x="1505" y="-20" type="line"/>
      <point x="1287" y="244" type="line"/>
      <point x="1322" y="270"/>
      <point x="1362" y="350"/>
      <point x="1373" y="408" type="qcurve" smooth="yes"/>
      <point x="1477" y="1002" type="line" smooth="yes"/>
      <point x="1486" y="1056"/>
      <point x="1472" y="1131"/>
      <point x="1446" y="1156" type="qcurve"/>
      <point x="1756" y="1420" type="line"/>
      <point x="1735" y="1445" type="line"/>
      <point x="1419" y="1176" type="line"/>
      <point x="1391" y="1191"/>
      <point x="1311" y="1206"/>
      <point x="1256" y="1206" type="qcurve" smooth="yes"/>
      <point x="626" y="1206" type="line" smooth="yes"/>
      <point x="572" y="1206"/>
      <point x="486" y="1192"/>
      <point x="453" y="1176" type="qcurve"/>
      <point x="231" y="1445" type="line"/>
      <point x="202" y="1420" type="line"/>
      <point x="419" y="1156" type="line"/>
      <point x="385" y="1131"/>
      <point x="344" y="1056"/>
      <point x="335" y="1002" type="qcurve" smooth="yes"/>
      <point x="231" y="408" type="line" smooth="yes"/>
      <point x="220" y="351"/>
      <point x="235" y="270"/>
      <point x="261" y="244" type="qcurve"/>
      <point x="-49" y="-20" type="line"/>
    </contour>
    <contour>
      <point x="447" y="226" type="line"/>
      <point x="447" y="226"/>
      <point x="447" y="226"/>
      <point x="447" y="226" type="qcurve"/>
      <point x="613" y="1174" type="line"/>
      <point x="613" y="1174"/>
      <point x="613" y="1174"/>
      <point x="613" y="1174" type="qcurve"/>
      <point x="1259" y="1174" type="line"/>
      <point x="1259" y="1174"/>
      <point x="1259" y="1174"/>
      <point x="1259" y="1174" type="qcurve"/>
      <point x="1093" y="226" type="line"/>
      <point x="1093" y="226"/>
      <point x="1093" y="226"/>
      <point x="1093" y="226" type="qcurve"/>
    </contour>
  </outline>
</glyph>
<glyph name="yen" format="2">
  <advance width="1560"/>
  <unicode hex="00A5"/>
  <outline>
    <contour>
      <point x="568" y="1" type="line"/>
      <point x="832" y="1" type="line"/>
      <point x="907" y="429" type="line"/>
      <point x="1245" y="429" type="line"/>
      <point x="1251" y="465" type="line"/>
      <point x="913" y="465" type="line"/>
      <point x="945" y="649" type="line"/>
      <point x="1283" y="649" type="line"/>
      <point x="1290" y="685" type="line"/>
      <point x="976" y="685" type="line"/>
      <point x="1686" y="1400" type="line"/>
      <point x="1640" y="1400" type="line"/>
      <point x="939" y="697" type="line"/>
      <point x="505" y="1400" type="line"/>
      <point x="127" y="1400" type="line"/>
      <point x="602" y="685" type="line"/>
      <point x="275" y="685" type="line"/>
      <point x="268" y="649" type="line"/>
      <point x="625" y="649" type="line"/>
      <point x="670" y="582" type="line"/>
      <point x="649" y="465" type="line"/>
      <point x="236" y="465" type="line"/>
      <point x="230" y="429" type="line"/>
      <point x="643" y="429" type="line"/>
    </contour>
  </outline>
</glyph>
<glyph name="brokenbar" format="2">
  <advance width="675"/>
  <unicode hex="00A6"/>
  <outline>
    <contour>
      <point x="369" y="1520" type="line"/>
      <point x="230" y="720" type="line"/>
      <point x="460" y="720" type="line"/>
      <point x="599" y="1520" type="line"/>
    </contour>
    <contour>
      <point x="160" y="320" type="line"/>
      <point x="20" y="-480" type="line"/>
      <point x="250" y="-480" type="line"/>
      <point x="390" y="320" type="line"/>
    </contour>
  </outline>
</glyph>
<glyph name="section" format="2">
  <advance width="1530"/>
  <unicode hex="00A7"/>
  <outline>
    <contour>
      <point x="359" y="-155" type="qcurve" smooth="yes"/>
      <point x="863" y="-155" type="line" smooth="yes"/>
      <point x="979.208" y="-155"/>
      <point x="1122.36" y="-77.7728"/>
      <point x="1145" y="49" type="qcurve" smooth="yes"/>
      <point x="1166" y="174" type="line" smooth="yes"/>
      <point x="1178.07" y="241.914"/>
      <point x="1150.96" y="320.626"/>
      <point x="1117" y="341" type="qcurve"/>
      <point x="1159.75" y="345.125"/>
      <point x="1230.28" y="369.031"/>
      <point x="1284.47" y="415.719"/>
      <point x="1321.62" y="488.75"/>
      <point x="1331" y="542" type="qcurve" smooth="yes"/>
      <point x="1361" y="717" type="line" smooth="yes"/>
      <point x="1382.88" y="842.264"/>
      <point x="1259.17" y="913"/>
      <point x="1149" y="913" type="qcurve" smooth="yes"/>
      <point x="543" y="913" type="line"/>
      <point x="543" y="913"/>
      <point x="543" y="913"/>
      <point x="543" y="913" type="qcurve"/>
      <point x="623" y="1368" type="line"/>
      <point x="623" y="1368"/>
      <point x="623" y="1368"/>
      <point x="623" y="1368" type="qcurve"/>
      <point x="1141" y="1368" type="line"/>
      <point x="1141" y="1368"/>
      <point x="1141" y="1368"/>
      <point x="1141" y="1368" type="qcurve"/>
      <point x="1094" y="1100" type="line"/>
      <point x="1322" y="1144" type="line"/>
      <point x="1332" y="1204" type="line" smooth="yes"/>
      <point x="1353.13" y="1326.25"/>
      <point x="1230.17" y="1400"/>
      <point x="1120" y="1400" type="qcurve" smooth="yes"/>
      <point x="652" y="1400" type="line" smooth="yes"/>
      <point x="543.338" y="1400"/>
      <point x="395.129" y="1326.25"/>
      <point x="374" y="1204" type="qcurve" smooth="yes"/>
      <point x="354" y="1087" type="line" smooth="yes"/>
      <point x="341.172" y="1015.31"/>
      <point x="368.779" y="931.883"/>
      <point x="405" y="910" type="qcurve"/>
      <point x="363" y="906.25"/>
      <point x="291.75" y="883.5"/>
      <point x="236.25" y="838.5"/>
      <point x="198" y="767.75"/>
      <point x="189" y="716" type="qcurve" smooth="yes"/>
      <point x="159" y="543" type="line" smooth="yes"/>
      <point x="136.362" y="416.227"/>
      <point x="252.301" y="338"/>
      <point x="367" y="338" type="qcurve" smooth="yes"/>
      <point x="975" y="338" type="line"/>
      <point x="975" y="338"/>
      <point x="975" y="338"/>
      <point x="975" y="338" type="qcurve"/>
      <point x="895" y="-123" type="line"/>
      <point x="895" y="-123"/>
      <point x="895" y="-123"/>
      <point x="895" y="-123" type="qcurve"/>
      <point x="341" y="-123" type="line"/>
      <point x="341" y="-123"/>
      <point x="341" y="-123"/>
      <point x="341" y="-123" type="qcurve"/>
      <point x="390" y="159" type="line"/>
      <point x="162" y="113" type="line"/>
      <point x="151" y="49" type="line" smooth="yes"/>
      <point x="128.362" y="-77.7728"/>
      <point x="244.301" y="-155"/>
    </contour>
    <contour>
      <point x="349" y="370" type="line"/>
      <point x="349" y="370"/>
      <point x="349" y="370"/>
      <point x="349" y="370" type="qcurve"/>
      <point x="438" y="881" type="line"/>
      <point x="438" y="881"/>
      <point x="438" y="881"/>
      <point x="438" y="881" type="qcurve"/>
      <point x="1170" y="881" type="line"/>
      <point x="1170" y="881"/>
      <point x="1170" y="881"/>
      <point x="1170" y="881" type="qcurve"/>
      <point x="1081" y="370" type="line"/>
      <point x="1081" y="370"/>
      <point x="1081" y="370"/>
      <point x="1081" y="370" type="qcurve"/>
    </contour>
  </outline>
</glyph>
<glyph name="dieresis" format="2">
  <advance width="661"/>
  <unicode hex="00A8"/>
  <outline>
    <contour>
      <point x="183" y="1150" type="qcurve" smooth="yes"/>
      <point x="243" y="1150" type="line" smooth="yes"/>
      <point x="309" y="1150"/>
      <point x="338" y="1174"/>
      <point x="349" y="1240" type="qcurve" smooth="yes"/>
      <point x="360" y="1302" type="line" smooth="yes"/>
      <point x="371" y="1367"/>
      <point x="352" y="1390"/>
      <point x="286" y="1390" type="qcurve" smooth="yes"/>
      <point x="226" y="1390" type="line" smooth="yes"/>
      <point x="160" y="1390"/>
      <point x="131" y="1367"/>
      <point x="120" y="1302" type="qcurve" smooth="yes"/>
      <point x="109" y="1240" type="line" smooth="yes"/>
      <point x="98" y="1174"/>
      <point x="117" y="1150"/>
    </contour>
    <contour>
      <point x="583" y="1150" type="qcurve" smooth="yes"/>
      <point x="643" y="1150" type="line" smooth="yes"/>
      <point x="709" y="1150"/>
      <point x="738" y="1174"/>
      <point x="749" y="1240" type="qcurve" smooth="yes"/>
      <point x="760" y="1302" type="line" smooth="yes"/>
      <point x="771" y="1367"/>
      <point x="752" y="1390"/>
      <point x="686" y="1390" type="qcurve" smooth="yes"/>
      <point x="626" y="1390" type="line" smooth="yes"/>
      <point x="560" y="1390"/>
      <point x="531" y="1367"/>
      <point x="520" y="1302" type="qcurve" smooth="yes"/>
      <point x="509" y="1240" type="line" smooth="yes"/>
      <point x="498" y="1174"/>
      <point x="517" y="1150"/>
    </contour>
  </outline>
</glyph>
<glyph name="copyright" format="2">
  <advance width="1910"/>
  <unicode hex="00A9"/>
  <outline>
    <contour>
      <point x="559" y="558" type="line"/>
      <point x="611" y="852" type="line" smooth="yes"/>
      <point x="620" y="907"/>
      <point x="659" y="984"/>
      <point x="726" y="1033"/>
      <point x="824" y="1056"/>
      <point x="892" y="1056" type="qcurve" smooth="yes"/>
      <point x="1124" y="1056" type="line" smooth="yes"/>
      <point x="1193" y="1056"/>
      <point x="1283" y="1033"/>
      <point x="1333" y="984"/>
      <point x="1344" y="907"/>
      <point x="1335" y="852" type="qcurve" smooth="yes"/>
      <point x="1325" y="796" type="line"/>
      <point x="1099" y="750" type="line"/>
      <point x="1147" y="1024" type="line"/>
      <point x="1147" y="1024"/>
      <point x="1147" y="1024"/>
      <point x="1147" y="1024" type="qcurve"/>
      <point x="859" y="1024" type="line"/>
      <point x="859" y="1024"/>
      <point x="859" y="1024"/>
      <point x="859" y="1024" type="qcurve"/>
      <point x="746" y="376" type="line"/>
      <point x="746" y="376"/>
      <point x="746" y="376"/>
      <point x="746" y="376" type="qcurve"/>
      <point x="1038" y="376" type="line"/>
      <point x="1038" y="376"/>
      <point x="1038" y="376"/>
      <point x="1038" y="376" type="qcurve"/>
      <point x="1087" y="660" type="line"/>
      <point x="1296" y="610" type="line"/>
      <point x="1287" y="558" type="line" smooth="yes"/>
      <point x="1277" y="500"/>
      <point x="1239" y="419"/>
      <point x="1172" y="368"/>
      <point x="1074" y="344"/>
      <point x="1004" y="344" type="qcurve" smooth="yes"/>
      <point x="768" y="344" type="line" smooth="yes"/>
      <point x="698" y="344"/>
      <point x="608" y="368"/>
      <point x="560" y="419"/>
      <point x="549" y="500"/>
      <point x="559" y="558" type="qcurve"/>
    </contour>
    <contour>
      <point x="260" y="1096" type="line" smooth="yes"/>
      <point x="275" y="1184"/>
      <point x="344" y="1291"/>
      <point x="445" y="1350"/>
      <point x="576" y="1370"/>
      <point x="652" y="1370" type="qcurve" smooth="yes"/>
      <point x="1476" y="1370" type="line" smooth="yes"/>
      <point x="1552" y="1370"/>
      <point x="1674" y="1349"/>
      <point x="1755" y="1289"/>
      <point x="1787" y="1182"/>
      <point x="1772" y="1096" type="qcurve" smooth="yes"/>
      <point x="1636" y="316" type="line" smooth="yes"/>
      <point x="1621" y="228"/>
      <point x="1554" y="117"/>
      <point x="1454" y="54"/>
      <point x="1322" y="30"/>
      <point x="1242" y="30" type="qcurve" smooth="yes"/>
      <point x="418" y="30" type="line" smooth="yes"/>
      <point x="338" y="30"/>
      <point x="214" y="54"/>
      <point x="136" y="117"/>
      <point x="109" y="228"/>
      <point x="124" y="316" type="qcurve" smooth="yes"/>
    </contour>
    <contour>
      <point x="479" y="1238" type="line"/>
      <point x="291" y="162" type="line" smooth="yes"/>
      <point x="287" y="140"/>
      <point x="293" y="103"/>
      <point x="321" y="77"/>
      <point x="377" y="62"/>
      <point x="424" y="62" type="qcurve" smooth="yes"/>
      <point x="1248" y="62" type="line" smooth="yes"/>
      <point x="1295" y="62"/>
      <point x="1356" y="77"/>
      <point x="1393" y="103"/>
      <point x="1411" y="140"/>
      <point x="1415" y="162" type="qcurve" smooth="yes"/>
      <point x="1603" y="1238" type="line" smooth="yes"/>
      <point x="1607" y="1260"/>
      <point x="1601" y="1297"/>
      <point x="1573" y="1323"/>
      <point x="1518" y="1338"/>
      <point x="1471" y="1338" type="qcurve" smooth="yes"/>
      <point x="647" y="1338" type="line" smooth="yes"/>
      <point x="601" y="1338"/>
      <point x="539" y="1323"/>
      <point x="501" y="1297"/>
      <point x="483" y="1260"/>
      <point x="479" y="1238" type="qcurve"/>
    </contour>
  </outline>
</glyph>
<glyph name="ordfeminine" format="2">
  <advance width="995"/>
  <unicode hex="00AA"/>
  <outline>
    <contour>
      <point x="306" y="776" type="qcurve" smooth="yes"/>
      <point x="570" y="776" type="line" smooth="yes"/>
      <point x="608" y="776"/>
      <point x="657" y="787"/>
      <point x="674" y="804" type="qcurve"/>
      <point x="671" y="783" type="line"/>
      <point x="871" y="783" type="line"/>
      <point x="963" y="1309" type="line" smooth="yes"/>
      <point x="978" y="1396"/>
      <point x="893" y="1448"/>
      <point x="818" y="1448" type="qcurve" smooth="yes"/>
      <point x="434" y="1448" type="line" smooth="yes"/>
      <point x="359" y="1448"/>
      <point x="257" y="1396"/>
      <point x="243" y="1311" type="qcurve" smooth="yes"/>
      <point x="238" y="1282" type="line"/>
      <point x="431" y="1245" type="line"/>
      <point x="461" y="1416" type="line"/>
      <point x="461" y="1416"/>
      <point x="461" y="1416"/>
      <point x="461" y="1416" type="qcurve"/>
      <point x="781" y="1416" type="line"/>
      <point x="781" y="1416"/>
      <point x="781" y="1416"/>
      <point x="781" y="1416" type="qcurve"/>
      <point x="732" y="1136" type="line"/>
      <point x="388" y="1136" type="line" smooth="yes"/>
      <point x="314" y="1136"/>
      <point x="192" y="1087"/>
      <point x="177" y="1002" type="qcurve" smooth="yes"/>
      <point x="162" y="917" type="line" smooth="yes"/>
      <point x="147" y="831"/>
      <point x="228" y="776"/>
    </contour>
    <contour>
      <point x="343" y="808" type="qcurve"/>
      <point x="395" y="1104" type="line"/>
      <point x="395" y="1104"/>
      <point x="395" y="1104"/>
      <point x="395" y="1104" type="qcurve"/>
      <point x="727" y="1104" type="line"/>
      <point x="675" y="808" type="line"/>
      <point x="343" y="808" type="line"/>
      <point x="343" y="808"/>
      <point x="343" y="808"/>
    </contour>
  </outline>
  <guideline angle="0" x="0" y="36"/>
  <guideline angle="0" x="0" y="36"/>
</glyph>
<glyph name="guillemotleft" format="2">
  <advance width="1002"/>
  <unicode hex="00AB"/>
  <outline>
    <contour>
      <point x="411" y="130" type="line"/>
      <point x="448" y="130" type="line"/>
      <point x="270" y="500" type="line"/>
      <point x="577" y="870" type="line"/>
      <point x="540" y="870" type="line"/>
      <point x="48" y="500" type="line"/>
    </contour>
    <contour>
      <point x="789" y="130" type="line"/>
      <point x="826" y="130" type="line"/>
      <point x="648" y="500" type="line"/>
      <point x="955" y="870" type="line"/>
      <point x="918" y="870" type="line"/>
      <point x="426" y="500" type="line"/>
    </contour>
  </outline>
</glyph>
<glyph name="registered" format="2">
  <advance width="854"/>
  <unicode hex="00AE"/>
  <outline>
    <contour>
      <point x="152" y="1057" type="line" smooth="yes"/>
      <point x="140" y="988"/>
      <point x="203" y="914"/>
      <point x="272" y="914" type="qcurve" smooth="yes"/>
      <point x="666" y="914" type="line" smooth="yes"/>
      <point x="735" y="914"/>
      <point x="823" y="988"/>
      <point x="835" y="1057" type="qcurve" smooth="yes"/>
      <point x="898" y="1413" type="line" smooth="yes"/>
      <point x="909" y="1482"/>
      <point x="846" y="1555"/>
      <point x="777" y="1555" type="qcurve" smooth="yes"/>
      <point x="383" y="1555" type="line" smooth="yes"/>
      <point x="314" y="1555"/>
      <point x="226" y="1482"/>
      <point x="215" y="1413" type="qcurve" smooth="yes"/>
    </contour>
    <contour>
      <point x="282" y="1413" type="line" smooth="yes"/>
      <point x="289" y="1453"/>
      <point x="334" y="1494"/>
      <point x="373" y="1494" type="qcurve" smooth="yes"/>
      <point x="767" y="1494" type="line" smooth="yes"/>
      <point x="807" y="1494"/>
      <point x="838" y="1453"/>
      <point x="831" y="1413" type="qcurve" smooth="yes"/>
      <point x="768" y="1057" type="line" smooth="yes"/>
      <point x="761" y="1017"/>
      <point x="716" y="975"/>
      <point x="676" y="975" type="qcurve" smooth="yes"/>
      <point x="282" y="975" type="line" smooth="yes"/>
      <point x="243" y="975"/>
      <point x="212" y="1017"/>
      <point x="219" y="1057" type="qcurve" smooth="yes"/>
    </contour>
    <contour>
      <point x="373" y="1400" type="line"/>
      <point x="314" y="1060" type="line"/>
      <point x="419" y="1060" type="line"/>
      <point x="443" y="1196" type="line"/>
      <point x="475" y="1196" type="line"/>
      <point x="584" y="1060" type="line"/>
      <point x="717" y="1060" type="line"/>
      <point x="603" y="1196" type="line"/>
      <point x="619" y="1196" type="line" smooth="yes"/>
      <point x="663" y="1196"/>
      <point x="716" y="1227"/>
      <point x="723" y="1269" type="qcurve" smooth="yes"/>
      <point x="733" y="1326" type="line" smooth="yes"/>
      <point x="741" y="1371"/>
      <point x="696" y="1400"/>
      <point x="654" y="1400" type="qcurve" smooth="yes"/>
    </contour>
    <contour>
      <point x="448" y="1228" type="line"/>
      <point x="473" y="1368" type="line"/>
      <point x="617" y="1368" type="line" smooth="yes"/>
      <point x="628" y="1368"/>
      <point x="636" y="1359"/>
      <point x="634" y="1349" type="qcurve"/>
      <point x="617" y="1247" type="line"/>
      <point x="615" y="1236"/>
      <point x="603" y="1228"/>
      <point x="592" y="1228" type="qcurve" smooth="yes"/>
    </contour>
  </outline>
</glyph>
<glyph name="macron" format="2">
  <advance width="671"/>
  <unicode hex="00AF"/>
  <outline>
    <contour>
      <point x="108" y="1234" type="line"/>
      <point x="758" y="1234" type="line"/>
      <point x="764" y="1266" type="line"/>
      <point x="114" y="1266" type="line"/>
    </contour>
  </outline>
</glyph>
<glyph name="degree" format="2">
  <advance width="659"/>
  <unicode hex="00B0"/>
  <outline>
    <contour>
      <point x="187" y="1254" type="line" smooth="yes"/>
      <point x="173" y="1174"/>
      <point x="242" y="1106"/>
      <point x="336" y="1106" type="qcurve" smooth="yes"/>
      <point x="473" y="1106" type="line" smooth="yes"/>
      <point x="568" y="1106"/>
      <point x="660" y="1174"/>
      <point x="674" y="1254" type="qcurve" smooth="yes"/>
      <point x="696" y="1378" type="line" smooth="yes"/>
      <point x="709" y="1452"/>
      <point x="638" y="1518"/>
      <point x="545" y="1518" type="qcurve" smooth="yes"/>
      <point x="408" y="1518" type="line" smooth="yes"/>
      <point x="314" y="1518"/>
      <point x="222" y="1452"/>
      <point x="209" y="1378" type="qcurve" smooth="yes"/>
    </contour>
    <contour>
      <point x="337" y="1138" type="qcurve"/>
      <point x="397" y="1486" type="line"/>
      <point x="397" y="1486"/>
      <point x="397" y="1486"/>
      <point x="397" y="1486" type="qcurve"/>
      <point x="544" y="1486" type="line"/>
      <point x="544" y="1486"/>
      <point x="544" y="1486"/>
      <point x="544" y="1486" type="qcurve"/>
      <point x="484" y="1138" type="line"/>
      <point x="484" y="1138"/>
      <point x="484" y="1138"/>
      <point x="484" y="1138" type="qcurve"/>
      <point x="337" y="1138" type="line"/>
      <point x="337" y="1138"/>
      <point x="337" y="1138"/>
    </contour>
  </outline>
</glyph>
<glyph name="plusminus" format="2">
  <advance width="1452"/>
  <unicode hex="00B1"/>
  <outline>
    <contour>
      <point x="1318" y="726" type="line"/>
      <point x="755" y="726" type="line"/>
      <point x="832" y="1168" type="line"/>
      <point x="792" y="1168" type="line"/>
      <point x="715" y="726" type="line"/>
      <point x="152" y="726" type="line"/>
      <point x="145" y="690" type="line"/>
      <point x="708" y="690" type="line"/>
      <point x="631" y="248" type="line"/>
      <point x="671" y="248" type="line"/>
      <point x="748" y="690" type="line"/>
      <point x="1311" y="690" type="line"/>
    </contour>
    <contour>
      <point x="23" y="0" type="line"/>
      <point x="1189" y="0" type="line"/>
      <point x="1195" y="36" type="line"/>
      <point x="29" y="36" type="line"/>
    </contour>
  </outline>
</glyph>
<glyph name="periodcentered" format="2">
  <advance width="711"/>
  <unicode hex="00B7"/>
  <outline>
    <contour>
      <point x="187" y="568" type="line"/>
      <point x="197" y="627" type="line" smooth="yes"/>
      <point x="205" y="670"/>
      <point x="218" y="717"/>
      <point x="244" y="740"/>
      <point x="293" y="744"/>
      <point x="337" y="744" type="qcurve" smooth="yes"/>
      <point x="393" y="744" type="line" smooth="yes"/>
      <point x="437" y="744"/>
      <point x="485" y="740"/>
      <point x="504" y="717"/>
      <point x="500" y="670"/>
      <point x="492" y="627" type="qcurve" smooth="yes"/>
      <point x="482" y="568" type="line" smooth="yes"/>
      <point x="475" y="524"/>
      <point x="461" y="476"/>
      <point x="434" y="453"/>
      <point x="385" y="449"/>
      <point x="341" y="449" type="qcurve" smooth="yes"/>
      <point x="285" y="449" type="line" smooth="yes"/>
      <point x="241" y="449"/>
      <point x="194" y="453"/>
      <point x="175" y="476"/>
      <point x="180" y="524"/>
      <point x="187" y="568" type="qcurve"/>
    </contour>
  </outline>
</glyph>
<glyph name="cedilla" format="2">
  <advance width="371"/>
  <unicode hex="00B8"/>
  <outline>
    <contour>
      <point x="-39" y="-438" type="qcurve" smooth="yes"/>
      <point x="7" y="-438"/>
      <point x="84" y="-420"/>
      <point x="144" y="-382"/>
      <point x="183" y="-324"/>
      <point x="190" y="-285" type="qcurve" smooth="yes"/>
      <point x="198" y="-242"/>
      <point x="176" y="-177"/>
      <point x="125" y="-132"/>
      <point x="49" y="-108"/>
      <point x="1" y="-108" type="qcurve"/>
      <point x="70" y="0" type="line"/>
      <point x="16" y="0" type="line"/>
      <point x="-82" y="-147" type="line"/>
      <point x="-68" y="-142"/>
      <point x="-45" y="-138"/>
      <point x="-34" y="-138" type="qcurve" smooth="yes"/>
      <point x="2" y="-138"/>
      <point x="30" y="-201"/>
      <point x="19" y="-268" type="qcurve" smooth="yes"/>
      <point x="7" y="-334"/>
      <point x="-45" y="-409"/>
      <point x="-80" y="-409" type="qcurve" smooth="yes"/>
      <point x="-102" y="-409"/>
      <point x="-140" y="-383"/>
      <point x="-150" y="-366" type="qcurve"/>
      <point x="-177" y="-382" type="line"/>
      <point x="-157" y="-411"/>
      <point x="-92" y="-438"/>
    </contour>
  </outline>
</glyph>
<glyph name="ordmasculine" format="2">
  <advance width="1015"/>
  <unicode hex="00BA"/>
  <outline>
    <contour>
      <point x="172" y="924" type="line" smooth="yes"/>
      <point x="158" y="844"/>
      <point x="228" y="776"/>
      <point x="322" y="776" type="qcurve" smooth="yes"/>
      <point x="729" y="776" type="line" smooth="yes"/>
      <point x="824" y="776"/>
      <point x="915" y="844"/>
      <point x="929" y="924" type="qcurve" smooth="yes"/>
      <point x="996" y="1308" type="line" smooth="yes"/>
      <point x="1010" y="1382"/>
      <point x="939" y="1448"/>
      <point x="846" y="1448" type="qcurve" smooth="yes"/>
      <point x="439" y="1448" type="line" smooth="yes"/>
      <point x="345" y="1448"/>
      <point x="253" y="1382"/>
      <point x="239" y="1308" type="qcurve" smooth="yes"/>
    </contour>
    <contour>
      <point x="352" y="808" type="qcurve"/>
      <point x="458" y="1416" type="line"/>
      <point x="458" y="1416"/>
      <point x="458" y="1416"/>
      <point x="458" y="1416" type="qcurve"/>
      <point x="815" y="1416" type="line"/>
      <point x="815" y="1416"/>
      <point x="815" y="1416"/>
      <point x="815" y="1416" type="qcurve"/>
      <point x="709" y="808" type="line"/>
      <point x="709" y="808"/>
      <point x="709" y="808"/>
      <point x="709" y="808" type="qcurve"/>
      <point x="352" y="808" type="line"/>
      <point x="352" y="808"/>
      <point x="352" y="808"/>
    </contour>
  </outline>
</glyph>
<glyph name="guillemotright" format="2">
  <advance width="923"/>
  <unicode hex="00BB"/>
  <outline>
    <contour>
      <point x="513" y="870" type="line"/>
      <point x="476" y="870" type="line"/>
      <point x="654" y="500" type="line"/>
      <point x="347" y="130" type="line"/>
      <point x="384" y="130" type="line"/>
      <point x="876" y="500" type="line"/>
    </contour>
    <contour>
      <point x="135" y="870" type="line"/>
      <point x="98" y="870" type="line"/>
      <point x="276" y="500" type="line"/>
      <point x="-31" y="130" type="line"/>
      <point x="6" y="130" type="line"/>
      <point x="498" y="500" type="line"/>
    </contour>
  </outline>
</glyph>
<glyph name="onehalf" format="2">
  <advance width="1820"/>
  <unicode hex="00BD"/>
  <outline>
    <contour>
      <point x="209" y="614" type="line"/>
      <point x="409" y="614" type="line"/>
      <point x="547" y="1406" type="line"/>
      <point x="172" y="1355" type="line"/>
      <point x="167" y="1325" type="line"/>
      <point x="337" y="1347" type="line"/>
    </contour>
    <contour>
      <point x="1226" y="1400" type="line"/>
      <point x="57" y="0" type="line"/>
      <point x="93" y="0" type="line"/>
      <point x="1262" y="1400" type="line"/>
    </contour>
    <contour>
      <point x="772" y="0" type="line"/>
      <point x="1342" y="0" type="line" smooth="yes"/>
      <point x="1439.34" y="0"/>
      <point x="1568.91" y="56.2026"/>
      <point x="1584" y="146" type="qcurve" smooth="yes"/>
      <point x="1596" y="214" type="line"/>
      <point x="1416" y="239" type="line"/>
      <point x="1379" y="30" type="line"/>
      <point x="1379" y="30"/>
      <point x="1379" y="30"/>
      <point x="1379" y="30" type="qcurve"/>
      <point x="977" y="30" type="line"/>
      <point x="1016" y="253" type="line" smooth="yes"/>
      <point x="1020.53" y="277.147"/>
      <point x="1049.08" y="316.963"/>
      <point x="1077" y="323" type="qcurve" smooth="yes"/>
      <point x="1441" y="403" type="line" smooth="yes"/>
      <point x="1533.06" y="423.374"/>
      <point x="1613.44" y="486.877"/>
      <point x="1624" y="548" type="qcurve" smooth="yes"/>
      <point x="1642" y="651" type="line" smooth="yes"/>
      <point x="1654.07" y="720.423"/>
      <point x="1571.08" y="790"/>
      <point x="1476" y="790" type="qcurve" smooth="yes"/>
      <point x="1111" y="790" type="line" smooth="yes"/>
      <point x="1016.67" y="790"/>
      <point x="907.074" y="712.423"/>
      <point x="895" y="643" type="qcurve" smooth="yes"/>
      <point x="874" y="524" type="line"/>
      <point x="1069" y="494" type="line"/>
      <point x="1116" y="760" type="line"/>
      <point x="1116" y="760"/>
      <point x="1116" y="760"/>
      <point x="1116" y="760" type="qcurve"/>
      <point x="1461" y="760" type="line"/>
      <point x="1461" y="760"/>
      <point x="1461" y="760"/>
      <point x="1461" y="760" type="qcurve"/>
      <point x="1413" y="485" type="line" smooth="yes"/>
      <point x="1406.96" y="451.043"/>
      <point x="1381.66" y="420.037"/>
      <point x="1356" y="414" type="qcurve" smooth="yes"/>
      <point x="925" y="319" type="line" smooth="yes"/>
      <point x="875.951" y="308.436"/>
      <point x="812.055" y="232.067"/>
      <point x="803" y="180" type="qcurve" smooth="yes"/>
    </contour>
  </outline>
  <guideline angle="90" color="0.4,0.4,0.4,1" name="halfwidth" x="910" y="0"/>
</glyph>
<glyph name="threequarters" format="2">
  <advance width="2271"/>
  <unicode hex="00BE"/>
  <outline>
    <contour>
      <point x="205" y="835" type="line"/>
      <point x="191" y="760" type="line" smooth="yes"/>
      <point x="176" y="672"/>
      <point x="275" y="614"/>
      <point x="356" y="614" type="qcurve" smooth="yes"/>
      <point x="745" y="614" type="line" smooth="yes"/>
      <point x="840" y="614"/>
      <point x="961" y="673"/>
      <point x="981" y="788" type="qcurve" smooth="yes"/>
      <point x="995" y="865" type="line" smooth="yes"/>
      <point x="1009" y="949"/>
      <point x="939" y="1016"/>
      <point x="873" y="1023" type="qcurve"/>
      <point x="965" y="1037"/>
      <point x="1034" y="1108"/>
      <point x="1046" y="1177" type="qcurve" smooth="yes"/>
      <point x="1057" y="1237" type="line" smooth="yes"/>
      <point x="1071" y="1315"/>
      <point x="994" y="1410"/>
      <point x="881" y="1410" type="qcurve" smooth="yes"/>
      <point x="502" y="1410" type="line" smooth="yes"/>
      <point x="460" y="1410"/>
      <point x="390" y="1403"/>
      <point x="334" y="1376"/>
      <point x="297" y="1320"/>
      <point x="288" y="1271" type="qcurve" smooth="yes"/>
      <point x="272" y="1179" type="line"/>
      <point x="467" y="1152" type="line"/>
      <point x="508" y="1389" type="line"/>
      <point x="508" y="1389"/>
      <point x="508" y="1389"/>
      <point x="508" y="1389" type="qcurve"/>
      <point x="831" y="1389" type="line" smooth="yes"/>
      <point x="855" y="1389"/>
      <point x="878" y="1354"/>
      <point x="873" y="1328" type="qcurve" smooth="yes"/>
      <point x="830" y="1085" type="line" smooth="yes"/>
      <point x="825" y="1059"/>
      <point x="800" y="1028"/>
      <point x="775" y="1028" type="qcurve" smooth="yes"/>
      <point x="543" y="1028" type="line"/>
      <point x="540" y="1008" type="line"/>
      <point x="775" y="1008" type="line" smooth="yes"/>
      <point x="797" y="1008"/>
      <point x="815" y="974"/>
      <point x="810" y="950" type="qcurve" smooth="yes"/>
      <point x="766" y="700" type="line" smooth="yes"/>
      <point x="761" y="671"/>
      <point x="727" y="635"/>
      <point x="698" y="635" type="qcurve" smooth="yes"/>
      <point x="370" y="635" type="line"/>
      <point x="370" y="635"/>
      <point x="370" y="635"/>
      <point x="370" y="635" type="qcurve"/>
      <point x="409" y="862" type="line"/>
    </contour>
    <contour>
      <point x="1767" y="1400" type="line"/>
      <point x="598" y="0" type="line"/>
      <point x="634" y="0" type="line"/>
      <point x="1803" y="1400" type="line"/>
    </contour>
    <contour>
      <point x="1185" y="214" type="line"/>
      <point x="1709" y="214" type="line"/>
      <point x="1672" y="0" type="line"/>
      <point x="1872" y="0" type="line"/>
      <point x="1909" y="214" type="line"/>
      <point x="2074" y="214" type="line"/>
      <point x="2080" y="244" type="line"/>
      <point x="1915" y="244" type="line"/>
      <point x="2009" y="784" type="line"/>
      <point x="1940" y="784" type="line"/>
      <point x="1189" y="237" type="line"/>
    </contour>
    <contour>
      <point x="1249" y="244" type="line"/>
      <point x="1783" y="633" type="line"/>
      <point x="1715" y="244" type="line"/>
    </contour>
  </outline>
</glyph>
<glyph name="questiondown" format="2">
  <advance width="1297"/>
  <unicode hex="00BF"/>
  <outline>
    <contour>
      <point x="924" y="544" type="line"/>
      <point x="884" y="544" type="line"/>
      <point x="860" y="404" type="line" smooth="yes"/>
      <point x="849" y="341"/>
      <point x="757" y="272"/>
      <point x="680" y="272" type="qcurve" smooth="yes"/>
      <point x="557" y="272" type="line" smooth="yes"/>
      <point x="429" y="272"/>
      <point x="308" y="163"/>
      <point x="296" y="94" type="qcurve" smooth="yes"/>
      <point x="251" y="-160" type="line" smooth="yes"/>
      <point x="228" y="-294"/>
      <point x="314" y="-408"/>
      <point x="456" y="-408" type="qcurve" smooth="yes"/>
      <point x="970" y="-408" type="line" smooth="yes"/>
      <point x="1110" y="-408"/>
      <point x="1238" y="-293"/>
      <point x="1261" y="-160" type="qcurve" smooth="yes"/>
      <point x="1285" y="-26" type="line"/>
      <point x="1038" y="26" type="line"/>
      <point x="968" y="-372" type="line"/>
      <point x="968" y="-372"/>
      <point x="968" y="-372"/>
      <point x="968" y="-372" type="qcurve"/>
      <point x="458" y="-372" type="line"/>
      <point x="458" y="-372"/>
      <point x="458" y="-372"/>
      <point x="458" y="-372" type="qcurve"/>
      <point x="565" y="236" type="line"/>
      <point x="565" y="236"/>
      <point x="565" y="236"/>
      <point x="565" y="236" type="qcurve"/>
      <point x="674" y="236" type="line" smooth="yes"/>
      <point x="770" y="236"/>
      <point x="886" y="326"/>
      <point x="900" y="404" type="qcurve" smooth="yes"/>
    </contour>
    <contour>
      <point x="1125" y="895" type="line" smooth="yes"/>
      <point x="1140" y="983"/>
      <point x="1114" y="1014"/>
      <point x="1026" y="1014" type="qcurve" smooth="yes"/>
      <point x="950" y="1014" type="line" smooth="yes"/>
      <point x="862" y="1014"/>
      <point x="825" y="983"/>
      <point x="810" y="895" type="qcurve" smooth="yes"/>
      <point x="796" y="816" type="line" smooth="yes"/>
      <point x="781" y="729"/>
      <point x="807" y="699"/>
      <point x="895" y="699" type="qcurve" smooth="yes"/>
      <point x="971" y="699" type="line" smooth="yes"/>
      <point x="1059" y="699"/>
      <point x="1096" y="730"/>
      <point x="1111" y="816" type="qcurve" smooth="yes"/>
    </contour>
  </outline>
</glyph>
<glyph name="Aacute" format="2">
  <advance width="1582"/>
  <unicode hex="00C1"/>
  <anchor x="943" y="1550" name="top"/>
  <anchor x="646" y="-150" name="bottom"/>
  <anchor x="1153" y="0" name="ogonek_in"/>
  <anchor x="801" y="1485" name="topright"/>
  <outline>
    <contour>
      <point x="-120" y="0" type="line"/>
      <point x="-75" y="0" type="line"/>
      <point x="173" y="362" type="line"/>
      <point x="1032" y="362" type="line"/>
      <point x="1153" y="0" type="line"/>
      <point x="1462" y="0" type="line"/>
      <point x="976" y="1400" type="line"/>
      <point x="840" y="1400" type="line"/>
    </contour>
    <contour>
      <point x="197" y="398" type="line"/>
      <point x="750" y="1203" type="line"/>
      <point x="1019" y="398" type="line"/>
    </contour>
    <contour>
      <point x="747" y="1485" type="line"/>
      <point x="815" y="1485" type="line"/>
      <point x="1377" y="1800" type="line"/>
      <point x="1046" y="1800" type="line"/>
    </contour>
  </outline>
</glyph>
<glyph name="Atilde" format="2">
  <advance width="1582"/>
  <unicode hex="00C3"/>
  <anchor x="991" y="1821" name="top"/>
  <anchor x="646" y="-150" name="bottom"/>
  <anchor x="1153" y="0" name="ogonek_in"/>
  <outline>
    <contour>
      <point x="-120" y="0" type="line"/>
      <point x="-75" y="0" type="line"/>
      <point x="173" y="362" type="line"/>
      <point x="1032" y="362" type="line"/>
      <point x="1153" y="0" type="line"/>
      <point x="1462" y="0" type="line"/>
      <point x="976" y="1400" type="line"/>
      <point x="840" y="1400" type="line"/>
    </contour>
    <contour>
      <point x="197" y="398" type="line"/>
      <point x="750" y="1203" type="line"/>
      <point x="1019" y="398" type="line"/>
    </contour>
    <contour>
      <point x="591" y="1540" type="qcurve"/>
      <point x="620" y="1535" type="line"/>
      <point x="640" y="1588"/>
      <point x="707" y="1624"/>
      <point x="739" y="1624" type="qcurve" smooth="yes"/>
      <point x="779" y="1624"/>
      <point x="860" y="1592"/>
      <point x="946" y="1553"/>
      <point x="1040" y="1520"/>
      <point x="1094" y="1520" type="qcurve" smooth="yes"/>
      <point x="1132" y="1520"/>
      <point x="1196" y="1544"/>
      <point x="1253" y="1602"/>
      <point x="1306" y="1698"/>
      <point x="1332" y="1771" type="qcurve"/>
      <point x="1303" y="1776" type="line"/>
      <point x="1283" y="1723"/>
      <point x="1216" y="1687"/>
      <point x="1184" y="1687" type="qcurve" smooth="yes"/>
      <point x="1144" y="1687"/>
      <point x="1063" y="1720"/>
      <point x="978" y="1759"/>
      <point x="884" y="1791"/>
      <point x="830" y="1791" type="qcurve" smooth="yes"/>
      <point x="792" y="1791"/>
      <point x="727" y="1767"/>
      <point x="670" y="1708"/>
      <point x="617" y="1612"/>
    </contour>
  </outline>
</glyph>
<glyph name="Adieresis" format="2">
  <advance width="1582"/>
  <unicode hex="00C4"/>
  <anchor x="993" y="1830" name="top"/>
  <anchor x="646" y="-150" name="bottom"/>
  <anchor x="1153" y="0" name="ogonek_in"/>
  <outline>
    <contour>
      <point x="-120" y="0" type="line"/>
      <point x="-75" y="0" type="line"/>
      <point x="173" y="362" type="line"/>
      <point x="1032" y="362" type="line"/>
      <point x="1153" y="0" type="line"/>
      <point x="1462" y="0" type="line"/>
      <point x="976" y="1400" type="line"/>
      <point x="840" y="1400" type="line"/>
    </contour>
    <contour>
      <point x="197" y="398" type="line"/>
      <point x="750" y="1203" type="line"/>
      <point x="1019" y="398" type="line"/>
    </contour>
    <contour>
      <point x="691" y="1540" type="qcurve" smooth="yes"/>
      <point x="761" y="1540" type="line" smooth="yes"/>
      <point x="827" y="1540"/>
      <point x="856" y="1564"/>
      <point x="867" y="1630" type="qcurve" smooth="yes"/>
      <point x="880" y="1702" type="line" smooth="yes"/>
      <point x="891" y="1767"/>
      <point x="872" y="1790"/>
      <point x="806" y="1790" type="qcurve" smooth="yes"/>
      <point x="736" y="1790" type="line" smooth="yes"/>
      <point x="670" y="1790"/>
      <point x="641" y="1767"/>
      <point x="630" y="1702" type="qcurve" smooth="yes"/>
      <point x="617" y="1630" type="line" smooth="yes"/>
      <point x="606" y="1564"/>
      <point x="625" y="1540"/>
    </contour>
    <contour>
      <point x="1121" y="1540" type="qcurve" smooth="yes"/>
      <point x="1191" y="1540" type="line" smooth="yes"/>
      <point x="1257" y="1540"/>
      <point x="1286" y="1564"/>
      <point x="1297" y="1630" type="qcurve" smooth="yes"/>
      <point x="1310" y="1702" type="line" smooth="yes"/>
      <point x="1321" y="1767"/>
      <point x="1302" y="1790"/>
      <point x="1236" y="1790" type="qcurve" smooth="yes"/>
      <point x="1166" y="1790" type="line" smooth="yes"/>
      <point x="1100" y="1790"/>
      <point x="1071" y="1767"/>
      <point x="1060" y="1702" type="qcurve" smooth="yes"/>
      <point x="1047" y="1630" type="line" smooth="yes"/>
      <point x="1036" y="1564"/>
      <point x="1055" y="1540"/>
    </contour>
  </outline>
</glyph>
<glyph name="Aring" format="2">
  <advance width="1582"/>
  <unicode hex="00C5"/>
  <anchor x="1011" y="1940" name="top"/>
  <anchor x="646" y="-150" name="bottom"/>
  <anchor x="1153" y="0" name="ogonek_in"/>
  <outline>
    <contour>
      <point x="-120" y="0" type="line"/>
      <point x="-75" y="0" type="line"/>
      <point x="173" y="362" type="line"/>
      <point x="1032" y="362" type="line"/>
      <point x="1153" y="0" type="line"/>
      <point x="1462" y="0" type="line"/>
      <point x="976" y="1400" type="line"/>
      <point x="840" y="1400" type="line"/>
    </contour>
    <contour>
      <point x="197" y="398" type="line"/>
      <point x="750" y="1203" type="line"/>
      <point x="1019" y="398" type="line"/>
    </contour>
    <contour>
      <point x="934" y="1503" type="qcurve" smooth="yes"/>
      <point x="1002" y="1503"/>
      <point x="1088" y="1516"/>
      <point x="1140" y="1552"/>
      <point x="1166" y="1616"/>
      <point x="1175" y="1667" type="qcurve" smooth="yes"/>
      <point x="1184" y="1718"/>
      <point x="1180" y="1782"/>
      <point x="1141" y="1818"/>
      <point x="1060" y="1830"/>
      <point x="992" y="1830" type="qcurve" smooth="yes"/>
      <point x="924" y="1830"/>
      <point x="838" y="1818"/>
      <point x="786" y="1782"/>
      <point x="760" y="1718"/>
      <point x="751" y="1667" type="qcurve" smooth="yes"/>
      <point x="742" y="1616"/>
      <point x="746" y="1552"/>
      <point x="785" y="1516"/>
      <point x="866" y="1503"/>
    </contour>
    <contour>
      <point x="939" y="1531" type="qcurve" smooth="yes"/>
      <point x="891" y="1531"/>
      <point x="875" y="1576"/>
      <point x="891" y="1667" type="qcurve" smooth="yes"/>
      <point x="907" y="1756"/>
      <point x="939" y="1801"/>
      <point x="987" y="1801" type="qcurve" smooth="yes"/>
      <point x="1037" y="1801"/>
      <point x="1051" y="1757"/>
      <point x="1035" y="1667" type="qcurve" smooth="yes"/>
      <point x="1019" y="1576"/>
      <point x="987" y="1531"/>
    </contour>
  </outline>
</glyph>
<glyph name="Ccedilla" format="2">
  <advance width="1651"/>
  <unicode hex="00C7"/>
  <anchor x="996" y="1560" name="top"/>
  <anchor x="726" y="-160" name="bottom"/>
  <anchor x="726" y="0" name="ogrev"/>
  <outline>
    <contour>
      <point x="271" y="1136" type="qcurve" smooth="yes"/>
      <point x="121" y="276" type="line" smooth="yes"/>
      <point x="93.8344" y="120.552"/>
      <point x="225.859" y="-10"/>
      <point x="413" y="-10" type="qcurve" smooth="yes"/>
      <point x="1039" y="-10" type="line" smooth="yes"/>
      <point x="1226.14" y="-10"/>
      <point x="1405.83" y="120.552"/>
      <point x="1433" y="276" type="qcurve" smooth="yes"/>
      <point x="1469" y="482" type="line"/>
      <point x="1214" y="534" type="line"/>
      <point x="1126" y="26" type="line"/>
      <point x="1126" y="26"/>
      <point x="1126" y="26"/>
      <point x="1126" y="26" type="qcurve"/>
      <point x="342" y="26" type="line"/>
      <point x="342" y="26"/>
      <point x="342" y="26"/>
      <point x="342" y="26" type="qcurve"/>
      <point x="577" y="1374" type="line"/>
      <point x="577" y="1374"/>
      <point x="577" y="1374"/>
      <point x="577" y="1374" type="qcurve"/>
      <point x="1353" y="1374" type="line"/>
      <point x="1353" y="1374"/>
      <point x="1353" y="1374"/>
      <point x="1353" y="1374" type="qcurve"/>
      <point x="1269" y="896" type="line"/>
      <point x="1542" y="944" type="line"/>
      <point x="1575" y="1136" type="line" smooth="yes"/>
      <point x="1600.5" y="1283"/>
      <point x="1463.5" y="1410"/>
      <point x="1279" y="1410" type="qcurve" smooth="yes"/>
      <point x="661" y="1410" type="line" smooth="yes"/>
      <point x="478" y="1410"/>
      <point x="296.5" y="1283"/>
    </contour>
    <contour>
      <point x="689" y="-446" type="qcurve" smooth="yes"/>
      <point x="781.816" y="-446"/>
      <point x="888" y="-353.742"/>
      <point x="888" y="-273" type="qcurve" smooth="yes"/>
      <point x="888" y="-190.749"/>
      <point x="783.908" y="-108.472"/>
      <point x="676" y="-113" type="qcurve"/>
      <point x="774" y="5" type="line"/>
      <point x="737" y="5" type="line"/>
      <point x="614" y="-144" type="line"/>
      <point x="621.546" y="-142.491"/>
      <point x="637.209" y="-141"/>
      <point x="644" y="-141" type="qcurve" smooth="yes"/>
      <point x="680.975" y="-141"/>
      <point x="716" y="-187.706"/>
      <point x="716" y="-236" type="qcurve" smooth="yes"/>
      <point x="716" y="-303.914"/>
      <point x="655.748" y="-406"/>
      <point x="615" y="-406" type="qcurve" smooth="yes"/>
      <point x="596.135" y="-406"/>
      <point x="553.62" y="-382.129"/>
      <point x="534" y="-361" type="qcurve"/>
      <point x="517" y="-379" type="line"/>
      <point x="548.693" y="-412.957"/>
      <point x="634.669" y="-446"/>
    </contour>
  </outline>
  <guideline angle="0" x="0" y="15"/>
</glyph>
<glyph name="Edieresis" format="2">
  <advance width="1488"/>
  <unicode hex="00CB"/>
  <anchor x="1050" y="1830" name="top"/>
  <anchor x="703" y="-150" name="bottom"/>
  <anchor x="1156" y="0" name="ogonek"/>
  <outline>
    <contour>
      <point x="103" y="0" type="line"/>
      <point x="1361" y="0" type="line"/>
      <point x="1367" y="36" type="line"/>
      <point x="373" y="36" type="line"/>
      <point x="489" y="700" type="line"/>
      <point x="1077" y="700" type="line"/>
      <point x="1083" y="736" type="line"/>
      <point x="495" y="736" type="line"/>
      <point x="605" y="1364" type="line"/>
      <point x="1579" y="1364" type="line"/>
      <point x="1585" y="1400" type="line"/>
      <point x="347" y="1400" type="line"/>
    </contour>
    <contour>
      <point x="748" y="1540" type="qcurve" smooth="yes"/>
      <point x="818" y="1540" type="line" smooth="yes"/>
      <point x="884" y="1540"/>
      <point x="913" y="1564"/>
      <point x="924" y="1630" type="qcurve" smooth="yes"/>
      <point x="937" y="1702" type="line" smooth="yes"/>
      <point x="948" y="1767"/>
      <point x="929" y="1790"/>
      <point x="863" y="1790" type="qcurve" smooth="yes"/>
      <point x="793" y="1790" type="line" smooth="yes"/>
      <point x="727" y="1790"/>
      <point x="698" y="1767"/>
      <point x="687" y="1702" type="qcurve" smooth="yes"/>
      <point x="674" y="1630" type="line" smooth="yes"/>
      <point x="663" y="1564"/>
      <point x="682" y="1540"/>
    </contour>
    <contour>
      <point x="1178" y="1540" type="qcurve" smooth="yes"/>
      <point x="1248" y="1540" type="line" smooth="yes"/>
      <point x="1314" y="1540"/>
      <point x="1343" y="1564"/>
      <point x="1354" y="1630" type="qcurve" smooth="yes"/>
      <point x="1367" y="1702" type="line" smooth="yes"/>
      <point x="1378" y="1767"/>
      <point x="1359" y="1790"/>
      <point x="1293" y="1790" type="qcurve" smooth="yes"/>
      <point x="1223" y="1790" type="line" smooth="yes"/>
      <point x="1157" y="1790"/>
      <point x="1128" y="1767"/>
      <point x="1117" y="1702" type="qcurve" smooth="yes"/>
      <point x="1104" y="1630" type="line" smooth="yes"/>
      <point x="1093" y="1564"/>
      <point x="1112" y="1540"/>
    </contour>
  </outline>
  <guideline angle="90" x="-127" y="0"/>
</glyph>
<glyph name="Igrave" format="2">
  <advance width="707"/>
  <unicode hex="00CC"/>
  <anchor x="506" y="1550" name="top"/>
  <anchor x="209" y="-150" name="bottom"/>
  <anchor x="148" y="0" name="ogonek"/>
  <anchor x="626" y="1485" name="topright"/>
  <outline>
    <contour>
      <point x="103" y="0" type="line"/>
      <point x="367" y="0" type="line"/>
      <point x="611" y="1400" type="line"/>
      <point x="347" y="1400" type="line"/>
    </contour>
    <contour>
      <point x="612" y="1485" type="line"/>
      <point x="672" y="1485" type="line"/>
      <point x="438" y="1800" type="line"/>
      <point x="161" y="1800" type="line"/>
    </contour>
  </outline>
</glyph>
<glyph name="Iacute" format="2">
  <advance width="707"/>
  <unicode hex="00CD"/>
  <anchor x="506" y="1550" name="top"/>
  <anchor x="209" y="-150" name="bottom"/>
  <anchor x="148" y="0" name="ogonek"/>
  <anchor x="364" y="1485" name="topright"/>
  <outline>
    <contour>
      <point x="103" y="0" type="line"/>
      <point x="367" y="0" type="line"/>
      <point x="611" y="1400" type="line"/>
      <point x="347" y="1400" type="line"/>
    </contour>
    <contour>
      <point x="310" y="1485" type="line"/>
      <point x="378" y="1485" type="line"/>
      <point x="940" y="1800" type="line"/>
      <point x="609" y="1800" type="line"/>
    </contour>
  </outline>
</glyph>
<glyph name="Icircumflex" format="2">
  <advance width="704"/>
  <unicode hex="00CE"/>
  <anchor x="562" y="1880" name="top"/>
  <anchor x="206" y="-150" name="bottom"/>
  <anchor x="145" y="0" name="ogonek"/>
  <anchor x="921" y="1585" name="topright"/>
  <outline>
    <contour>
      <point x="103" y="0" type="line"/>
      <point x="367" y="0" type="line"/>
      <point x="611" y="1400" type="line"/>
      <point x="347" y="1400" type="line"/>
    </contour>
    <contour>
      <point x="168" y="1485" type="line"/>
      <point x="228" y="1485" type="line"/>
      <point x="486" y="1723" type="line"/>
      <point x="654" y="1485" type="line"/>
      <point x="903" y="1485" type="line"/>
      <point x="656" y="1800" type="line"/>
      <point x="515" y="1800" type="line"/>
    </contour>
  </outline>
</glyph>
<glyph name="Idieresis" format="2">
  <advance width="704"/>
  <unicode hex="00CF"/>
  <anchor x="553" y="1830" name="top"/>
  <anchor x="206" y="-150" name="bottom"/>
  <anchor x="145" y="0" name="ogonek"/>
  <outline>
    <contour>
      <point x="103" y="0" type="line"/>
      <point x="367" y="0" type="line"/>
      <point x="611" y="1400" type="line"/>
      <point x="347" y="1400" type="line"/>
    </contour>
    <contour>
      <point x="251" y="1540" type="qcurve" smooth="yes"/>
      <point x="321" y="1540" type="line" smooth="yes"/>
      <point x="387" y="1540"/>
      <point x="416" y="1564"/>
      <point x="427" y="1630" type="qcurve" smooth="yes"/>
      <point x="440" y="1702" type="line" smooth="yes"/>
      <point x="451" y="1767"/>
      <point x="432" y="1790"/>
      <point x="366" y="1790" type="qcurve" smooth="yes"/>
      <point x="296" y="1790" type="line" smooth="yes"/>
      <point x="230" y="1790"/>
      <point x="201" y="1767"/>
      <point x="190" y="1702" type="qcurve" smooth="yes"/>
      <point x="177" y="1630" type="line" smooth="yes"/>
      <point x="166" y="1564"/>
      <point x="185" y="1540"/>
    </contour>
    <contour>
      <point x="681" y="1540" type="qcurve" smooth="yes"/>
      <point x="751" y="1540" type="line" smooth="yes"/>
      <point x="817" y="1540"/>
      <point x="846" y="1564"/>
      <point x="857" y="1630" type="qcurve" smooth="yes"/>
      <point x="870" y="1702" type="line" smooth="yes"/>
      <point x="881" y="1767"/>
      <point x="862" y="1790"/>
      <point x="796" y="1790" type="qcurve" smooth="yes"/>
      <point x="726" y="1790" type="line" smooth="yes"/>
      <point x="660" y="1790"/>
      <point x="631" y="1767"/>
      <point x="620" y="1702" type="qcurve" smooth="yes"/>
      <point x="607" y="1630" type="line" smooth="yes"/>
      <point x="596" y="1564"/>
      <point x="615" y="1540"/>
    </contour>
  </outline>
</glyph>
<glyph name="Eth" format="2">
  <advance width="1843"/>
  <unicode hex="00D0"/>
  <anchor x="829" y="1550" name="top"/>
  <anchor x="829" y="-150" name="bottom"/>
  <outline>
    <contour>
      <point x="103" y="0" type="line"/>
      <point x="882" y="0" type="line" smooth="yes"/>
      <point x="1025" y="0"/>
      <point x="1285" y="62"/>
      <point x="1495" y="212"/>
      <point x="1644" y="462"/>
      <point x="1677" y="650" type="qcurve" smooth="yes"/>
      <point x="1708" y="827"/>
      <point x="1653" y="1106"/>
      <point x="1503" y="1298"/>
      <point x="1272" y="1400"/>
      <point x="1126" y="1400" type="qcurve" smooth="yes"/>
      <point x="347" y="1400" type="line"/>
      <point x="228" y="716" type="line"/>
      <point x="110" y="716" type="line"/>
      <point x="104" y="684" type="line"/>
      <point x="222" y="684" type="line"/>
    </contour>
    <contour>
      <point x="373" y="36" type="line"/>
      <point x="486" y="684" type="line"/>
      <point x="824" y="684" type="line"/>
      <point x="830" y="716" type="line"/>
      <point x="492" y="716" type="line"/>
      <point x="605" y="1364" type="line"/>
      <point x="1077" y="1364" type="line" smooth="yes"/>
      <point x="1187" y="1364"/>
      <point x="1345" y="1295"/>
      <point x="1434" y="1141"/>
      <point x="1451" y="894"/>
      <point x="1419" y="715" type="qcurve" smooth="yes"/>
      <point x="1387" y="528"/>
      <point x="1283" y="269"/>
      <point x="1140" y="108"/>
      <point x="957" y="36"/>
      <point x="845" y="36" type="qcurve" smooth="yes"/>
    </contour>
  </outline>
</glyph>
<glyph name="Ntilde" format="2">
  <advance width="1681"/>
  <unicode hex="00D1"/>
  <anchor x="1041" y="1821" name="top"/>
  <anchor x="696" y="-150" name="bottom"/>
  <outline>
    <contour>
      <point x="103" y="0" type="line"/>
      <point x="139" y="0" type="line"/>
      <point x="333" y="1110" type="line"/>
      <point x="1233" y="0" type="line"/>
      <point x="1341" y="0" type="line"/>
      <point x="1585" y="1400" type="line"/>
      <point x="1549" y="1400" type="line"/>
      <point x="1355" y="284" type="line"/>
      <point x="450" y="1400" type="line"/>
      <point x="347" y="1400" type="line"/>
    </contour>
    <contour>
      <point x="641" y="1540" type="qcurve"/>
      <point x="670" y="1535" type="line"/>
      <point x="690.374" y="1587.82"/>
      <point x="756.552" y="1624"/>
      <point x="789" y="1624" type="qcurve" smooth="yes"/>
      <point x="829.125" y="1624"/>
      <point x="909.875" y="1591.5"/>
      <point x="996.125" y="1552.5"/>
      <point x="1090.38" y="1520"/>
      <point x="1144" y="1520" type="qcurve" smooth="yes"/>
      <point x="1181.88" y="1520"/>
      <point x="1246.03" y="1543.88"/>
      <point x="1303.22" y="1601.62"/>
      <point x="1355.75" y="1698.25"/>
      <point x="1382" y="1771" type="qcurve"/>
      <point x="1353" y="1776" type="line"/>
      <point x="1333.38" y="1723.18"/>
      <point x="1266.45" y="1687"/>
      <point x="1234" y="1687" type="qcurve" smooth="yes"/>
      <point x="1193.88" y="1687"/>
      <point x="1113.44" y="1719.5"/>
      <point x="1027.56" y="1758.5"/>
      <point x="933.625" y="1791"/>
      <point x="880" y="1791" type="qcurve" smooth="yes"/>
      <point x="842.125" y="1791"/>
      <point x="777.375" y="1766.56"/>
      <point x="719.625" y="1708.44"/>
      <point x="666.875" y="1612"/>
    </contour>
  </outline>
</glyph>
<glyph name="Ograve" format="2">
  <advance width="1835"/>
  <unicode hex="00D2"/>
  <anchor x="1070" y="1560" name="top"/>
  <anchor x="796" y="-160" name="bottom"/>
  <anchor x="1723" y="1136" name="horn"/>
  <anchor x="815" y="0" name="ogonek"/>
  <anchor x="1190" y="1495" name="topright"/>
  <outline>
    <contour>
      <point x="271" y="1136" type="qcurve" smooth="yes"/>
      <point x="121" y="276" type="line" smooth="yes"/>
      <point x="90.0614" y="99.4236"/>
      <point x="251.516" y="-10"/>
      <point x="413" y="-10" type="qcurve" smooth="yes"/>
      <point x="1179" y="-10" type="line" smooth="yes"/>
      <point x="1340.48" y="-10"/>
      <point x="1542.06" y="97.9144"/>
      <point x="1573" y="276" type="qcurve" smooth="yes"/>
      <point x="1723" y="1136" type="line" smooth="yes"/>
      <point x="1753" y="1307"/>
      <point x="1578.5" y="1410"/>
      <point x="1427" y="1410" type="qcurve" smooth="yes"/>
      <point x="661" y="1410" type="line" smooth="yes"/>
      <point x="509.5" y="1410"/>
      <point x="301" y="1307"/>
    </contour>
    <contour>
      <point x="577" y="1374" type="line"/>
      <point x="577" y="1374"/>
      <point x="577" y="1374"/>
      <point x="577" y="1374" type="qcurve"/>
      <point x="1501" y="1374" type="line"/>
      <point x="1501" y="1374"/>
      <point x="1501" y="1374"/>
      <point x="1501" y="1374" type="qcurve"/>
      <point x="1266" y="26" type="line"/>
      <point x="1266" y="26"/>
      <point x="1266" y="26"/>
      <point x="1266" y="26" type="qcurve"/>
      <point x="342" y="26" type="line"/>
      <point x="342" y="26"/>
      <point x="342" y="26"/>
      <point x="342" y="26" type="qcurve"/>
    </contour>
    <contour>
      <point x="1176" y="1495" type="line"/>
      <point x="1236" y="1495" type="line"/>
      <point x="1002" y="1810" type="line"/>
      <point x="725" y="1810" type="line"/>
    </contour>
  </outline>
</glyph>
<glyph name="Ocircumflex" format="2">
  <advance width="1832"/>
  <unicode hex="00D4"/>
  <anchor x="1125" y="1890" name="top"/>
  <anchor x="767" y="-160" name="bottom"/>
  <anchor x="1720" y="1136" name="horn"/>
  <anchor x="812" y="0" name="ogonek"/>
  <anchor x="1484" y="1595" name="topright"/>
  <outline>
    <contour>
      <point x="271" y="1136" type="qcurve" smooth="yes"/>
      <point x="121" y="276" type="line" smooth="yes"/>
      <point x="90" y="99"/>
      <point x="252" y="-10"/>
      <point x="413" y="-10" type="qcurve" smooth="yes"/>
      <point x="1179" y="-10" type="line" smooth="yes"/>
      <point x="1340" y="-10"/>
      <point x="1542" y="98"/>
      <point x="1573" y="276" type="qcurve" smooth="yes"/>
      <point x="1723" y="1136" type="line" smooth="yes"/>
      <point x="1753" y="1307"/>
      <point x="1579" y="1410"/>
      <point x="1427" y="1410" type="qcurve" smooth="yes"/>
      <point x="661" y="1410" type="line" smooth="yes"/>
      <point x="510" y="1410"/>
      <point x="301" y="1307"/>
    </contour>
    <contour>
      <point x="577" y="1374" type="line"/>
      <point x="577" y="1374"/>
      <point x="577" y="1374"/>
      <point x="577" y="1374" type="qcurve"/>
      <point x="1501" y="1374" type="line"/>
      <point x="1501" y="1374"/>
      <point x="1501" y="1374"/>
      <point x="1501" y="1374" type="qcurve"/>
      <point x="1266" y="26" type="line"/>
      <point x="1266" y="26"/>
      <point x="1266" y="26"/>
      <point x="1266" y="26" type="qcurve"/>
      <point x="342" y="26" type="line"/>
      <point x="342" y="26"/>
      <point x="342" y="26"/>
      <point x="342" y="26" type="qcurve"/>
    </contour>
    <contour>
      <point x="731" y="1495" type="line"/>
      <point x="791" y="1495" type="line"/>
      <point x="1049" y="1733" type="line"/>
      <point x="1217" y="1495" type="line"/>
      <point x="1466" y="1495" type="line"/>
      <point x="1219" y="1810" type="line"/>
      <point x="1078" y="1810" type="line"/>
    </contour>
  </outline>
</glyph>
<glyph name="Otilde" format="2">
  <advance width="1832"/>
  <unicode hex="00D5"/>
  <anchor x="1114" y="1831" name="top"/>
  <anchor x="767" y="-160" name="bottom"/>
  <anchor x="1720" y="1136" name="horn"/>
  <anchor x="812" y="0" name="ogonek"/>
  <outline>
    <contour>
      <point x="271" y="1136" type="qcurve" smooth="yes"/>
      <point x="121" y="276" type="line" smooth="yes"/>
      <point x="90" y="99"/>
      <point x="252" y="-10"/>
      <point x="413" y="-10" type="qcurve" smooth="yes"/>
      <point x="1179" y="-10" type="line" smooth="yes"/>
      <point x="1340" y="-10"/>
      <point x="1542" y="98"/>
      <point x="1573" y="276" type="qcurve" smooth="yes"/>
      <point x="1723" y="1136" type="line" smooth="yes"/>
      <point x="1753" y="1307"/>
      <point x="1579" y="1410"/>
      <point x="1427" y="1410" type="qcurve" smooth="yes"/>
      <point x="661" y="1410" type="line" smooth="yes"/>
      <point x="510" y="1410"/>
      <point x="301" y="1307"/>
    </contour>
    <contour>
      <point x="577" y="1374" type="line"/>
      <point x="577" y="1374"/>
      <point x="577" y="1374"/>
      <point x="577" y="1374" type="qcurve"/>
      <point x="1501" y="1374" type="line"/>
      <point x="1501" y="1374"/>
      <point x="1501" y="1374"/>
      <point x="1501" y="1374" type="qcurve"/>
      <point x="1266" y="26" type="line"/>
      <point x="1266" y="26"/>
      <point x="1266" y="26"/>
      <point x="1266" y="26" type="qcurve"/>
      <point x="342" y="26" type="line"/>
      <point x="342" y="26"/>
      <point x="342" y="26"/>
      <point x="342" y="26" type="qcurve"/>
    </contour>
    <contour>
      <point x="714" y="1550" type="qcurve"/>
      <point x="743" y="1545" type="line"/>
      <point x="763" y="1598"/>
      <point x="830" y="1634"/>
      <point x="862" y="1634" type="qcurve" smooth="yes"/>
      <point x="902" y="1634"/>
      <point x="983" y="1602"/>
      <point x="1069" y="1563"/>
      <point x="1163" y="1530"/>
      <point x="1217" y="1530" type="qcurve" smooth="yes"/>
      <point x="1255" y="1530"/>
      <point x="1319" y="1554"/>
      <point x="1376" y="1612"/>
      <point x="1429" y="1708"/>
      <point x="1455" y="1781" type="qcurve"/>
      <point x="1426" y="1786" type="line"/>
      <point x="1406" y="1733"/>
      <point x="1339" y="1697"/>
      <point x="1307" y="1697" type="qcurve" smooth="yes"/>
      <point x="1267" y="1697"/>
      <point x="1186" y="1730"/>
      <point x="1101" y="1769"/>
      <point x="1007" y="1801"/>
      <point x="953" y="1801" type="qcurve" smooth="yes"/>
      <point x="915" y="1801"/>
      <point x="850" y="1777"/>
      <point x="793" y="1718"/>
      <point x="740" y="1622"/>
    </contour>
  </outline>
</glyph>
<glyph name="Odieresis" format="2">
  <advance width="1832"/>
  <unicode hex="00D6"/>
  <anchor x="1116" y="1840" name="top"/>
  <anchor x="767" y="-160" name="bottom"/>
  <anchor x="1720" y="1136" name="horn"/>
  <anchor x="812" y="0" name="ogonek"/>
  <outline>
    <contour>
      <point x="271" y="1136" type="qcurve" smooth="yes"/>
      <point x="121" y="276" type="line" smooth="yes"/>
      <point x="90" y="99"/>
      <point x="252" y="-10"/>
      <point x="413" y="-10" type="qcurve" smooth="yes"/>
      <point x="1179" y="-10" type="line" smooth="yes"/>
      <point x="1340" y="-10"/>
      <point x="1542" y="98"/>
      <point x="1573" y="276" type="qcurve" smooth="yes"/>
      <point x="1723" y="1136" type="line" smooth="yes"/>
      <point x="1753" y="1307"/>
      <point x="1579" y="1410"/>
      <point x="1427" y="1410" type="qcurve" smooth="yes"/>
      <point x="661" y="1410" type="line" smooth="yes"/>
      <point x="510" y="1410"/>
      <point x="301" y="1307"/>
    </contour>
    <contour>
      <point x="577" y="1374" type="line"/>
      <point x="577" y="1374"/>
      <point x="577" y="1374"/>
      <point x="577" y="1374" type="qcurve"/>
      <point x="1501" y="1374" type="line"/>
      <point x="1501" y="1374"/>
      <point x="1501" y="1374"/>
      <point x="1501" y="1374" type="qcurve"/>
      <point x="1266" y="26" type="line"/>
      <point x="1266" y="26"/>
      <point x="1266" y="26"/>
      <point x="1266" y="26" type="qcurve"/>
      <point x="342" y="26" type="line"/>
      <point x="342" y="26"/>
      <point x="342" y="26"/>
      <point x="342" y="26" type="qcurve"/>
    </contour>
    <contour>
      <point x="814" y="1550" type="qcurve" smooth="yes"/>
      <point x="884" y="1550" type="line" smooth="yes"/>
      <point x="950" y="1550"/>
      <point x="979" y="1574"/>
      <point x="990" y="1640" type="qcurve" smooth="yes"/>
      <point x="1003" y="1712" type="line" smooth="yes"/>
      <point x="1014" y="1777"/>
      <point x="995" y="1800"/>
      <point x="929" y="1800" type="qcurve" smooth="yes"/>
      <point x="859" y="1800" type="line" smooth="yes"/>
      <point x="793" y="1800"/>
      <point x="764" y="1777"/>
      <point x="753" y="1712" type="qcurve" smooth="yes"/>
      <point x="740" y="1640" type="line" smooth="yes"/>
      <point x="729" y="1574"/>
      <point x="748" y="1550"/>
    </contour>
    <contour>
      <point x="1244" y="1550" type="qcurve" smooth="yes"/>
      <point x="1314" y="1550" type="line" smooth="yes"/>
      <point x="1380" y="1550"/>
      <point x="1409" y="1574"/>
      <point x="1420" y="1640" type="qcurve" smooth="yes"/>
      <point x="1433" y="1712" type="line" smooth="yes"/>
      <point x="1444" y="1777"/>
      <point x="1425" y="1800"/>
      <point x="1359" y="1800" type="qcurve" smooth="yes"/>
      <point x="1289" y="1800" type="line" smooth="yes"/>
      <point x="1223" y="1800"/>
      <point x="1194" y="1777"/>
      <point x="1183" y="1712" type="qcurve" smooth="yes"/>
      <point x="1170" y="1640" type="line" smooth="yes"/>
      <point x="1159" y="1574"/>
      <point x="1178" y="1550"/>
    </contour>
  </outline>
</glyph>
<glyph name="multiply" format="2">
  <advance width="1452"/>
  <unicode hex="00D7"/>
  <outline>
    <contour>
      <point x="214" y="139" type="line"/>
      <point x="708" y="559" type="line"/>
      <point x="1054" y="140" type="line"/>
      <point x="1083" y="165" type="line"/>
      <point x="737" y="584" type="line"/>
      <point x="1229" y="1004" type="line"/>
      <point x="1205" y="1033" type="line"/>
      <point x="713" y="613" type="line"/>
      <point x="366" y="1033" type="line"/>
      <point x="337" y="1008" type="line"/>
      <point x="684" y="588" type="line"/>
      <point x="190" y="168" type="line"/>
    </contour>
  </outline>
  <guideline angle="40.4478" color="1,0,0,1" x="128.88" y="139"/>
  <guideline angle="309.584" color="1,0,0,1" x="253.879" y="1006"/>
</glyph>
<glyph name="Ugrave" format="2">
  <advance width="1736"/>
  <unicode hex="00D9"/>
  <anchor x="1019" y="1550" name="top"/>
  <anchor x="722" y="-150" name="bottom"/>
  <anchor x="771" y="0" name="ogonek"/>
  <anchor x="1655" y="1400" name="horn"/>
  <anchor x="1139" y="1485" name="topright"/>
  <outline>
    <contour>
      <point x="332" y="1400" type="line"/>
      <point x="136" y="276" type="line" smooth="yes"/>
      <point x="120.625" y="187.5"/>
      <point x="148.406" y="76"/>
      <point x="225.844" y="13"/>
      <point x="348.5" y="-10"/>
      <point x="428" y="-10" type="qcurve" smooth="yes"/>
      <point x="1068" y="-10" type="line" smooth="yes"/>
      <point x="1228.5" y="-10"/>
      <point x="1431.25" y="99"/>
      <point x="1462" y="276" type="qcurve" smooth="yes"/>
      <point x="1658" y="1400" type="line"/>
      <point x="1394" y="1400" type="line"/>
      <point x="1155" y="26" type="line"/>
      <point x="1155" y="26"/>
      <point x="1155" y="26"/>
      <point x="1155" y="26" type="qcurve"/>
      <point x="357" y="26" type="line"/>
      <point x="357" y="26"/>
      <point x="357" y="26"/>
      <point x="357" y="26" type="qcurve"/>
      <point x="596" y="1400" type="line"/>
    </contour>
    <contour>
      <point x="1125" y="1485" type="line"/>
      <point x="1185" y="1485" type="line"/>
      <point x="951" y="1800" type="line"/>
      <point x="674" y="1800" type="line"/>
    </contour>
  </outline>
</glyph>
<glyph name="Uacute" format="2">
  <advance width="1739"/>
  <unicode hex="00DA"/>
  <anchor x="1021" y="1550" name="top"/>
  <anchor x="748" y="-150" name="bottom"/>
  <anchor x="748" y="0" name="ogonek"/>
  <anchor x="1526" y="1400" name="horn"/>
  <anchor x="879" y="1485" name="topright"/>
  <outline>
    <contour>
      <point x="332" y="1400" type="line"/>
      <point x="136" y="276" type="line" smooth="yes"/>
      <point x="121" y="188"/>
      <point x="148" y="76"/>
      <point x="226" y="13"/>
      <point x="349" y="-10"/>
      <point x="428" y="-10" type="qcurve" smooth="yes"/>
      <point x="1068" y="-10" type="line" smooth="yes"/>
      <point x="1229" y="-10"/>
      <point x="1431" y="99"/>
      <point x="1462" y="276" type="qcurve" smooth="yes"/>
      <point x="1658" y="1400" type="line"/>
      <point x="1394" y="1400" type="line"/>
      <point x="1155" y="26" type="line"/>
      <point x="1155" y="26"/>
      <point x="1155" y="26"/>
      <point x="1155" y="26" type="qcurve"/>
      <point x="357" y="26" type="line"/>
      <point x="357" y="26"/>
      <point x="357" y="26"/>
      <point x="357" y="26" type="qcurve"/>
      <point x="596" y="1400" type="line"/>
    </contour>
    <contour>
      <point x="825" y="1485" type="line"/>
      <point x="893" y="1485" type="line"/>
      <point x="1455" y="1800" type="line"/>
      <point x="1124" y="1800" type="line"/>
    </contour>
  </outline>
</glyph>
<glyph name="Ucircumflex" format="2">
  <advance width="1739"/>
  <unicode hex="00DB"/>
  <anchor x="1080" y="1880" name="top"/>
  <anchor x="748" y="-150" name="bottom"/>
  <anchor x="748" y="0" name="ogonek"/>
  <anchor x="1658" y="1400" name="horn"/>
  <anchor x="1439" y="1585" name="topright"/>
  <outline>
    <contour>
      <point x="332" y="1400" type="line"/>
      <point x="136" y="276" type="line" smooth="yes"/>
      <point x="121" y="188"/>
      <point x="148" y="76"/>
      <point x="226" y="13"/>
      <point x="349" y="-10"/>
      <point x="428" y="-10" type="qcurve" smooth="yes"/>
      <point x="1068" y="-10" type="line" smooth="yes"/>
      <point x="1229" y="-10"/>
      <point x="1431" y="99"/>
      <point x="1462" y="276" type="qcurve" smooth="yes"/>
      <point x="1658" y="1400" type="line"/>
      <point x="1394" y="1400" type="line"/>
      <point x="1155" y="26" type="line"/>
      <point x="1155" y="26"/>
      <point x="1155" y="26"/>
      <point x="1155" y="26" type="qcurve"/>
      <point x="357" y="26" type="line"/>
      <point x="357" y="26"/>
      <point x="357" y="26"/>
      <point x="357" y="26" type="qcurve"/>
      <point x="596" y="1400" type="line"/>
    </contour>
    <contour>
      <point x="686" y="1485" type="line"/>
      <point x="746" y="1485" type="line"/>
      <point x="1004" y="1723" type="line"/>
      <point x="1172" y="1485" type="line"/>
      <point x="1421" y="1485" type="line"/>
      <point x="1174" y="1800" type="line"/>
      <point x="1033" y="1800" type="line"/>
    </contour>
  </outline>
</glyph>
<glyph name="Udieresis" format="2">
  <advance width="1736"/>
  <unicode hex="00DC"/>
  <anchor x="1069" y="1830" name="top"/>
  <anchor x="722" y="-150" name="bottom"/>
  <anchor x="771" y="0" name="ogonek"/>
  <anchor x="1655" y="1400" name="horn"/>
  <outline>
    <contour>
      <point x="332" y="1400" type="line"/>
      <point x="136" y="276" type="line" smooth="yes"/>
      <point x="121" y="188"/>
      <point x="148" y="76"/>
      <point x="226" y="13"/>
      <point x="349" y="-10"/>
      <point x="428" y="-10" type="qcurve" smooth="yes"/>
      <point x="1068" y="-10" type="line" smooth="yes"/>
      <point x="1229" y="-10"/>
      <point x="1431" y="99"/>
      <point x="1462" y="276" type="qcurve" smooth="yes"/>
      <point x="1658" y="1400" type="line"/>
      <point x="1394" y="1400" type="line"/>
      <point x="1155" y="26" type="line"/>
      <point x="1155" y="26"/>
      <point x="1155" y="26"/>
      <point x="1155" y="26" type="qcurve"/>
      <point x="357" y="26" type="line"/>
      <point x="357" y="26"/>
      <point x="357" y="26"/>
      <point x="357" y="26" type="qcurve"/>
      <point x="596" y="1400" type="line"/>
    </contour>
    <contour>
      <point x="767" y="1540" type="qcurve" smooth="yes"/>
      <point x="837" y="1540" type="line" smooth="yes"/>
      <point x="903" y="1540"/>
      <point x="932" y="1564"/>
      <point x="943" y="1630" type="qcurve" smooth="yes"/>
      <point x="956" y="1702" type="line" smooth="yes"/>
      <point x="967" y="1767"/>
      <point x="948" y="1790"/>
      <point x="882" y="1790" type="qcurve" smooth="yes"/>
      <point x="812" y="1790" type="line" smooth="yes"/>
      <point x="746" y="1790"/>
      <point x="717" y="1767"/>
      <point x="706" y="1702" type="qcurve" smooth="yes"/>
      <point x="693" y="1630" type="line" smooth="yes"/>
      <point x="682" y="1564"/>
      <point x="701" y="1540"/>
    </contour>
    <contour>
      <point x="1197" y="1540" type="qcurve" smooth="yes"/>
      <point x="1267" y="1540" type="line" smooth="yes"/>
      <point x="1333" y="1540"/>
      <point x="1362" y="1564"/>
      <point x="1373" y="1630" type="qcurve" smooth="yes"/>
      <point x="1386" y="1702" type="line" smooth="yes"/>
      <point x="1397" y="1767"/>
      <point x="1378" y="1790"/>
      <point x="1312" y="1790" type="qcurve" smooth="yes"/>
      <point x="1242" y="1790" type="line" smooth="yes"/>
      <point x="1176" y="1790"/>
      <point x="1147" y="1767"/>
      <point x="1136" y="1702" type="qcurve" smooth="yes"/>
      <point x="1123" y="1630" type="line" smooth="yes"/>
      <point x="1112" y="1564"/>
      <point x="1131" y="1540"/>
    </contour>
  </outline>
</glyph>
<glyph name="Yacute" format="2">
  <advance width="1560"/>
  <unicode hex="00DD"/>
  <anchor x="934" y="1556" name="top"/>
  <anchor x="700" y="-149" name="bottom"/>
  <anchor x="792" y="1491" name="topright"/>
  <outline>
    <contour>
      <point x="568" y="1" type="line"/>
      <point x="832" y="1" type="line"/>
      <point x="946" y="656" type="line"/>
      <point x="1686" y="1400" type="line"/>
      <point x="1635" y="1400" type="line"/>
      <point x="928" y="689" type="line"/>
      <point x="441" y="1400" type="line"/>
      <point x="127" y="1400" type="line"/>
      <point x="673" y="603" type="line"/>
    </contour>
    <contour>
      <point x="738" y="1491" type="line"/>
      <point x="806" y="1491" type="line"/>
      <point x="1368" y="1806" type="line"/>
      <point x="1037" y="1806" type="line"/>
    </contour>
  </outline>
  <guideline angle="260.1" color="1,0,0,1" x="759" y="0"/>
</glyph>
<glyph name="Thorn" format="2">
  <advance width="1658"/>
  <unicode hex="00DE"/>
  <outline>
    <contour>
      <point x="81" y="0" type="line"/>
      <point x="345" y="0" type="line"/>
      <point x="402" y="325" type="line"/>
      <point x="1080" y="325" type="line" smooth="yes"/>
      <point x="1231.5" y="325"/>
      <point x="1442" y="428"/>
      <point x="1472" y="599" type="qcurve" smooth="yes"/>
      <point x="1515" y="849" type="line" smooth="yes"/>
      <point x="1545" y="1020"/>
      <point x="1370.5" y="1123"/>
      <point x="1219" y="1123" type="qcurve" smooth="yes"/>
      <point x="540" y="1123" type="line"/>
      <point x="588" y="1400" type="line"/>
      <point x="325" y="1400" type="line"/>
    </contour>
    <contour>
      <point x="408" y="361" type="line"/>
      <point x="535" y="1087" type="line"/>
      <point x="1061" y="1087" type="line" smooth="yes"/>
      <point x="1175.7" y="1087"/>
      <point x="1273.85" y="977.552"/>
      <point x="1258" y="887" type="qcurve" smooth="yes"/>
      <point x="1201" y="561" type="line" smooth="yes"/>
      <point x="1185.15" y="470.448"/>
      <point x="1048.7" y="361"/>
      <point x="934" y="361" type="qcurve" smooth="yes"/>
    </contour>
  </outline>
  <guideline angle="90" color="0.4,0.4,0.4,1" name="halfwidth" x="829" y="0"/>
</glyph>
<glyph name="germandbls" format="2">
  <advance width="1374"/>
  <unicode hex="00DF"/>
  <outline>
    <contour>
      <point x="68" y="0" type="line"/>
      <point x="316" y="0" type="line"/>
      <point x="564" y="1422" type="line"/>
      <point x="564" y="1422"/>
      <point x="564" y="1422"/>
      <point x="564" y="1422" type="qcurve"/>
      <point x="1091" y="1422" type="line"/>
      <point x="1091" y="1422"/>
      <point x="1091" y="1422"/>
      <point x="1091" y="1422" type="qcurve"/>
      <point x="1018" y="1000" type="line"/>
      <point x="1018" y="1000"/>
      <point x="1018" y="1000"/>
      <point x="1018" y="1000" type="qcurve"/>
      <point x="677" y="1000" type="line"/>
      <point x="671" y="968" type="line"/>
      <point x="1013" y="968" type="line"/>
      <point x="1013" y="968"/>
      <point x="1013" y="968"/>
      <point x="1013" y="968" type="qcurve"/>
      <point x="849" y="26" type="line"/>
      <point x="849" y="26"/>
      <point x="849" y="26"/>
      <point x="849" y="26" type="qcurve"/>
      <point x="463" y="26" type="line"/>
      <point x="457" y="-6" type="line"/>
      <point x="833" y="-6" type="line" smooth="yes"/>
      <point x="958" y="-6"/>
      <point x="1104" y="71"/>
      <point x="1127" y="198" type="qcurve" smooth="yes"/>
      <point x="1232" y="804" type="line" smooth="yes"/>
      <point x="1246" y="887"/>
      <point x="1199" y="969"/>
      <point x="1145" y="985" type="qcurve"/>
      <point x="1212" y="1006"/>
      <point x="1283" y="1101"/>
      <point x="1297" y="1182" type="qcurve" smooth="yes"/>
      <point x="1309" y="1250" type="line" smooth="yes"/>
      <point x="1328" y="1359"/>
      <point x="1226" y="1454"/>
      <point x="1089" y="1454" type="qcurve" smooth="yes"/>
      <point x="578" y="1454" type="line" smooth="yes"/>
      <point x="441" y="1454"/>
      <point x="305" y="1359"/>
      <point x="286" y="1250" type="qcurve" smooth="yes"/>
    </contour>
  </outline>
</glyph>
<glyph name="atilde" format="2">
  <advance width="1389"/>
  <unicode hex="00E3"/>
  <anchor x="821" y="1456" name="top"/>
  <anchor x="540" y="-150" name="bottom"/>
  <anchor x="868" y="0" name="ogonek"/>
  <outline>
    <contour>
      <point x="287" y="-6" type="qcurve" smooth="yes"/>
      <point x="757" y="-6" type="line" smooth="yes"/>
      <point x="784.166" y="-6"/>
      <point x="825.172" y="8.4172"/>
      <point x="838" y="22" type="qcurve"/>
      <point x="834" y="0" type="line"/>
      <point x="1082" y="0" type="line"/>
      <point x="1223" y="810" type="line" smooth="yes"/>
      <point x="1244.88" y="933.754"/>
      <point x="1122.17" y="1006"/>
      <point x="1012" y="1006" type="qcurve" smooth="yes"/>
      <point x="478" y="1006" type="line" smooth="yes"/>
      <point x="367.828" y="1006"/>
      <point x="218.883" y="933.754"/>
      <point x="197" y="810" type="qcurve" smooth="yes"/>
      <point x="188" y="754" type="line"/>
      <point x="428" y="708" type="line"/>
      <point x="474" y="974" type="line"/>
      <point x="474" y="974"/>
      <point x="474" y="974"/>
      <point x="474" y="974" type="qcurve"/>
      <point x="1004" y="974" type="line"/>
      <point x="1004" y="974"/>
      <point x="1004" y="974"/>
      <point x="1004" y="974" type="qcurve"/>
      <point x="927" y="534" type="line"/>
      <point x="421" y="534" type="line" smooth="yes"/>
      <point x="311.5" y="534"/>
      <point x="122.75" y="463"/>
      <point x="101" y="340" type="qcurve" smooth="yes"/>
      <point x="77" y="198" type="line" smooth="yes"/>
      <point x="54.362" y="71.2272"/>
      <point x="170.792" y="-6"/>
    </contour>
    <contour>
      <point x="295" y="26" type="qcurve"/>
      <point x="378" y="502" type="line"/>
      <point x="378" y="502"/>
      <point x="378" y="502"/>
      <point x="378" y="502" type="qcurve"/>
      <point x="922" y="502" type="line"/>
      <point x="839" y="26" type="line"/>
      <point x="295" y="26" type="line"/>
      <point x="295" y="26"/>
      <point x="295" y="26"/>
    </contour>
    <contour>
      <point x="437" y="1146" type="qcurve"/>
      <point x="466" y="1142" type="line"/>
      <point x="485.62" y="1194.82"/>
      <point x="552.552" y="1231"/>
      <point x="585" y="1231" type="qcurve" smooth="yes"/>
      <point x="636.375" y="1231"/>
      <point x="719.312" y="1199.44"/>
      <point x="796.188" y="1161.56"/>
      <point x="873.875" y="1130"/>
      <point x="920" y="1130" type="qcurve" smooth="yes"/>
      <point x="988.25" y="1130"/>
      <point x="1085.75" y="1238.5"/>
      <point x="1139" y="1384" type="qcurve"/>
      <point x="1109" y="1389" type="line"/>
      <point x="1089.38" y="1336.18"/>
      <point x="1023.45" y="1300"/>
      <point x="991" y="1300" type="qcurve" smooth="yes"/>
      <point x="939.625" y="1300"/>
      <point x="856.688" y="1331.56"/>
      <point x="779.812" y="1369.44"/>
      <point x="702.125" y="1401"/>
      <point x="656" y="1401" type="qcurve" smooth="yes"/>
      <point x="587.75" y="1401"/>
      <point x="488" y="1290"/>
    </contour>
  </outline>
  <guideline angle="260.1" color="1,0,0,1" x="834" y="-0"/>
  <guideline angle="90" x="238" y="0"/>
  <guideline angle="90" x="898" y="0"/>
  <guideline angle="90" x="268" y="0"/>
  <guideline angle="90" x="868" y="0"/>
</glyph>
<glyph name="aring" format="2">
  <advance width="1389"/>
  <unicode hex="00E5"/>
  <anchor x="835" y="1540" name="top"/>
  <anchor x="540" y="-150" name="bottom"/>
  <anchor x="868" y="0" name="ogonek"/>
  <outline>
    <contour>
      <point x="287" y="-6" type="qcurve" smooth="yes"/>
      <point x="757" y="-6" type="line" smooth="yes"/>
      <point x="784" y="-6"/>
      <point x="825" y="8"/>
      <point x="838" y="22" type="qcurve"/>
      <point x="834" y="0" type="line"/>
      <point x="1082" y="0" type="line"/>
      <point x="1223" y="810" type="line" smooth="yes"/>
      <point x="1245" y="934"/>
      <point x="1122" y="1006"/>
      <point x="1012" y="1006" type="qcurve" smooth="yes"/>
      <point x="478" y="1006" type="line" smooth="yes"/>
      <point x="368" y="1006"/>
      <point x="219" y="934"/>
      <point x="197" y="810" type="qcurve" smooth="yes"/>
      <point x="188" y="754" type="line"/>
      <point x="428" y="708" type="line"/>
      <point x="474" y="974" type="line"/>
      <point x="474" y="974"/>
      <point x="474" y="974"/>
      <point x="474" y="974" type="qcurve"/>
      <point x="1004" y="974" type="line"/>
      <point x="1004" y="974"/>
      <point x="1004" y="974"/>
      <point x="1004" y="974" type="qcurve"/>
      <point x="927" y="534" type="line"/>
      <point x="421" y="534" type="line" smooth="yes"/>
      <point x="312" y="534"/>
      <point x="123" y="463"/>
      <point x="101" y="340" type="qcurve" smooth="yes"/>
      <point x="77" y="198" type="line" smooth="yes"/>
      <point x="54" y="71"/>
      <point x="171" y="-6"/>
    </contour>
    <contour>
      <point x="295" y="26" type="qcurve"/>
      <point x="378" y="502" type="line"/>
      <point x="378" y="502"/>
      <point x="378" y="502"/>
      <point x="378" y="502" type="qcurve"/>
      <point x="922" y="502" type="line"/>
      <point x="839" y="26" type="line"/>
      <point x="295" y="26" type="line"/>
      <point x="295" y="26"/>
      <point x="295" y="26"/>
    </contour>
    <contour>
      <point x="758" y="1103" type="qcurve" smooth="yes"/>
      <point x="821" y="1103"/>
      <point x="902" y="1116"/>
      <point x="951" y="1152"/>
      <point x="977" y="1216"/>
      <point x="986" y="1267" type="qcurve" smooth="yes"/>
      <point x="995" y="1318"/>
      <point x="992" y="1382"/>
      <point x="955" y="1418"/>
      <point x="879" y="1430"/>
      <point x="816" y="1430" type="qcurve" smooth="yes"/>
      <point x="753" y="1430"/>
      <point x="672" y="1418"/>
      <point x="623" y="1382"/>
      <point x="597" y="1318"/>
      <point x="588" y="1267" type="qcurve" smooth="yes"/>
      <point x="579" y="1216"/>
      <point x="582" y="1152"/>
      <point x="619" y="1116"/>
      <point x="695" y="1103"/>
    </contour>
    <contour>
      <point x="763" y="1131" type="qcurve" smooth="yes"/>
      <point x="722" y="1131"/>
      <point x="699" y="1176"/>
      <point x="715" y="1267" type="qcurve" smooth="yes"/>
      <point x="731" y="1357"/>
      <point x="763" y="1401"/>
      <point x="811" y="1401" type="qcurve" smooth="yes"/>
      <point x="861" y="1401"/>
      <point x="875" y="1357"/>
      <point x="859" y="1267" type="qcurve" smooth="yes"/>
      <point x="843" y="1176"/>
      <point x="811" y="1131"/>
    </contour>
  </outline>
  <guideline angle="260.1" color="1,0,0,1" x="834" y="-0"/>
</glyph>
<glyph name="ae" format="2">
  <advance width="2141"/>
  <unicode hex="00E6"/>
  <anchor x="1167" y="1150" name="top"/>
  <anchor x="920" y="-150" name="bottom"/>
  <outline>
    <contour>
      <point x="315" y="-6" type="qcurve" smooth="yes"/>
      <point x="821" y="-6" type="line" smooth="yes"/>
      <point x="866" y="-6"/>
      <point x="933" y="27"/>
      <point x="956" y="57" type="qcurve"/>
      <point x="969" y="27"/>
      <point x="1024" y="-6"/>
      <point x="1069" y="-6" type="qcurve" smooth="yes"/>
      <point x="1569" y="-6" type="line" smooth="yes"/>
      <point x="1626" y="-6"/>
      <point x="1728" y="11"/>
      <point x="1809" y="56"/>
      <point x="1866" y="135"/>
      <point x="1877" y="198" type="qcurve" smooth="yes"/>
      <point x="1888" y="262" type="line"/>
      <point x="1648" y="308" type="line"/>
      <point x="1599" y="26" type="line"/>
      <point x="1599" y="26"/>
      <point x="1599" y="26"/>
      <point x="1599" y="26" type="qcurve"/>
      <point x="1075" y="26" type="line"/>
      <point x="1075" y="26"/>
      <point x="1075" y="26"/>
      <point x="1075" y="26" type="qcurve"/>
      <point x="1157" y="497" type="line"/>
      <point x="1937" y="497" type="line"/>
      <point x="1991" y="810" type="line" smooth="yes"/>
      <point x="2002" y="871"/>
      <point x="1971" y="947"/>
      <point x="1904" y="990"/>
      <point x="1808" y="1006"/>
      <point x="1754" y="1006" type="qcurve" smooth="yes"/>
      <point x="1246" y="1006" type="line" smooth="yes"/>
      <point x="1201" y="1006"/>
      <point x="1134" y="974"/>
      <point x="1111" y="944" type="qcurve"/>
      <point x="1098" y="974"/>
      <point x="1043" y="1006"/>
      <point x="998" y="1006" type="qcurve" smooth="yes"/>
      <point x="506" y="1006" type="line" smooth="yes"/>
      <point x="451" y="1006"/>
      <point x="349" y="990"/>
      <point x="266" y="947"/>
      <point x="208" y="871"/>
      <point x="197" y="810" type="qcurve" smooth="yes"/>
      <point x="187" y="750" type="line"/>
      <point x="427" y="706" type="line"/>
      <point x="474" y="974" type="line"/>
      <point x="474" y="974"/>
      <point x="474" y="974"/>
      <point x="474" y="974" type="qcurve"/>
      <point x="992" y="974" type="line"/>
      <point x="992" y="974"/>
      <point x="992" y="974"/>
      <point x="992" y="974" type="qcurve"/>
      <point x="917" y="545" type="line"/>
      <point x="411" y="545" type="line" smooth="yes"/>
      <point x="356" y="545"/>
      <point x="254" y="530"/>
      <point x="172" y="488"/>
      <point x="114" y="411"/>
      <point x="103" y="349" type="qcurve" smooth="yes"/>
      <point x="77" y="198" type="line" smooth="yes"/>
      <point x="66" y="135"/>
      <point x="94" y="56"/>
      <point x="160" y="11"/>
      <point x="257" y="-6"/>
    </contour>
    <contour>
      <point x="295" y="26" type="line"/>
      <point x="295" y="26"/>
      <point x="295" y="26"/>
      <point x="295" y="26" type="qcurve"/>
      <point x="380" y="513" type="line"/>
      <point x="380" y="513"/>
      <point x="380" y="513"/>
      <point x="380" y="513" type="qcurve"/>
      <point x="912" y="513" type="line"/>
      <point x="827" y="26" type="line"/>
      <point x="827" y="26"/>
      <point x="827" y="26"/>
      <point x="827" y="26" type="qcurve"/>
    </contour>
    <contour>
      <point x="1162" y="529" type="line"/>
      <point x="1240" y="974" type="line"/>
      <point x="1240" y="974"/>
      <point x="1240" y="974"/>
      <point x="1240" y="974" type="qcurve"/>
      <point x="1772" y="974" type="line"/>
      <point x="1772" y="974"/>
      <point x="1772" y="974"/>
      <point x="1772" y="974" type="qcurve"/>
      <point x="1694" y="529" type="line"/>
    </contour>
  </outline>
</glyph>
<glyph name="ccedilla" format="2">
  <advance width="1374"/>
  <unicode hex="00E7"/>
  <anchor x="789" y="1150" name="top"/>
  <anchor x="562" y="-150" name="bottom"/>
  <outline>
    <contour>
      <point x="89" y="208" type="line" smooth="yes"/>
      <point x="69" y="92"/>
      <point x="168" y="-6"/>
      <point x="308" y="-6" type="qcurve" smooth="yes"/>
      <point x="870" y="-6" type="line" smooth="yes"/>
      <point x="1010" y="-6"/>
      <point x="1143" y="92"/>
      <point x="1163" y="208" type="qcurve" smooth="yes"/>
      <point x="1181" y="310" type="line"/>
      <point x="942" y="360" type="line"/>
      <point x="884" y="26" type="line"/>
      <point x="884" y="26"/>
      <point x="884" y="26"/>
      <point x="884" y="26" type="qcurve"/>
      <point x="306" y="26" type="line"/>
      <point x="306" y="26"/>
      <point x="306" y="26"/>
      <point x="306" y="26" type="qcurve"/>
      <point x="471" y="974" type="line"/>
      <point x="471" y="974"/>
      <point x="471" y="974"/>
      <point x="471" y="974" type="qcurve"/>
      <point x="1045" y="974" type="line"/>
      <point x="1045" y="974"/>
      <point x="1045" y="974"/>
      <point x="1045" y="974" type="qcurve"/>
      <point x="988" y="650" type="line"/>
      <point x="1244" y="696" type="line"/>
      <point x="1263" y="802" type="line" smooth="yes"/>
      <point x="1282" y="912"/>
      <point x="1182" y="1006"/>
      <point x="1043" y="1006" type="qcurve" smooth="yes"/>
      <point x="485" y="1006" type="line" smooth="yes"/>
      <point x="348" y="1006"/>
      <point x="212" y="912"/>
      <point x="193" y="802" type="qcurve" smooth="yes"/>
    </contour>
    <contour>
      <point x="501" y="-438" type="qcurve" smooth="yes"/>
      <point x="547" y="-438"/>
      <point x="624" y="-420"/>
      <point x="684" y="-382"/>
      <point x="723" y="-324"/>
      <point x="730" y="-285" type="qcurve" smooth="yes"/>
      <point x="738" y="-242"/>
      <point x="716" y="-177"/>
      <point x="665" y="-132"/>
      <point x="589" y="-108"/>
      <point x="541" y="-108" type="qcurve"/>
      <point x="610" y="0" type="line"/>
      <point x="556" y="0" type="line"/>
      <point x="458" y="-147" type="line"/>
      <point x="472" y="-142"/>
      <point x="495" y="-138"/>
      <point x="506" y="-138" type="qcurve" smooth="yes"/>
      <point x="542" y="-138"/>
      <point x="570" y="-201"/>
      <point x="559" y="-268" type="qcurve" smooth="yes"/>
      <point x="547" y="-334"/>
      <point x="495" y="-409"/>
      <point x="460" y="-409" type="qcurve" smooth="yes"/>
      <point x="438" y="-409"/>
      <point x="400" y="-383"/>
      <point x="390" y="-366" type="qcurve"/>
      <point x="363" y="-382" type="line"/>
      <point x="383" y="-411"/>
      <point x="448" y="-438"/>
    </contour>
  </outline>
</glyph>
<glyph name="ecircumflex" format="2">
  <advance width="1416"/>
  <unicode hex="00EA"/>
  <anchor x="860" y="1548" name="top"/>
  <anchor x="589" y="-150" name="bottom"/>
  <anchor x="589" y="0" name="ogonek"/>
  <anchor x="1210" y="1267" name="topright"/>
  <outline>
    <contour>
      <point x="98" y="260" type="line" smooth="yes"/>
      <point x="73.8528" y="119.644"/>
      <point x="198.951" y="0"/>
      <point x="371" y="0" type="qcurve" smooth="yes"/>
      <point x="807" y="0" type="line" smooth="yes"/>
      <point x="979.049" y="0"/>
      <point x="1145.85" y="119.644"/>
      <point x="1170" y="260" type="qcurve"/>
      <point x="1172" y="270" type="line"/>
      <point x="932" y="314" type="line"/>
      <point x="883" y="32" type="line"/>
      <point x="883" y="32"/>
      <point x="883" y="32"/>
      <point x="883" y="32" type="qcurve"/>
      <point x="307" y="32" type="line"/>
      <point x="307" y="32"/>
      <point x="307" y="32"/>
      <point x="307" y="32" type="qcurve"/>
      <point x="387" y="490" type="line"/>
      <point x="1211" y="490" type="line"/>
      <point x="1256" y="750" type="line" smooth="yes"/>
      <point x="1279.39" y="885.828"/>
      <point x="1154.05" y="1000"/>
      <point x="982" y="1000" type="qcurve" smooth="yes"/>
      <point x="546" y="1000" type="line" smooth="yes"/>
      <point x="375.46" y="1000"/>
      <point x="207.393" y="884.319"/>
      <point x="184" y="750" type="qcurve" smooth="yes"/>
    </contour>
    <contour>
      <point x="392" y="522" type="line"/>
      <point x="470" y="968" type="line"/>
      <point x="470" y="968"/>
      <point x="470" y="968"/>
      <point x="470" y="968" type="qcurve"/>
      <point x="1046" y="968" type="line"/>
      <point x="1046" y="968"/>
      <point x="1046" y="968"/>
      <point x="1046" y="968" type="qcurve"/>
      <point x="968" y="522" type="line"/>
    </contour>
    <contour>
      <point x="436" y="1085" type="line"/>
      <point x="482" y="1085" type="line"/>
      <point x="779" y="1395" type="line"/>
      <point x="954" y="1085" type="line"/>
      <point x="1178" y="1085" type="line"/>
      <point x="935" y="1448" type="line"/>
      <point x="787" y="1448" type="line"/>
    </contour>
  </outline>
  <guideline angle="0" color="1,0,0,1" x="0" y="-1000"/>
</glyph>
<glyph name="igrave" format="2">
  <advance width="642"/>
  <unicode hex="00EC"/>
  <anchor x="176" y="-150" name="bottom"/>
  <anchor x="403" y="1150" name="top"/>
  <anchor x="117" y="0" name="ogonek"/>
  <outline>
    <contour>
      <point x="80" y="0" type="line"/>
      <point x="324" y="0" type="line"/>
      <point x="499" y="1000" type="line"/>
      <point x="255" y="1000" type="line"/>
    </contour>
    <contour>
      <point x="567" y="1085" type="line"/>
      <point x="368" y="1448" type="line"/>
      <point x="135" y="1448" type="line"/>
      <point x="528" y="1085" type="line"/>
    </contour>
  </outline>
</glyph>
<glyph name="icircumflex" format="2">
  <advance width="642"/>
  <unicode hex="00EE"/>
  <anchor x="176" y="-150" name="bottom"/>
  <anchor x="473" y="1548" name="top"/>
  <anchor x="80" y="0" name="ogonek"/>
  <anchor x="823" y="1267" name="topright"/>
  <outline>
    <contour>
      <point x="80" y="0" type="line"/>
      <point x="324" y="0" type="line"/>
      <point x="499" y="1000" type="line"/>
      <point x="255" y="1000" type="line"/>
    </contour>
    <contour>
      <point x="49" y="1085" type="line"/>
      <point x="95" y="1085" type="line"/>
      <point x="392" y="1395" type="line"/>
      <point x="567" y="1085" type="line"/>
      <point x="791" y="1085" type="line"/>
      <point x="548" y="1448" type="line"/>
      <point x="400" y="1448" type="line"/>
    </contour>
  </outline>
</glyph>
<glyph name="idieresis" format="2">
  <advance width="642"/>
  <unicode hex="00EF"/>
  <anchor x="176" y="-150" name="bottom"/>
  <anchor x="456" y="1450" name="top"/>
  <anchor x="117" y="0" name="ogonek"/>
  <outline>
    <contour>
      <point x="80" y="0" type="line"/>
      <point x="324" y="0" type="line"/>
      <point x="499" y="1000" type="line"/>
      <point x="255" y="1000" type="line"/>
    </contour>
    <contour>
      <point x="173" y="1150" type="qcurve" smooth="yes"/>
      <point x="233" y="1150" type="line" smooth="yes"/>
      <point x="299" y="1150"/>
      <point x="328" y="1174"/>
      <point x="339" y="1240" type="qcurve" smooth="yes"/>
      <point x="350" y="1302" type="line" smooth="yes"/>
      <point x="361" y="1367"/>
      <point x="342" y="1390"/>
      <point x="276" y="1390" type="qcurve" smooth="yes"/>
      <point x="216" y="1390" type="line" smooth="yes"/>
      <point x="150" y="1390"/>
      <point x="121" y="1367"/>
      <point x="110" y="1302" type="qcurve" smooth="yes"/>
      <point x="99" y="1240" type="line" smooth="yes"/>
      <point x="88" y="1174"/>
      <point x="107" y="1150"/>
    </contour>
    <contour>
      <point x="573" y="1150" type="qcurve" smooth="yes"/>
      <point x="633" y="1150" type="line" smooth="yes"/>
      <point x="699" y="1150"/>
      <point x="728" y="1174"/>
      <point x="739" y="1240" type="qcurve" smooth="yes"/>
      <point x="750" y="1302" type="line" smooth="yes"/>
      <point x="761" y="1367"/>
      <point x="742" y="1390"/>
      <point x="676" y="1390" type="qcurve" smooth="yes"/>
      <point x="616" y="1390" type="line" smooth="yes"/>
      <point x="550" y="1390"/>
      <point x="521" y="1367"/>
      <point x="510" y="1302" type="qcurve" smooth="yes"/>
      <point x="499" y="1240" type="line" smooth="yes"/>
      <point x="488" y="1174"/>
      <point x="507" y="1150"/>
    </contour>
  </outline>
</glyph>
<glyph name="eth" format="2">
  <advance width="1482"/>
  <unicode hex="00F0"/>
  <outline>
    <contour>
      <point x="307" y="-6" type="qcurve" smooth="yes"/>
      <point x="887" y="-6" type="line" smooth="yes"/>
      <point x="1027" y="-6"/>
      <point x="1160" y="92"/>
      <point x="1180" y="208" type="qcurve" smooth="yes"/>
      <point x="1236" y="526" type="line" smooth="yes"/>
      <point x="1282" y="788"/>
      <point x="1235" y="1163"/>
      <point x="1132" y="1282" type="qcurve"/>
      <point x="1430" y="1360" type="line"/>
      <point x="1426" y="1389" type="line"/>
      <point x="1109" y="1306" type="line"/>
      <point x="1053" y="1361"/>
      <point x="902" y="1437"/>
      <point x="802" y="1458" type="qcurve"/>
      <point x="583" y="1383" type="line"/>
      <point x="673" y="1368"/>
      <point x="816" y="1298"/>
      <point x="870" y="1243" type="qcurve"/>
      <point x="567" y="1163" type="line"/>
      <point x="571" y="1134" type="line"/>
      <point x="892" y="1218" type="line"/>
      <point x="941" y="1159"/>
      <point x="1001" y="1004"/>
      <point x="1011" y="906" type="qcurve"/>
      <point x="466" y="906" type="line" smooth="yes"/>
      <point x="329" y="906"/>
      <point x="194" y="811"/>
      <point x="175" y="702" type="qcurve" smooth="yes"/>
      <point x="88" y="208" type="line" smooth="yes"/>
      <point x="68" y="92"/>
      <point x="168" y="-6"/>
    </contour>
    <contour>
      <point x="1014" y="874" type="line"/>
      <point x="1019" y="803"/>
      <point x="1009" y="645"/>
      <point x="993" y="555" type="qcurve" smooth="yes"/>
      <point x="901" y="26" type="line"/>
      <point x="901" y="26"/>
      <point x="901" y="26"/>
      <point x="901" y="26" type="qcurve"/>
      <point x="305" y="26" type="line"/>
      <point x="305" y="26"/>
      <point x="305" y="26"/>
      <point x="305" y="26" type="qcurve"/>
      <point x="453" y="874" type="line"/>
      <point x="453" y="874"/>
      <point x="453" y="874"/>
      <point x="453" y="874" type="qcurve"/>
    </contour>
  </outline>
</glyph>
<glyph name="ntilde" format="2">
  <advance width="1419"/>
  <unicode hex="00F1"/>
  <anchor x="849" y="1462" name="top"/>
  <anchor x="567" y="-150" name="bottom"/>
  <outline>
    <contour>
      <point x="78" y="0" type="line"/>
      <point x="326" y="0" type="line"/>
      <point x="496" y="974" type="line"/>
      <point x="1032" y="974" type="line"/>
      <point x="1032" y="974"/>
      <point x="1032" y="974"/>
      <point x="1032" y="974" type="qcurve"/>
      <point x="862" y="0" type="line"/>
      <point x="1110" y="0" type="line"/>
      <point x="1242" y="756" type="line" smooth="yes"/>
      <point x="1265" y="890"/>
      <point x="1138" y="1006"/>
      <point x="968" y="1006" type="qcurve" smooth="yes"/>
      <point x="578" y="1006" type="line" smooth="yes"/>
      <point x="551" y="1006"/>
      <point x="510" y="992"/>
      <point x="497" y="978" type="qcurve"/>
      <point x="501" y="1000" type="line"/>
      <point x="253" y="1000" type="line"/>
    </contour>
    <contour>
      <point x="465" y="1152" type="qcurve"/>
      <point x="494" y="1148" type="line"/>
      <point x="514" y="1201"/>
      <point x="581" y="1237"/>
      <point x="613" y="1237" type="qcurve" smooth="yes"/>
      <point x="664" y="1237"/>
      <point x="747" y="1205"/>
      <point x="824" y="1168"/>
      <point x="902" y="1136"/>
      <point x="948" y="1136" type="qcurve" smooth="yes"/>
      <point x="1016" y="1136"/>
      <point x="1114" y="1245"/>
      <point x="1167" y="1390" type="qcurve"/>
      <point x="1137" y="1395" type="line"/>
      <point x="1117" y="1342"/>
      <point x="1051" y="1306"/>
      <point x="1019" y="1306" type="qcurve" smooth="yes"/>
      <point x="968" y="1306"/>
      <point x="885" y="1338"/>
      <point x="808" y="1375"/>
      <point x="730" y="1407"/>
      <point x="684" y="1407" type="qcurve" smooth="yes"/>
      <point x="616" y="1407"/>
      <point x="516" y="1296"/>
    </contour>
  </outline>
  <guideline angle="0" x="0" y="988"/>
  <guideline angle="0" x="0" y="870"/>
  <guideline angle="90" x="266" y="0"/>
  <guideline angle="90" x="926" y="0"/>
  <guideline angle="90" x="296" y="0"/>
  <guideline angle="90" x="896" y="0"/>
</glyph>
<glyph name="ograve" format="2">
  <advance width="1433"/>
  <unicode hex="00F2"/>
  <anchor x="797" y="1150" name="top"/>
  <anchor x="570" y="-150" name="bottom"/>
  <anchor x="1282" y="802" name="horn"/>
  <anchor x="615" y="0" name="ogonek"/>
  <outline>
    <contour>
      <point x="89" y="208" type="line" smooth="yes"/>
      <point x="68.6258" y="91.7916"/>
      <point x="169.154" y="-6"/>
      <point x="308" y="-6" type="qcurve" smooth="yes"/>
      <point x="888" y="-6" type="line" smooth="yes"/>
      <point x="1028.36" y="-6"/>
      <point x="1160.63" y="91.7916"/>
      <point x="1181" y="208" type="qcurve" smooth="yes"/>
      <point x="1285" y="802" type="line" smooth="yes"/>
      <point x="1303.87" y="910.662"/>
      <point x="1202.34" y="1006"/>
      <point x="1065" y="1006" type="qcurve" smooth="yes"/>
      <point x="485" y="1006" type="line" smooth="yes"/>
      <point x="347.663" y="1006"/>
      <point x="211.865" y="910.662"/>
      <point x="193" y="802" type="qcurve" smooth="yes"/>
    </contour>
    <contour>
      <point x="306" y="26" type="qcurve"/>
      <point x="471" y="974" type="line"/>
      <point x="471" y="974"/>
      <point x="471" y="974"/>
      <point x="471" y="974" type="qcurve"/>
      <point x="1067" y="974" type="line"/>
      <point x="1067" y="974"/>
      <point x="1067" y="974"/>
      <point x="1067" y="974" type="qcurve"/>
      <point x="902" y="26" type="line"/>
      <point x="902" y="26"/>
      <point x="902" y="26"/>
      <point x="902" y="26" type="qcurve"/>
      <point x="306" y="26" type="line"/>
      <point x="306" y="26"/>
      <point x="306" y="26"/>
    </contour>
    <contour>
      <point x="961" y="1085" type="line"/>
      <point x="762" y="1448" type="line"/>
      <point x="529" y="1448" type="line"/>
      <point x="922" y="1085" type="line"/>
    </contour>
  </outline>
</glyph>
<glyph name="oacute" format="2">
  <advance width="1433"/>
  <unicode hex="00F3"/>
  <anchor x="797" y="1150" name="top"/>
  <anchor x="570" y="-150" name="bottom"/>
  <anchor x="1282" y="802" name="horn"/>
  <anchor x="615" y="0" name="ogonek"/>
  <outline>
    <contour>
      <point x="89" y="208" type="line" smooth="yes"/>
      <point x="69" y="92"/>
      <point x="169" y="-6"/>
      <point x="308" y="-6" type="qcurve" smooth="yes"/>
      <point x="888" y="-6" type="line" smooth="yes"/>
      <point x="1028" y="-6"/>
      <point x="1161" y="92"/>
      <point x="1181" y="208" type="qcurve" smooth="yes"/>
      <point x="1285" y="802" type="line" smooth="yes"/>
      <point x="1304" y="911"/>
      <point x="1202" y="1006"/>
      <point x="1065" y="1006" type="qcurve" smooth="yes"/>
      <point x="485" y="1006" type="line" smooth="yes"/>
      <point x="348" y="1006"/>
      <point x="212" y="911"/>
      <point x="193" y="802" type="qcurve" smooth="yes"/>
    </contour>
    <contour>
      <point x="306" y="26" type="qcurve"/>
      <point x="471" y="974" type="line"/>
      <point x="471" y="974"/>
      <point x="471" y="974"/>
      <point x="471" y="974" type="qcurve"/>
      <point x="1067" y="974" type="line"/>
      <point x="1067" y="974"/>
      <point x="1067" y="974"/>
      <point x="1067" y="974" type="qcurve"/>
      <point x="902" y="26" type="line"/>
      <point x="902" y="26"/>
      <point x="902" y="26"/>
      <point x="902" y="26" type="qcurve"/>
      <point x="306" y="26" type="line"/>
      <point x="306" y="26"/>
      <point x="306" y="26"/>
    </contour>
    <contour>
      <point x="603" y="1085" type="line"/>
      <point x="649" y="1085" type="line"/>
      <point x="1180" y="1448" type="line"/>
      <point x="905" y="1448" type="line"/>
    </contour>
  </outline>
</glyph>
<glyph name="ocircumflex" format="2">
  <advance width="1433"/>
  <unicode hex="00F4"/>
  <anchor x="867" y="1548" name="top"/>
  <anchor x="570" y="-150" name="bottom"/>
  <anchor x="1282" y="802" name="horn"/>
  <anchor x="615" y="0" name="ogonek"/>
  <anchor x="1217" y="1267" name="topright"/>
  <outline>
    <contour>
      <point x="89" y="208" type="line" smooth="yes"/>
      <point x="69" y="92"/>
      <point x="169" y="-6"/>
      <point x="308" y="-6" type="qcurve" smooth="yes"/>
      <point x="888" y="-6" type="line" smooth="yes"/>
      <point x="1028" y="-6"/>
      <point x="1161" y="92"/>
      <point x="1181" y="208" type="qcurve" smooth="yes"/>
      <point x="1285" y="802" type="line" smooth="yes"/>
      <point x="1304" y="911"/>
      <point x="1202" y="1006"/>
      <point x="1065" y="1006" type="qcurve" smooth="yes"/>
      <point x="485" y="1006" type="line" smooth="yes"/>
      <point x="348" y="1006"/>
      <point x="212" y="911"/>
      <point x="193" y="802" type="qcurve" smooth="yes"/>
    </contour>
    <contour>
      <point x="306" y="26" type="qcurve"/>
      <point x="471" y="974" type="line"/>
      <point x="471" y="974"/>
      <point x="471" y="974"/>
      <point x="471" y="974" type="qcurve"/>
      <point x="1067" y="974" type="line"/>
      <point x="1067" y="974"/>
      <point x="1067" y="974"/>
      <point x="1067" y="974" type="qcurve"/>
      <point x="902" y="26" type="line"/>
      <point x="902" y="26"/>
      <point x="902" y="26"/>
      <point x="902" y="26" type="qcurve"/>
      <point x="306" y="26" type="line"/>
      <point x="306" y="26"/>
      <point x="306" y="26"/>
    </contour>
    <contour>
      <point x="443" y="1085" type="line"/>
      <point x="489" y="1085" type="line"/>
      <point x="786" y="1395" type="line"/>
      <point x="961" y="1085" type="line"/>
      <point x="1185" y="1085" type="line"/>
      <point x="942" y="1448" type="line"/>
      <point x="794" y="1448" type="line"/>
    </contour>
  </outline>
</glyph>
<glyph name="otilde" format="2">
  <advance width="1433"/>
  <unicode hex="00F5"/>
  <anchor x="851" y="1456" name="top"/>
  <anchor x="570" y="-150" name="bottom"/>
  <anchor x="1282" y="802" name="horn"/>
  <anchor x="615" y="0" name="ogonek"/>
  <outline>
    <contour>
      <point x="89" y="208" type="line" smooth="yes"/>
      <point x="68.6258" y="91.7916"/>
      <point x="169.154" y="-6"/>
      <point x="308" y="-6" type="qcurve" smooth="yes"/>
      <point x="888" y="-6" type="line" smooth="yes"/>
      <point x="1028.36" y="-6"/>
      <point x="1160.63" y="91.7916"/>
      <point x="1181" y="208" type="qcurve" smooth="yes"/>
      <point x="1285" y="802" type="line" smooth="yes"/>
      <point x="1303.87" y="910.662"/>
      <point x="1202.34" y="1006"/>
      <point x="1065" y="1006" type="qcurve" smooth="yes"/>
      <point x="485" y="1006" type="line" smooth="yes"/>
      <point x="347.663" y="1006"/>
      <point x="211.865" y="910.662"/>
      <point x="193" y="802" type="qcurve" smooth="yes"/>
    </contour>
    <contour>
      <point x="306" y="26" type="qcurve"/>
      <point x="471" y="974" type="line"/>
      <point x="471" y="974"/>
      <point x="471" y="974"/>
      <point x="471" y="974" type="qcurve"/>
      <point x="1067" y="974" type="line"/>
      <point x="1067" y="974"/>
      <point x="1067" y="974"/>
      <point x="1067" y="974" type="qcurve"/>
      <point x="902" y="26" type="line"/>
      <point x="902" y="26"/>
      <point x="902" y="26"/>
      <point x="902" y="26" type="qcurve"/>
      <point x="306" y="26" type="line"/>
      <point x="306" y="26"/>
      <point x="306" y="26"/>
    </contour>
    <contour>
      <point x="467" y="1146" type="qcurve"/>
      <point x="496" y="1142" type="line"/>
      <point x="515.62" y="1194.82"/>
      <point x="582.552" y="1231"/>
      <point x="615" y="1231" type="qcurve" smooth="yes"/>
      <point x="666.375" y="1231"/>
      <point x="749.312" y="1199.44"/>
      <point x="826.188" y="1161.56"/>
      <point x="903.875" y="1130"/>
      <point x="950" y="1130" type="qcurve" smooth="yes"/>
      <point x="1018.25" y="1130"/>
      <point x="1115.75" y="1238.5"/>
      <point x="1169" y="1384" type="qcurve"/>
      <point x="1139" y="1389" type="line"/>
      <point x="1119.38" y="1336.18"/>
      <point x="1053.45" y="1300"/>
      <point x="1021" y="1300" type="qcurve" smooth="yes"/>
      <point x="969.625" y="1300"/>
      <point x="886.688" y="1331.56"/>
      <point x="809.812" y="1369.44"/>
      <point x="732.125" y="1401"/>
      <point x="686" y="1401" type="qcurve" smooth="yes"/>
      <point x="617.75" y="1401"/>
      <point x="518" y="1290"/>
    </contour>
  </outline>
  <guideline angle="90" x="268" y="0"/>
  <guideline angle="90" x="928" y="0"/>
  <guideline angle="90" x="298" y="0"/>
  <guideline angle="90" x="898" y="0"/>
</glyph>
<glyph name="odieresis" format="2">
  <advance width="1433"/>
  <unicode hex="00F6"/>
  <anchor x="850" y="1450" name="top"/>
  <anchor x="570" y="-150" name="bottom"/>
  <anchor x="1282" y="802" name="horn"/>
  <anchor x="615" y="0" name="ogonek"/>
  <outline>
    <contour>
      <point x="89" y="208" type="line" smooth="yes"/>
      <point x="69" y="92"/>
      <point x="169" y="-6"/>
      <point x="308" y="-6" type="qcurve" smooth="yes"/>
      <point x="888" y="-6" type="line" smooth="yes"/>
      <point x="1028" y="-6"/>
      <point x="1161" y="92"/>
      <point x="1181" y="208" type="qcurve" smooth="yes"/>
      <point x="1285" y="802" type="line" smooth="yes"/>
      <point x="1304" y="911"/>
      <point x="1202" y="1006"/>
      <point x="1065" y="1006" type="qcurve" smooth="yes"/>
      <point x="485" y="1006" type="line" smooth="yes"/>
      <point x="348" y="1006"/>
      <point x="212" y="911"/>
      <point x="193" y="802" type="qcurve" smooth="yes"/>
    </contour>
    <contour>
      <point x="306" y="26" type="qcurve"/>
      <point x="471" y="974" type="line"/>
      <point x="471" y="974"/>
      <point x="471" y="974"/>
      <point x="471" y="974" type="qcurve"/>
      <point x="1067" y="974" type="line"/>
      <point x="1067" y="974"/>
      <point x="1067" y="974"/>
      <point x="1067" y="974" type="qcurve"/>
      <point x="902" y="26" type="line"/>
      <point x="902" y="26"/>
      <point x="902" y="26"/>
      <point x="902" y="26" type="qcurve"/>
      <point x="306" y="26" type="line"/>
      <point x="306" y="26"/>
      <point x="306" y="26"/>
    </contour>
    <contour>
      <point x="567" y="1150" type="qcurve" smooth="yes"/>
      <point x="627" y="1150" type="line" smooth="yes"/>
      <point x="693" y="1150"/>
      <point x="722" y="1174"/>
      <point x="733" y="1240" type="qcurve" smooth="yes"/>
      <point x="744" y="1302" type="line" smooth="yes"/>
      <point x="755" y="1367"/>
      <point x="736" y="1390"/>
      <point x="670" y="1390" type="qcurve" smooth="yes"/>
      <point x="610" y="1390" type="line" smooth="yes"/>
      <point x="544" y="1390"/>
      <point x="515" y="1367"/>
      <point x="504" y="1302" type="qcurve" smooth="yes"/>
      <point x="493" y="1240" type="line" smooth="yes"/>
      <point x="482" y="1174"/>
      <point x="501" y="1150"/>
    </contour>
    <contour>
      <point x="967" y="1150" type="qcurve" smooth="yes"/>
      <point x="1027" y="1150" type="line" smooth="yes"/>
      <point x="1093" y="1150"/>
      <point x="1122" y="1174"/>
      <point x="1133" y="1240" type="qcurve" smooth="yes"/>
      <point x="1144" y="1302" type="line" smooth="yes"/>
      <point x="1155" y="1367"/>
      <point x="1136" y="1390"/>
      <point x="1070" y="1390" type="qcurve" smooth="yes"/>
      <point x="1010" y="1390" type="line" smooth="yes"/>
      <point x="944" y="1390"/>
      <point x="915" y="1367"/>
      <point x="904" y="1302" type="qcurve" smooth="yes"/>
      <point x="893" y="1240" type="line" smooth="yes"/>
      <point x="882" y="1174"/>
      <point x="901" y="1150"/>
    </contour>
  </outline>
</glyph>
<glyph name="divide" format="2">
  <advance width="1452"/>
  <unicode hex="00F7"/>
  <outline>
    <contour>
      <point x="604" y="163" type="qcurve" smooth="yes"/>
      <point x="669" y="163" type="line" smooth="yes"/>
      <point x="679" y="163"/>
      <point x="686" y="172"/>
      <point x="690" y="192" type="qcurve"/>
      <point x="696" y="228" type="line" smooth="yes"/>
      <point x="699" y="248"/>
      <point x="696" y="257"/>
      <point x="686" y="257" type="qcurve" smooth="yes"/>
      <point x="622" y="257" type="line" smooth="yes"/>
      <point x="612" y="257"/>
      <point x="605" y="248"/>
      <point x="602" y="228" type="qcurve" smooth="yes"/>
      <point x="596" y="192" type="line" smooth="yes"/>
      <point x="592" y="172"/>
      <point x="594" y="163"/>
    </contour>
    <contour>
      <point x="124" y="569" type="line"/>
      <point x="1290" y="569" type="line"/>
      <point x="1297" y="605" type="line"/>
      <point x="131" y="605" type="line"/>
    </contour>
    <contour>
      <point x="736" y="915" type="qcurve" smooth="yes"/>
      <point x="801" y="915" type="line" smooth="yes"/>
      <point x="811" y="915"/>
      <point x="817" y="924"/>
      <point x="821" y="944" type="qcurve"/>
      <point x="827" y="980" type="line" smooth="yes"/>
      <point x="831" y="1000"/>
      <point x="827" y="1009"/>
      <point x="817" y="1009" type="qcurve" smooth="yes"/>
      <point x="753" y="1009" type="line" smooth="yes"/>
      <point x="743" y="1009"/>
      <point x="737" y="1000"/>
      <point x="733" y="980" type="qcurve"/>
      <point x="727" y="944" type="line" smooth="yes"/>
      <point x="723" y="924"/>
      <point x="726" y="915"/>
    </contour>
  </outline>
</glyph>
